<?xml version="1.0" encoding="utf-8"?>
<!-- Generator: Adobe Illustrator 19.0.1, SVG Export Plug-In . SVG Version: 6.00 Build 0)  -->
<svg version="1.1" id="App_x5F_design_xA0_Изображение_1_"
	 xmlns="http://www.w3.org/2000/svg" xmlns:xlink="http://www.w3.org/1999/xlink" x="0px" y="0px" viewBox="0 0 700 400"
	 style="enable-background:new 0 0 700 400;" xml:space="preserve">
<g>
	<g>
		<path d="M399.7359619,269.1515808c4.3591309,6.3902893,8.7259216,12.5719604,15.5761719,16.6453247
			c8.8840027,5.2826538,13.0812073,14.1172791,14.8430176,23.8784485
			c2.0837708,11.5449829,2.0560913,23.2089844-0.2420044,34.7952271c-0.2142029,1.0799561-1.0603943,2.3742676,0.0362244,3.266449
			c0.8544006,0.6950989,1.8986816-0.0622559,2.7852783-0.500061c19.4697571-9.6146851,39.2557983-7.2265625,58.8395691-0.8787842
			c13.5343933,4.3869324,26.3557129,10.4406433,35.5450439,22.0720215c0.8234863,1.0423889,1.7938232,1.9991455,2.4486084,3.1378784
			c1.1970825,2.0819092,3.2166748,3.9933472,1.519165,6.8148193c-1.5076294,2.5058594-3.8776245,1.4942017-5.8671875,1.4962463
			c-55.3281555,0.0575867-110.6743469,0.9319458-165.9797058-0.1920776
			c-60.6090393-1.2318115-121.2121429,0.2744141-181.7946167-1.0233154
			c-17.1051178-0.3664246-34.2116394-0.3574219-51.3143311-0.6661682c-4.21875-0.0761414-5.6597443-2.2818909-5.8252716-5.8113403
			c-0.1659393-3.5380554,0.8625488-6.9145508,2.2140427-10.178894
			c6.4269333-15.5233765,11.4033432-31.5466614,16.7262192-48.2904968
			c-5.1476288,1.0418701-9.8095245,2.2089233-14.541214,2.8933716c-8.1200638,1.1745911-16.1990967,2.7512817-24.5317535,1.4011841
			c-5.3556519-0.8677368-7.7834549-3.4381714-6.160347-8.7045288c1.1680527-3.789856,2.1136169-7.6021423,2.7514572-11.4759827
			c0.2856445-1.7348022,1.5084152-4.9260864-0.7538605-5.0843201c-2.0850983-0.1458435-5.0569077,0.6349182-6.1416245,4.2481995
			c-4.0325165,13.4326477-4.1014023,26.8397827-0.7844772,40.3216248c1.9118805,7.7709351,1.0106506,15.4772339,0.008728,23.1952209
			c-0.4252777,3.2760315-1.5121994,6.4717102-0.5292816,9.8267822c0.4290848,1.4645691-0.1199265,2.6989441-1.4892883,3.3302917
			c-1.9044266,0.8780518-2.5369568-0.7501831-3.5078659-1.880249c-1.4143829-1.6462402-1.1721573-3.4847717-0.6662674-5.211792
			c3.7357254-12.7529907,3.0719833-25.39151-0.1175842-38.1818237c-2.0398712-8.1800537-1.7943954-16.4712219,1.2730789-24.5758057
			c1.1310883-2.9884338,1.8781281-6.2536011,0.7728195-10.2816467c-2.5365829,3.0013428-4.9151611,5.0298462-7.9065628,6.6953735
			c-2.9688873,1.6530151-3.7690887,6.2777405-4.0391006,9.6015625c-0.7418213,9.1316223-4.7800598,17.1953735-11.0337296,22.5508118
			c-10.4237595,8.9265442-14.2877388,21.1956787-20.3582039,32.4127197
			c-1.8722382,3.4595947-5.0918694,5.1678772-8.5507011,6.4397888c-1.3622246,0.5009155-3.1403961,0.6612854-4.0090218-0.9818115
			c-0.9178181-1.7362061,0.4171276-2.8199768,1.6597042-3.6809998c7.2851963-5.0483093,10.7052479-12.7682495,15.4560108-21.5172119
			c-4.5051575,1.9002075-7.5801048,3.2304077-10.6808853,4.497406c-4.9556427,2.0248413-9.9553814,1.6605225-14.9352894,0.1064453
			c-0.7397995-0.2308655-1.7305088-0.6316528-2.0057373-1.2297058c-3.5500956-7.7134705-6.8410168-15.4959412-3.167469-24.166626
			c1.5590115-3.6797485,3.0234966-7.4029236,4.6953812-11.0306091c1.9006348-4.1239929,4.7072449-7.2864685,8.6340828-9.9289246
			c9.4439716-6.355011,19.1515522-12.0581665,30.1988964-15.0105896c2.4475212-0.6541443,3.7145309-1.7072754,4.4903374-3.9043884
			c1.1374931-3.221405,2.8403053-5.9456482,6.5702171-6.6426086c1.2689972-0.2371216,2.07341-1.1997375,2.5490189-2.2187805
			c5.8062668-12.4403992,16.393074-19.4724121,28.481781-24.3559723c4.7569275-1.9216919,6.0408096-5.3689728,7.7666931-9.3743134
			c0.8932343-2.0729675,1.6384659-4.9465027,4.9188843-5.5973206c1.3861923-0.2750092,2.2186584-1.9995575,1.9346619-4.0079346
			c-1.6950073-11.9866638,1.2001877-22.7339478,9.1153717-32.0097046c2.4332199-2.8514862,3.1259308-7.7411652,8.6201248-7.0267639
			c1.9114075,0.2485352,4.1067505-0.7070313,4.3952179,2.4083557c0.2396088,2.5879822-1.2138062,4.1884003-3.2802429,4.9317474
			c-9.5721741,3.4433289-13.9477844,9.2723389-14.7739258,19.569931c-0.1937027,2.4143829-0.9344864,4.7822723-0.9939804,7.2670746
			c-0.0502167,2.097702,0.0642242,4.5621185,2.2302246,4.7516022c2.4842987,0.2173462,5.3255768-0.5144501,6.0636215-3.8490143
			c1.4732513-6.65625,6.5410767-11.338501,9.7859955-16.9998322c2.4738159-4.3159943,5.7333374-8.7254181,10.63591-11.2987061
			c1.3398438-0.7032623,2.7460785-1.1159821,4.0869446-1.5848389c1.7454834-0.610321,3.4980316,0.5176086,3.9781647,2.1488037
			c0.4586639,1.5583038-0.8846588,2.6717834-2.4326172,3.2307434c-12.1574707,4.3899689-17.9854126,14.4215088-22.8118439,25.423111
			c-1.2224426,2.7864532,0.9059448,2.1261902,2.0625,2.3262787c6.4534149,1.1164093,11.5935669,4.7255249,16.327713,8.8705139
			c3.9803009,3.4850006,3.3288269,8.1190491-1.2682037,10.986145c-7.5018158,4.6788025-15.5412903,7.7144775-24.5384216,7.5730286
			c-4.0232391-0.0632324-6.7791519,3.7013855-5.1146774,7.3326721c1.648674,3.5968018,2.9832611,7.2355347,3.8578415,11.1163635
			c0.9557266,4.2409363,5.3493042,6.9121399,9.772171,5.6350403c13.1738129-3.8039856,26.337616-7.3913269,39.1972198-12.5370178
			c12.7101593-5.085907,22.2543793-13.7820435,32.7327271-21.6171875
			c6.1568146-4.6037445,13.1399994-7.7155609,20.0206299-11.1110077
			c18.6448517-9.2008514,39.0075073-10.817627,58.966156-14.2778168c2.0788879-0.3604126,4.3166504-0.1016388,6.4440613,0.1637573
			c13.6864014,1.7073364,27.621582,1.5185852,41.006073,5.5660248c5.5344849,1.673645,10.714447,4.4668884,16.8263855,4.7690582
			c-5.5771179-3.5016479-11.1511536-7.008255-16.7321472-10.5036774
			c-7.1974792-4.5078125-14.4633179-8.9098358-21.5879822-13.5297241
			c-14.4766846-9.387085-18.6369934-26.8322754-9.5735474-41.5089111
			c17.7615967-28.7616425,35.6559448-57.4430161,53.7294006-86.0095444
			c7.4447632-11.766983,15.4563599-23.1770363,23.2771301-34.7040062
			c9.4458923-13.9222412,26.7596741-17.6047306,41.3960876-8.4485359
			c29.3450928,18.3575706,58.5849304,36.8845673,87.7653198,55.5029068
			c4.1531677,2.6498795,8.2758484,3.9422607,13.1434631,3.3960953c8.105957-0.9094849,16.3377686-1.0781555,24.322998-2.5849228
			c9.7659302-1.8428116,17.0114746-8.7599716,24.9004517-14.2501984c0.9645386-0.671196,1.1335449-1.6087494,0.355896-2.5654221
			c-0.8682251-1.0681-1.8829346-1.9623413-3.3960571-1.6138153c-1.2945557,0.2981796-2.6027222,0.6208954-3.8284912,1.1202621
			c-6.9226074,2.8202515-14.0601807,1.3367538-21.045166,0.742897c-5.0900879-0.4327469-9.1549072-4.9592209-9.4108887-8.9284668
			c-0.2978516-4.6190491,3.4110107-9.9905396,8.7619019-12.0175858c3.4428101-1.3041992,8.4501343-2.4201241,9.2015991-5.1092911
			c0.8516846-3.0478592-4.1658325-5.1320457-6.5314941-7.7235527c-5.9437256-6.5112381-13.3207397-10.4596558-21.9487915-12.0781021
			c-2.0830078-0.3907127-4.2828369-0.7535591-3.8251343-3.4834423c0.4126587-2.4606609,2.677063-2.9828892,4.7115479-2.6521549
			c4.2578735,0.6921787,8.3275757,2.1012478,11.7380371,4.868166c5.5133667,4.4730167,9.9341431,10.2112103,16.0343018,13.9976978
			c1.5829468,0.9825363,1.8880005,2.6418991,2.7773438,3.9988213c1.6693726,2.5471268,4.3153687,2.7484703,6.6400146,1.6557846
			c2.1717529-1.0208435,1.2991943-3.3044243,0.8352661-5.2038841c-2.5872803-10.5927162-9.2910767-17.4683189-19.4319458-20.909338
			c-2.4608765-0.8350525-4.1575317-2.6196022-6.4237061-3.5731144c-1.234375-0.5193691-1.7675781-1.5395756-1.3518066-2.8329372
			c0.3186035-0.9913483,1.0863647-1.7354469,2.1486816-1.8354797c2.6764526-0.2520351,5.7041626-0.5102806,7.6421509,1.3925934
			c5.1511841,5.0577888,11.4770508,8.7961292,15.7328491,14.9056416c3.4471436,4.9485664,4.1316528,10.739212,6.1032104,16.1250496
			c0.3552246,0.9703331-0.1435547,2.7220345,1.0009766,3.0247688c5.0629883,1.3391838,7.0131226,5.6633377,9.6263428,9.4116287
			c1.5462036,2.2178688,3.8294067,3.0098915,6.4816284,3.1463509c13.1951294,0.6788864,25.234314,4.1795044,34.4805908,14.3636703
			c0.9717407,1.0703583,2.2504883,1.2743683,3.6314087,1.335022c2.4465942,0.10746,5.0562134,1.0290833,6.1299438,2.9198456
			c2.7097168,4.771225,6.9518433,4.4034805,11.2677612,4.3289719c12.7648315-0.2203217,24.7084351,3.6283798,36.3126831,8.1777115
			c11.1387329,4.3668137,17.2366333,16.8209152,16.1864014,30.5308609
			c-0.6771851,8.8398819-4.0864258,12.9123001-12.9360352,12.8169785
			c-21.5702515-0.2324066-40.2974854-6.3478546-51.2438354-27.1143951
			c-2.2241821-4.2195435-4.2573853-9.3131027-10.7096558-8.6703491c-0.5324097,0.0530319-1.1181641-0.6493683-1.7109375-0.9348755
			c-1.0666504-0.5138168-1.4061279-2.9061432-2.9810791-1.7215347c-1.6852417,1.26754-0.5473022,3.0310822,0.1828003,4.5269241
			c0.2919922,0.5982208,0.5480347,1.2477951,0.9736328,1.7419662c9.2809448,10.7754593,10.6393433,24.0243454,11.4023438,37.3456955
			c0.4620361,8.0668182,4.0484619,14.8908234,6.8450928,22.1931c2.9362183,7.6669312,8.9979858,10.9291534,15.0452881,14.7345581
			c12.4023438,7.8044891,24.9082031,15.4459991,37.2556763,23.3358459
			c9.7813721,6.2501984,14.302002,15.3850708,14.1851196,26.9799347c-0.0553589,5.489502-2.9485474,9.8523712-5.5915527,14.1156921
			c-25.1817017,40.6195679-50.4549561,81.1833801-75.9307861,121.6190186
			c-8.7825317,13.9398499-26.2979126,17.9876709-40.3486938,9.6095276
			c-11.7258911-6.9918823-23.418457-14.0809937-34.74646-21.6915894
			c-44.4865417-29.8877869-90.7305298-56.9804077-135.8971252-85.7833557
			C400.9262695,269.5993042,400.3096313,269.4091492,399.7359619,269.1515808z M604.3118896,121.8582306
			c0.8654175-4.9991379-4.203186-16.624855-8.850708-19.4020081c1.1538696,4.782196,3.0202637,8.7100677,5.5164185,12.4289322
			c1.4346313,2.1373596,3.597229,3.996254,3.34021,6.9699326c1.1362915,3.008667-0.5615234,4.6819687-2.9981689,5.6149216
			c-4.9320679,1.8883743-9.651001,4.2931747-15.0978394,4.8446274c-5.6278076,0.5697784-11.1819458,1.8673401-17.9203491,3.0484467
			c9.65979,6.0276337,18.3571167,11.4312897,27.0237427,16.8836823c1.5974731,1.0050354,2.3330688,0.530838,2.8684082-1.1270294
			c1.763855-5.4626312,4.9727783-10.0405426,8.5448608-14.4882965
			C609.4828491,133.2142334,607.866333,124.9255676,604.3118896,121.8582306z M378.8965149,376.0751648
			c7.164917,0,14.3319397-0.0987244,21.4937134,0.0509949c2.6796875,0.0560303,4.2502747-0.4112244,4.8928528-3.4456177
			c1.9075623-9.0077209,6.9746704-15.708252,15.4163208-19.6924744c1.0487061-0.4949341,1.9586792-1.0452271,2.2026672-2.4432068
			c2.3276672-13.3365784,4.1350708-26.7199707,1.276825-40.1725159
			c-1.8213501-8.5724182-5.7902222-15.9808044-13.7513428-20.5334778c-3.9785461-2.275177-7.2272034-5.2687683-9.9448242-8.9453735
			c-10.0292358-13.5683899-23.6147461-22.7364502-38.2139282-30.6010132
			c-2.1845398-1.1767883-4.854187-1.5752869-6.8365784-2.9847565
			c-10.6873779-7.5988159-23.1226807-11.0309448-35.4876709-13.8657837
			c-18.2815247-4.1912231-36.8634033-4.0097504-55.5041199-1.1715698
			c-23.1368408,3.5227814-44.5507507,10.7266998-62.9414063,25.7549896
			c-9.0156708,7.3673096-17.6735229,15.5949707-27.756073,21.1351318
			c-15.1289368,8.3130798-21.9477386,22.36026-28.12146,36.6430969
			c-7.0426331,16.2931213-11.2063141,33.7538452-18.0415192,50.2071533
			c-0.5668259,1.3644409-0.7396622,2.8932495-1.0884323,4.3474121c-0.6840668,2.8521729,0.4353104,3.7171326,3.3394089,3.7778625
			c15.7670288,0.3296814,31.5476227,0.4296875,47.3063965,0.6745605
			C244.3816528,375.8554688,311.6505737,374.0296631,378.8965149,376.0751648z M299.8826294,186.0163727
			c0.1793213,6.8293762,3.6047974,13.7732697,10.9006042,18.4178467
			c19.4642029,12.3910828,38.7080383,25.1214447,58.0533142,37.6860199
			c56.0875854,36.4282532,113.8612976,70.2058105,169.6335449,107.1551819
			c11.6541748,7.7209167,23.6328735,14.9586487,35.5593262,22.2600708
			c12.3729858,7.5747986,26.1896362,4.4352722,33.8757324-7.8210449
			c24.9430542-39.7742615,49.8078003-79.5978394,74.5671387-119.4865875
			c1.7051392-2.7471008,4.0262451-5.1732025,4.7971802-8.5618439c2.3500977-10.3290863-1.8539429-19.8630524-11.9185181-26.2751923
			c-48.6815186-31.0151672-98.4353027-60.3287354-146.4490967-92.4080276
			c-10.7354736-7.1726685-21.8768005-13.737999-32.8325806-20.5808411
			c-11.7201233-7.3201981-23.4779968-14.5807495-35.1539612-21.9707108
			c-15.7378845-9.9608231-31.3479919-20.1247444-47.1378784-30.0018044
			c-10.9095459-6.8242874-23.9132996-4.9317894-31.5545044,4.455143c-3.3334045,4.094986-6.3942261,8.4337692-9.3218689,12.8328705
			c-7.0901184,10.6537094-13.75177,21.5856628-20.6961365,32.3364334
			c-16.528717,25.5885315-32.3886719,51.6090317-48.5226135,77.4526443
			C301.2466431,175.4080353,299.8780212,179.6195984,299.8826294,186.0163727z M526.4779663,376.0756531
			c-6.246521-8.2575989-12.6411743-13.9652405-20.6788025-18.0638733
			c-28.1170654-14.3376465-56.0762329-17.0186462-84.080719,0.2351379
			c-4.861969,2.9955444-8.594574,6.7579041-10.3999329,12.2772522c-1.7495728,5.3487854-1.6496887,5.5470581,3.9233398,5.5480957
			c35.156311,0.0065613,70.3126526,0.0033569,105.4689636,0.0033875
			C522.1697998,376.0756531,523.6288452,376.0756531,526.4779663,376.0756531z M668.3679199,134.9544067
			c1.8306274,0,3.7288208,0.3110046,5.4767456-0.0691986c3.0027466-0.6531525,6.543396-0.6805725,8.3078003-3.776535
			c3.383606-5.9369583,1.5377197-22.2792053-6.8579102-26.7791367c-8.7791138-4.705452-17.8440552-7.5671463-27.2747803-10.0077515
			c-4.2334595-1.0956116-8.4423218-1.73069-12.8080444-1.5191422c-7.8184814,0.3788605-11.6308594,6.765564-9.4059448,14.2073212
			C631.288208,125.3465805,652.3889771,135.1242981,668.3679199,134.9544067z M28.6934261,345.8063354
			c2.995121,0.8337708,5.8291073-1.0263062,8.6370068-2.1239014c16.1364632-6.3077087,31.2856865-18.2110596,31.7569466-38.5034485
			c0.1821594-7.8434143-5.2759972-12.6737976-12.9446182-11.0879822
			c-7.6972008,1.5917358-13.2308998,7.1066895-20.0593185,10.1800537
			c-10.6242523,4.7817688-15.4243336,13.8214417-18.0483456,24.3387756
			C15.7243729,337.8714294,20.5680809,345.5929565,28.6934261,345.8063354z M528.0796509,108.6079483
			c6.0218506,5.2548065,12.3185425,8.8760147,18.1262207,13.1491165c8.2759399,6.0891647,15.8791504,3.4486084,23.5658569-0.5426254
			c2.4160767-1.2544556,5.1719971-2.4966507,6.0958252-5.5535126c1.9674683-6.5097809,3.9435425-13.0169373,5.9014282-19.5295639
			c0.838562-2.7893219-1.4200439-4.1179352-3.0910645-5.0610657c-2.2073975-1.2458115-3.062561,1.2421646-3.8468628,2.6399231
			c-2.0914917,3.7271881-3.9492798,7.5872803-5.8442383,11.4220657c-0.6569214,1.3294601-1.0119019,2.4456482-3.0359497,2.621666
			c-7.0474854,0.612915-14.1193848,0.7875061-21.1503906,1.3156052
			C539.3634033,109.4779205,534.1533813,106.637001,528.0796509,108.6079483z M161.1369019,280.6680603
			c-2.4829254-1.3092041-4.3500061-0.4504089-5.776474,0.2590942c-7.2061615,3.5843811-15.1920471,4.3328247-22.736145,6.6403198
			c-5.4255219,1.6595154-10.0453568,1.4326172-12.8828812-4.3483582c-0.0683136-0.1391602-0.2453766-0.2207947-0.3521805-0.3459167
			c-0.8506699-0.996521-1.6175308-2.3544922-3.2210312-1.5573425c-1.3121872,0.6523438-0.8683243,2.0567322-0.8446198,3.1451416
			c0.1338654,6.1458435,0.4745178,12.2898254,0.4771271,18.4345703c0.0010605,2.5093384,1.0310135,3.1322937,3.256424,3.1103516
			c8.0017395-0.0788879,15.8960495-1.0504761,23.7345963-2.5954895c2.1552429-0.4248047,3.7440491-1.7373657,4.4840088-3.6139832
			C150.2233124,292.3209229,154.046936,285.4941711,161.1369019,280.6680603z M559.3510742,128.9312439
			c0.8475342,1.5202179,1.6923828,2.1457367,2.678833,2.1569977c12.0631104,0.1377716,23.8806763-1.2132721,34.9492188-6.4089508
			c1.8434448-0.8653183,3.3997803-2.5329666,2.2070923-4.8648224c-3.6157837-7.0688629-7.3074341-14.1006241-11.0895996-21.0817719
			c-1.3757935-2.5395737-2.6027832-2.2068863-3.3705444,0.5362473c-1.2539063,4.4801331-2.6381836,8.924263-3.857605,13.4134216
			c-1.3092651,4.8201752-3.6105347,8.6040268-8.1678467,11.3266754
			C568.6135864,126.4507599,564.2172852,127.5944138,559.3510742,128.9312439z M601.5476074,102.5379791
			c0.1074829,3.312088,1.6160889,4.9571381,2.6806641,6.7245178c2.8585205,4.7457123,4.9196167,9.8230286,6.2815552,15.1434937
			c1.644104,6.4230347,2.5053711,12.7402344-3.4035645,17.9266357c-1.6691284,1.4650421-2.6901245,3.786377-3.697876,5.8654785
			c-3.3899536,6.994278-3.3372192,7.0214539,3.3311768,11.19133c3.8031616,2.3782043,7.5748901,4.8093567,11.4282227,7.1033783
			c1.9983521,1.1896667,3.7567749,3.0040131,6.9526367,3.3891449c-5.7914429-9.4821625-8.3044434-19.0666809-8.4273682-29.4879761
			C616.5269775,126.3020935,610.5374146,114.2895203,601.5476074,102.5379791z M596.2542114,88.3692398
			c2.2329712-2.9959564,4.8320313-3.9273758,7.9326172-2.2851181c3.057251,1.6192551,3.0892944,5.1422195,4.2467041,8.0000076
			c4.6286011-3.3529129,5.036377-7.0744553,1.9743042-11.1422424
			c-9.2199097-12.2481079-23.1245728-13.4035492-36.5786133-15.4965591
			c-2.7033081-0.4205399-2.9714966,2.6680298-4.0705566,4.4135895c-0.984314,1.5633698-0.6217041,2.575119,0.8311157,3.7731705
			c1.618042,1.3342972,2.6549683,1.1267395,4.281189,0.0037537c2.0338745-1.4044266,4.4367676-1.098793,6.5478516,0.1052399
			c2.310791,1.3179626,1.2731934,3.4422684,1.0274658,5.3447876c-0.2044067,1.5820389-0.3903809,3.1664429-0.5845337,4.749794
			c0.5979004-3.7169724,2.9959106-5.3417358,6.4119263-5.4585724
			C593.3469849,80.2035675,594.5673218,84.3989792,596.2542114,88.3692398z M140.0404053,308.4224243
			c-7.5523987,0.311554-14.9552689,1.446106-22.4364395,1.3873291c-5.5339813-0.043457-6.5433884-1.4139709-6.2687454-6.9338379
			c0.2881012-5.7904663,0.9758682-11.739502-1.5464554-17.2029419c-0.6927338-1.5004883-1.0086746-4.3644409-3.6693802-4.0226135
			c-2.4098358,0.3095703-2.7350922,2.7054443-3.1687927,4.61026c-1.745079,7.6642761-2.5760117,15.5112-4.7064285,23.1140137
			c-0.4042358,1.4426575,0.0894165,3.0225525,2.6038055,3.8701782c5.8058472,1.9571228,11.4421692,1.5299072,17.2283936,0.6300354
			C125.5596008,312.7110596,133.2265625,312.3374329,140.0404053,308.4224243z M103.5856781,269.7619629
			c-0.0579224-0.7292786,0.049881-1.442688-0.1856232-2.014801c-2.2048645-5.3560486-0.3299713-8.0943909,5.2618942-7.4553833
			c1.399826,0.1599426,3.0326767,1.4620667,3.8585129-0.5110474c0.6455231-1.5422974-0.7627106-2.8559265-1.6555786-3.9225464
			c-1.7640152-2.1073456-3.9308167-3.3297119-6.8212509-1.7776947c-3.1708984,1.7025909-6.3706894,3.3700409-9.6500244,4.8484344
			c-8.8224258,3.977478-14.1296463,10.9561462-17.5961227,19.7409363c-1.0615005,2.6900635-0.4205704,4.7602234,0.901268,6.9363708
			c0.848999,1.3977051,2.2970428,2.2784729,3.700676,1.9082947c1.3094101-0.3453064,0.5823593-1.9589539,0.6325989-3.0580139
			c0.2972183-6.5014954,4.5529022-9.0351563,9.8921051-5.9216309
			C93.2468262,268.1007385,97.1634979,267.2498474,103.5856781,269.7619629z M138.2564697,239.2634125
			c-0.5285034,3.1405487-2.1941528,4.7997894-5.2198639,5.8932953c-3.1539612,1.1398621-6.3271866,1.4308929-9.5183792,2.0497284
			c-2.966362,0.5752106-4.7023392-0.0763855-5.7759705-2.8877411c-0.4670181-1.2229004-1.16465-2.5144958-2.8955383-2.1853943
			c-1.6809387,0.3196106-2.4879227,1.5193634-2.9149933,3.0590515c-1.1842346,4.2694244,0.6976547,7.8374023,5.1655197,8.7272644
			c10.3409271,2.0596313,19.8633118-0.2208557,28.378891-6.3687439c2.7663574-1.9972076,2.6502075-4.0745697-0.7643738-5.4851074
			C142.6070709,241.1963043,140.5322876,240.2544556,138.2564697,239.2634125z M546.177063,76.0804291
			c5.4494629,0.2522049,11.072998-1.9306107,16.578186-4.1765442c4.4899902-1.8317337,6.1015625-6.3039627,4.3584595-10.1225586
			c-0.6914063-1.514492-1.8150635-2.4650803-3.4549561-2.3408966c-1.8253784,0.1382256-1.7414551,1.6170692-1.7275391,2.9972153
			c0.0227661,2.2515488-1.0662842,4.0594788-3.2107544,4.456398c-3.3955078,0.6284866-6.8120117,1.5600357-10.3212891,1.1574554
			c-3.5136108-0.4030838-7.2133179-0.6346741-6.973938-5.7474022c0.0698853-1.4922142-1.1599121-2.4581985-2.1812134-1.18713
			c-1.8972778,2.3614159-4.5585327,4.3480606-4.2545166,8.0764236
			C535.4121094,74.3752823,537.7277222,76.0276566,546.177063,76.0804291z M524.9324951,101.4037247
			c5.8218384,2.4369736,31.2825928,3.2274246,36.4550781,2.1017303c1.5446777-0.3361664,2.7460938-1.084259,3.8557739-2.1201401
			c2.9622803-2.7652283,3.6408081-6.5047989,1.6531982-9.5015335c-1.6506958-2.488884-5.1702271-1.2392426-7.7735596-0.2889938
			c-1.6870728,0.6157837-3.2848511,1.651947-4.713562,2.7674637c-4.505188,3.5175018-9.7194214,4.8887787-15.2626343,5.4549408
			C534.4041748,100.30159,529.6702271,100.8715897,524.9324951,101.4037247z M617.7514038,85.1542358
			c0.2720947,4.6452103-0.2134399,8.8815613-4.1120605,12.2079163c-1.8885498,1.6113205-0.3341675,2.9708481,1.6723633,3.2832489
			c3.6548462,0.5690384,8.3618774-2.4838181,8.9539795-5.7205429
			C625.0568237,90.59935,622.4384766,86.5173492,617.7514038,85.1542358z M73.5467682,296.6676025
			c1.9267883-0.5905457,4.2568665,0.2171326,5.3471603-1.9892273c0.4966354-1.0050049,0.2379761-2.0911255-0.8530731-2.4845886
			c-4.1550446-1.4984131-5.9703674-4.6811829-6.9943771-8.741272c-0.4413757-1.7499695-1.8139267-1.6688232-2.8693161-0.1791077
			c-2.050705,2.8946228-2.3739014,6.0922852-1.1969604,9.3293457
			C68.0838318,295.6381836,70.8764191,296.2845459,73.5467682,296.6676025z M126.8829346,235.1949768
			c-1.8293533,0.2831116-4.8520432,0.6045074-6.5528107,3.5337067c-0.6190414,1.0661469-0.4073181,2.3239288,0.5614929,3.1895294
			c2.5229874,2.2542267,5.468338,2.2125397,8.3919525,1.1107025c2.0387421-0.7683563,4.9568329-1.1262665,4.4003754-4.3443756
			C133.1608734,235.6596222,130.7153625,235.0415192,126.8829346,235.1949768z M550.3483276,64.4164047
			c4.5007324-0.0430374,8.2540283-3.1346245,8.1467285-6.5944481c-0.0842896-2.7190819-2.3300171-2.3487053-3.9884644-2.4052544
			c-4.0497437-0.1380882-8.3671265,3.0356827-8.4470825,6.0536919
			C545.9681396,64.9172668,548.6629028,64.1144714,550.3483276,64.4164047z M109.1726913,263.8997803
			c-0.886528-0.1478577-1.6504211,0.0784302-2.0791016,0.9037781c-0.4812393,0.9265747-0.6632385,1.9340515,0.2315979,2.7154236
			c2.3384323,2.0419006,4.6855316,4.0772705,7.1018372,6.025116c1.2955933,1.0444031,2.2758636,0.2855835,2.5180054-1.02771
			C117.3306351,270.4249268,111.3361359,263.9312744,109.1726913,263.8997803z M578.5379639,81.9759979
			c0.0679932-1.6696472-0.3899536-2.4981995-1.3946533-2.9352798c-1.0186157-0.4431381-2.2542114-0.2082443-2.6751709,0.6089401
			c-1.4139404,2.7447891-3.4390259,5.2740173-3.6348267,8.5231018c-0.0865479,1.4364395,0.5709839,3.3193359,2.0650635,1.7851257
			C575.255188,87.5378876,576.8792114,84.4042816,578.5379639,81.9759979z M591.9152832,91.7993546
			c-0.0024414-3.0955811,0.5217896-5.7222519-2.1450195-7.2568054c-0.8334961-0.479599-1.6541748-0.2536011-2.2063599,0.436058
			c-1.8317871,2.2878571-0.7798462,4.7043152-0.0950928,7.023262c0.5091553,1.7242889,1.1986694,3.8877487,3.5189209,3.3176651
			C593.3613281,94.7363358,591.7626343,92.574295,591.9152832,91.7993546z M101.8894119,278.9244385
			c-0.6829453-2.2409668-0.6503372-4.6794739-2.7014236-6.1736145c-0.6699905-0.4880676-1.2003479-0.0093994-1.700531,0.397644
			c-2.2910461,1.8643494-1.3775177,3.9401245-0.5555573,6.1405029c0.3745575,1.0026855-0.1058426,2.2393494,0.6450195,3.2772827
			c0.4300613,0.5945129,0.1934891,1.8609619,1.2655869,1.7419434c0.696846-0.0774231,1.6409149-0.6733398,1.9108276-1.2854004
			C101.3343811,281.7052307,101.551651,280.2272339,101.8894119,278.9244385z M604.0080566,93.7466583
			c-0.1272583-1.8914185-0.133667-4.0688248-2.4558716-4.3063278c-1.4407349-0.1473541-1.4169922,1.5669479-1.361084,2.7181702
			c0.0896606,1.8470154,0.2496948,4.1177597,2.2987671,4.4868774
			C604.468811,97.0018539,603.71698,94.8424377,604.0080566,93.7466583z M89.5752411,285.7164307
			c0.403183-1.9901123-0.1117554-3.7894287-2.1531448-4.2230835c-1.5038605-0.3195496-1.5823975,1.1794128-1.4925232,2.4168091
			c0.1427383,1.9654846,0.1651917,4.391571,2.3862991,4.772522
			C90.1909637,289.004303,89.6286774,286.9525757,89.5752411,285.7164307z"/>
		<path d="M420.9792786,67.1677475c0.9161377,0.5614395,1.9076233,1.1591568,2.8895264,1.7722015
			c36.0191345,22.4888229,72.4592285,44.3368835,107.9410095,67.643837
			c37.9741821,24.9440765,76.930481,48.2859039,115.2766113,72.6139679
			c3.8477783,2.4411316,4.3088379,4.0404053,1.7828369,7.8390961
			c-27.7345581,41.7085114-53.838623,84.4543915-80.3148804,126.9617157
			c-2.0646362,3.3147583-3.4892578,3.3347168-6.5105591,1.3566589
			c-54.5758057-35.7306519-110.3131714-69.624115-165.3920898-104.5581665
			c-13.0563965-8.2810974-26.3672485-16.2045135-39.067688-25.0175018
			c-6.4018555-4.442337-12.7563171-8.9377441-19.4498901-12.910141c-3.605957-2.1399994-0.9553833-3.9094391,0.0903931-5.570755
			c18.0852356-28.7298737,36.2596436-57.4035492,54.3658142-86.1202774
			c8.5260925-13.5225754,16.9368896-27.1178131,25.4405212-40.6546555
			C418.7872314,69.3197098,419.1724854,67.7225494,420.9792786,67.1677475z M564.0186768,341.7723083
			c1.8931885-0.0042419,2.2000732-1.7669373,2.9176636-2.9103394
			c25.4685059-40.5836182,50.427002-81.4907227,76.9691162-121.3918457c2.0180664-3.0338135,1.7870483-4.4086304-1.4124756-6.438324
			c-37.0875244-23.5271149-74.7396851-46.1419525-111.4747925-70.2517395
			c-34.3804932-22.5643921-69.6936035-43.7056122-104.4923401-65.638031
			c-3.7273254-2.3491974-5.4465027-2.3142929-7.9306641,1.7092209
			c-20.3843689,33.0161514-41.0007324,65.8893051-61.6107483,98.7656937
			c-4.4996643,7.1776886-9.1889038,14.2398224-13.9323425,21.2595215c-1.5710144,2.3248596-1.4359741,3.7515564,1.150238,5.0640717
			c5.0509949,2.5634155,9.19104,6.4909515,13.8883362,9.5736389c15.2967529,10.0387573,30.8947144,19.6118011,46.3297729,29.4346619
			c52.0789185,33.1429901,104.877655,65.1499176,156.5298157,98.9718781
			C561.923645,340.558075,562.9428711,341.1254272,564.0186768,341.7723083z"/>
		<path d="M375.044342,92.2938461c2.8612976,0.0392532,4.3919067,0.6235504,5.5044556,2.3670197
			c1.5326538,2.4017334,0.5571289,4.5106888-0.6590881,6.449501c-4.9432068,7.8801727-10.0325012,15.6685028-15.0204163,23.5208893
			c-1.6705933,2.6300201-3.2546082,5.3192139-4.7763062,8.0383759c-1.2811279,2.2892456-3.5142517,3.8917847-5.5719604,2.5737762
			c-2.3573608-1.5099335-5.5350952-3.701355-3.386322-7.548996c1.8947754-3.3927612,3.9594116-6.696907,6.0727234-9.9600906
			c4.8792419-7.5340881,9.9225464-14.9637527,14.6889954-22.5676117
			C372.9656372,93.4610291,374.0411987,92.4179001,375.044342,92.2938461z"/>
		<path d="M628.0301514,306.8869324c-7.7386475,0.11026-14.7660522-6.5933533-14.8986206-14.2120361
			c-0.1408081-8.0974121,6.6583862-15.1615906,14.720459-15.2941589c7.9214478-0.130188,14.946106,6.6360779,14.7199707,14.6676941
			C642.3275146,300.7260132,636.539917,306.6585388,628.0301514,306.8869324z M627.7607422,282.0179443
			c-5.6556396-0.0139465-9.868103,4.2714844-9.8659058,10.0367737c0.0020142,5.3346863,4.7350464,10.1603088,10.0682983,10.2654114
			c4.9995117,0.0985107,9.7825317-4.8501587,9.881958-10.2241211
			C637.9415894,286.8798218,633.0899048,282.0310974,627.7607422,282.0179443z"/>
		<path d="M350.471405,150.3882599c-0.5346985,3.0711975-2.1921997,5.2590637-5.3893738,5.4721069
			c-3.5616455,0.2373352-8.9829102-4.4653778-8.6649475-7.4485931c0.395752-3.7136841,3.4502869-5.3165283,6.4925842-5.7572327
			C346.5391541,142.1287994,350.5764771,146.6987152,350.471405,150.3882599z"/>
		<path d="M583.4859009,187.444046c1.5668945,0.9951477,4.0930176,1.3382721,2.166687,4.2185211
			c-10.7042847,16.0046997-19.5636597,33.2009277-31.3291016,48.5235748
			c-0.807251,1.0512543-1.4351807,2.2399597-2.149353,3.3629456
			c-11.1461792,17.5274811-22.2766724,35.0650482-33.4716797,52.5613251c-0.8398438,1.3125-1.2190552,3.7843018-3.9760742,2.1323547
			c-3.0204163-1.8096313-0.8474121-3.3544006,0.0928345-4.8387146
			c10.9373169-17.2661743,21.4020996-34.8634644,33.0470581-51.6407318
			c11.5672607-16.6652832,21.6191406-34.2471161,32.7665405-51.1488953
			C581.4063721,189.4414978,581.7067871,187.759552,583.4859009,187.444046z"/>
		<path d="M603.5037231,200.6328735c-0.5568237,0.9437714-1.0454102,1.8145142-1.5736084,2.6605988
			c-6.7852173,10.8702087-13.0925293,22.0778809-20.465271,32.5341949
			c-15.8215332,22.4387817-29.2244263,46.3876648-44.1957397,69.3486023
			c-0.633728,0.9719238-1.1950684,2.0150757-1.963501,2.8691101c-0.9993286,1.1106567-2.0296631,1.9814758-3.7502441,0.7755127
			c-1.6797485-1.1773987-1.5929565-2.2006836-0.5515747-3.6781006c2.3858643-3.3847046,4.8081665-6.752594,7.0106201-10.256134
			c10.274231-16.3435364,20.0325317-33.0326233,30.838501-49.0144806
			c10.0529785-14.8682709,19.4237061-30.1459045,29.112915-45.2318268c0.703186-1.0948029,0.9990234-3.2125702,3.1611328-2.2341919
			C602.1166992,198.8539886,603.2525024,199.3460693,603.5037231,200.6328735z"/>
		<path d="M549.9807739,321.0106201c-1.2174683-0.8772278-3.8654175-0.8653564-2.3432007-3.6756897
			c0.4752197-0.8774109,1.020813-1.7173767,1.5501099-2.5645752c14.1157227-22.5947571,27.9237671-45.3902283,42.4766846-67.6998138
			c7.7045288-11.8109436,15.4921265-23.5685425,23.020752-35.4953918c0.9960327-1.5779114,1.6243896-3.9638519,4.4099731-2.0202332
			c2.6425171,1.84375,0.4286499,3.2946625-0.3894653,4.5332947c-21.0830078,31.9213409-41.2216797,64.4406891-61.4771118,96.8861847
			c-1.675415,2.6836548-3.3458862,5.3704224-5.036438,8.0444946
			C551.6743164,319.8378601,551.3026733,320.8354187,549.9807739,321.0106201z"/>
		<path d="M437.6299133,208.455719c0.9311523,0.565033,1.6459351,0.9891663,2.3513489,1.4283447
			c7.2009583,4.4832306,14.3116455,9.1216125,21.6428528,13.3805237c3.0307617,1.7606354,2.7867737,3.2449646,1.0656738,5.7261963
			c-4.9962158,7.2027283-9.8759766,14.4887085-14.6628418,21.8323822c-1.1421814,1.7522278-2.0012817,2.2580414-3.8749695,0.9954376
			c-7.293396-4.9147797-15.1175537-9.0072327-22.1129761-14.404129c-1.6403809-1.2655334-2.1494446-2.0806122-0.953064-3.9491119
			c4.9325562-7.7037201,9.7379456-15.4888458,14.5910034-23.2434845
			C436.1864624,209.4077301,436.6642456,208.546814,437.6299133,208.455719z M461.7536316,226.7974396
			c-0.144165-1.4087524-1.1372681-1.7963104-1.9596252-2.312027c-6.6218262-4.1526642-13.2902832-8.2325592-19.8581238-12.4686584
			c-1.9484863-1.2567139-2.8391418-0.6199646-3.8876343,1.0992584c-3.9831848,6.5312805-8.0125732,13.0367432-12.1659241,19.4605255
			c-1.3010864,2.0123596-1.0195923,3.0976868,0.9850769,4.3682098c6.0229187,3.8172455,11.9795227,7.7449493,17.8598938,11.7783966
			c2.2559204,1.5473328,3.6338501,1.5020905,5.0751648-1.0461731c2.1112366-3.7325134,4.556488-7.235611,7.3552551-10.557785
			C457.8082886,233.9729156,459.6578979,230.1518707,461.7536316,226.7974396z"/>
		<path d="M544.8305054,204.1836243c-2.4376221-1.5186768-5.411438-2.8392181-7.7064209-4.9115448
			c-4.8458252-4.3757782-10.5037231-7.4710236-16.0136719-10.771225c-2.890686-1.7314148-2.9232178-3.0797119-1.19104-5.6966553
			c4.3949585-6.6398621,8.6105347-13.4061584,12.664978-20.2596283c1.5159302-2.5624695,2.7340698-3.1308441,5.3851929-1.3929138
			c7.3533936,4.8204651,14.8567505,9.4148407,22.3587036,14.0039673c1.8612061,1.1385345,2.5947876,2.0454254,1.1835327,4.2207489
			c-4.8755493,7.5151672-9.5449219,15.1640167-14.3052368,22.7541962
			C546.6968384,202.9433289,546.3380737,203.9425049,544.8305054,204.1836243z M536.6984863,162.8021393
			c-1.5995483-0.1466675-2.3590088,0.6233215-3.0198975,1.6891479c-3.9486694,6.3686371-7.8798828,12.7492371-11.9320068,19.0518341
			c-1.1035156,1.7163239-0.7318115,2.7177277,0.9024658,3.5748138c6.93573,3.6373749,12.7751465,8.8920746,19.302124,13.1409149
			c2.423584,1.5776672,3.5952148,1.2422791,5.0195923-1.1493835c3.7483521-6.2938843,7.6061401-12.5296783,11.6459961-18.6394501
			c1.6176758-2.4465942,1.0840454-3.5732574-1.2769775-4.9707184c-6.1604614-3.6463165-12.1672974-7.5518951-18.2432861-11.3414764
			C538.2542114,163.6325073,537.3674927,163.17836,536.6984863,162.8021393z"/>
		<path d="M511.6531067,256.3639221c-0.3536072,0.6054993-0.7529602,1.3302612-1.190033,2.0314636
			c-4.573822,7.3382874-9.2406006,14.6208191-13.682312,22.0380859c-1.4562073,2.4317017-2.6658936,2.6918945-5.0373535,1.146698
			c-7.2435303-4.7198486-14.5934753-9.2815857-21.9967957-13.7477417c-2.2203064-1.339386-2.4874878-2.4017944-1.0367126-4.6251221
			c4.8148804-7.3787842,9.4197388-14.8956451,14.0401001-22.3995972c0.9939575-1.6143188,1.7962341-2.5659485,3.8443604-1.2548676
			c7.8422241,5.0200653,15.7772217,9.8950043,23.6597595,14.8524628
			C510.9047546,254.8144989,511.8000183,255.1486816,511.6531067,256.3639221z M508.9530334,257.0806274
			c0.1801758-1.3852081-0.855011-1.7877655-1.6621704-2.2958984c-6.6202698-4.1676941-13.3087158-8.2301788-19.8554382-12.5097198
			c-2.2514038-1.4717407-3.1404114-0.4442291-4.2236633,1.3199768c-3.9190979,6.3826752-7.8295593,12.7742462-11.9323425,19.0386505
			c-1.4667969,2.2395325-1.050415,3.3161316,1.1504517,4.6291504c6.2881165,3.7514954,12.4986877,7.6407166,18.6272888,11.6477661
			c2.2966309,1.5016174,3.60849,1.4584961,5.1079407-1.0834961c3.7197266-6.3060303,7.7214661-12.4455872,11.6010437-18.6575623
			C508.2044678,258.4675903,508.5857544,257.730072,508.9530334,257.0806274z"/>
		<path d="M472.0608826,211.898819c-0.5564575-0.3205872-1.28479-0.710968-1.9841919-1.1476746
			c-7.320343-4.5706787-14.575531-9.2503052-21.9870911-13.6676636c-2.4691772-1.4716339-2.6962585-2.6371002-1.1470642-5.009903
			c4.7167664-7.2245789,9.2745972-14.5567169,13.7272034-21.9476776c1.3618469-2.2605438,2.5338745-2.4563599,4.6979675-1.0608368
			c7.3921204,4.7667389,14.878479,9.3884277,22.3642883,14.0080872c1.5969543,0.9855347,2.5594482,1.7579803,1.2289429,3.8271027
			c-4.9367981,7.6775208-9.7016907,15.4654541-14.5541077,23.197525
			C473.9015503,210.9029541,473.5058899,211.9254456,472.0608826,211.898819z M487.2784729,185.6790161
			c-0.4864197-0.5267487-0.8383789-1.1100769-1.3533936-1.4350891c-7.0375671-4.4413605-14.1097412-8.8280182-21.1448364-13.2732697
			c-2.0620422-1.3029327-2.5970154,0.4107208-3.344574,1.5963898c-4.0832825,6.4762115-8.0545959,13.0245209-12.2298584,19.4403687
			c-1.3725891,2.1091309-0.8140259,3.0525665,1.1460876,4.2310333c6.4180603,3.8586578,12.7814636,7.8148041,19.0545959,11.9042511
			c2.1948853,1.4308624,3.3911438,1.1723328,4.7386169-1.0722351c3.8545837-6.4208679,7.9009705-12.7264709,11.8607788-19.0843506
			C486.4401245,187.2889099,486.8023987,186.546875,487.2784729,185.6790161z"/>
		<path d="M415.8740845,138.2861938c0.5107727,0.2922516,1.0978394,0.6030884,1.6601563,0.9536743
			c7.4730225,4.6593781,14.9067078,9.3834686,22.4358215,13.9503479c2.144043,1.3005219,2.6337891,2.3479462,1.1383362,4.6381683
			c-4.8136292,7.371582-9.441925,14.866684-14.0145874,22.3913879c-1.20755,1.9871979-2.1950989,2.3948975-4.2696533,1.056778
			c-7.5393677-4.8629761-15.1887817-9.5556946-22.8113708-14.2889557c-1.3696899-0.8505096-2.4590759-1.52565-1.2247925-3.456604
			c5.1007385-7.9799194,10.0769043-16.0394897,15.1020813-24.067749
			C414.3287354,138.7624207,414.7529297,138.0154572,415.8740845,138.2861938z M439.5669861,156.45401
			c0.2288208-1.1888885-0.6051941-1.567749-1.2739868-1.9871063c-6.8840942-4.3167114-13.8061523-8.5734558-20.6584473-12.9398041
			c-1.8027954-1.1487579-2.6861877-0.3251343-3.5697021,1.0989227c-4.1090393,6.6225433-8.1755371,13.2727509-12.3882751,19.8288422
			c-1.1824036,1.8400269-0.949585,2.7877197,0.9086304,3.9181671c6.6575012,4.0500641,13.2506409,8.2082214,19.8065491,12.4213562
			c1.7618713,1.1322632,2.7609253,1.0330658,3.9094849-0.8676453c4.0304565-6.6697693,8.2296448-13.2375336,12.357605-19.848526
			C439.0089722,157.5175171,439.3058777,156.923584,439.5669861,156.45401z"/>
		<path d="M449.0808411,143.3177185c-0.6705322-0.3958893-1.3948975-0.80336-2.0994263-1.242691
			c-7.3467407-4.5810699-14.6348572-9.2600861-22.0665894-13.6986542c-2.4074707-1.4378738-2.7283325-2.5178452-1.1403503-4.930687
			c4.7586365-7.2306061,9.3049622-14.6050034,13.772522-22.0206528c1.338501-2.2217331,2.4285889-2.5362396,4.6552734-1.0896988
			c7.3992004,4.8068008,14.8970032,9.4659805,22.443634,14.0388565c2.0728149,1.2560349,2.2352905,2.2813568,0.9387512,4.2885208
			c-4.7878418,7.4121857-9.3796997,14.9507217-14.0984802,22.4080429
			C450.9211426,141.9636993,450.6607666,143.3235626,449.0808411,143.3177185z M440.800293,101.9434052
			c-1.4375916-0.1513901-1.8314819,0.8850861-2.3442078,1.7012711c-4.1617126,6.6251678-8.2446899,13.3007355-12.4847107,19.8751678
			c-1.2426758,1.9268799-0.6852112,2.8358383,1.0618591,3.901947c6.5357666,3.9883652,13.0402527,8.031868,19.466156,12.1941147
			c1.9579468,1.2681885,3.06427,1.1901093,4.3277893-0.9075012c3.95047-6.5582886,8.0935669-13.0002823,12.1125183-19.5178909
			c0.5600891-0.9083099,1.8826294-2.1943665,0.5648499-3.0503235c-7.3956604-4.8037643-14.9121094-9.4216309-22.3908997-14.0972595
			C440.977417,101.9577484,440.7974243,101.942543,440.800293,101.9434052z"/>
		<path d="M518.9321289,241.8457489c-0.9190674-0.5608215-2.2969971-1.2083282-3.4483643-2.1367798
			c-5.8371887-4.7069092-12.3858032-8.3249817-18.7432556-12.2181702c-2.5060425-1.5346527-3.1654358-2.6965027-1.3951111-5.3739014
			c4.6723938-7.066452,9.0240784-14.3442841,13.5718384-21.4944305c0.7832642-1.2315216,1.2626953-3.5718231,3.6021729-1.9946747
			c7.9506226,5.3598938,16.7140503,9.4668732,24.0195313,15.8474731c1.7984619,1.5708008,1.5647583,2.6819153,0.3901367,4.1057434
			c-5.6915283,6.8992462-9.1846313,15.3266296-15.28302,21.9407196
			C520.9991455,241.2234039,520.657959,242.3573456,518.9321289,241.8457489z M512.3774414,200.8032532
			c-1.8864136-0.2256317-2.2008057,1.3651276-2.8490906,2.3823853c-3.84729,6.0366516-7.4682007,12.2237396-11.4833984,18.1445007
			c-1.9327393,2.8499756-1.1839905,4.1270294,1.4916077,5.6811371c5.4675598,3.1758118,11.1802979,6.1516724,15.9898682,10.1700287
			c4.076355,3.4056702,5.8444214,1.7826385,7.937561-1.577301c3.4331055-5.5109558,6.6724243-11.1617737,10.4263306-16.4460907
			c2.0008545-2.8166504,1.4527588-4.1831207-1.1918335-5.7833405c-6.1238403-3.7055359-12.1548462-7.5644073-18.2278442-11.354248
			C513.7672119,201.5813599,513.0369873,201.1853943,512.3774414,200.8032532z"/>
		<path d="M416.7575989,196.5969543c-0.3615417,0.6160889-0.7656555,1.3430481-1.2052612,2.0478668
			c-4.5812988,7.3447266-9.2312622,14.6477509-13.7145386,22.0517273c-1.3120117,2.166748-2.4155273,2.6421051-4.6844788,1.1669312
			c-7.2561646-4.7175751-14.6123962-9.2848511-22.0065613-13.7843323c-2.0743103-1.2622833-2.8510742-2.2684631-1.3034668-4.6480865
			c4.8092651-7.3948975,9.4482422-14.9031677,14.0190125-22.4487915c1.2478027-2.0600128,2.3460693-2.2856903,4.3477478-1.0052185
			c7.5720215,4.8437653,15.2383118,9.5399933,22.8483887,14.3246918
			C415.8478699,194.7980804,416.9524536,195.161026,416.7575989,196.5969543z M414.1123352,197.1965332
			c0.0437927-1.6209106-1.2215881-1.9818878-2.1463928-2.5650177c-6.4519043-4.0681915-12.953186-8.05896-19.3708801-12.1800537
			c-1.7385864-1.1164398-2.7433167-1.1364746-3.9152832,0.8044891c-4.0278625,6.6707764-8.1907959,13.261322-12.3900757,19.8262634
			c-1.0701294,1.6730347-1.2996521,2.7454224,0.6969604,3.9480438c6.675415,4.0207672,13.3036194,8.1260376,19.839447,12.3690948
			c2.1302185,1.3829346,3.1242981,0.7702332,4.2860718-1.14151c3.9608459-6.5177002,8.0461731-12.9597168,12.0778809-19.434433
			C413.5368652,198.2664795,413.8386841,197.6815186,414.1123352,197.1965332z"/>
		<path d="M496.4887695,172.8968811c-0.5933838-0.3394012-1.4629517-0.7995453-2.2955933-1.3188629
			c-7.2011719-4.491333-14.3496704-9.069809-21.6190796-13.4475555c-2.3114319-1.3919678-2.9586182-2.5197601-1.3215332-5.0150452
			c4.6544495-7.0943298,9.1884766-14.276535,13.4923706-21.5875092c1.6141357-2.7418671,2.9374695-2.8590088,5.4465027-1.2183685
			c7.1019287,4.6438599,14.3323669,9.092865,21.5568542,13.5461578c1.744812,1.0755005,2.9411621,1.9096985,1.4567261,4.2204437
			c-4.9462891,7.6997986-9.71875,15.5111389-14.5856018,23.2622833
			C498.2027283,172.0020599,497.8664856,172.8706512,496.4887695,172.8968811z M511.5620117,146.85495
			c-0.260376-1.4433136-1.4942627-1.7822571-2.4185486-2.366272c-6.1717224-3.8996735-12.4724426-7.6052094-18.5197144-11.6871948
			c-2.6873779-1.8140411-3.8392334-1.0966797-5.3036804,1.3757629c-3.6347351,6.1366119-7.3739929,12.2227478-11.3584595,18.1356659
			c-1.8178101,2.6976166-1.0439758,3.8867493,1.4152832,5.3492889c6.1299744,3.6455688,12.1742859,7.4429169,18.1444092,11.3454285
			c2.2351685,1.4610901,3.5551147,1.5387726,5.0568848-1.0126343c3.7859192-6.4321899,7.8469849-12.7023621,11.7896118-19.042572
			C510.8038025,148.2512665,511.186676,147.5170593,511.5620117,146.85495z"/>
	</g>
</g>
</svg>
