<?xml version="1.0" encoding="utf-8"?>
<!-- Generator: Adobe Illustrator 19.0.1, SVG Export Plug-In . SVG Version: 6.00 Build 0)  -->
<svg version="1.1" id="Development_xA0_Изображение_1_"
	 xmlns="http://www.w3.org/2000/svg" xmlns:xlink="http://www.w3.org/1999/xlink" x="0px" y="0px" viewBox="0 0 700 400"
	 style="enable-background:new 0 0 700 400;" xml:space="preserve">
<g>
	<g>
		<path d="M509.5394592,309.3890076c6.6430969-1.0469971,13.0439148-3.5010376,19.8019104-3.8926086
			c14.9898682-0.8684998,29.9510498-1.1687622,44.7050781,2.3432312c5.0325317,1.1979675,8.807312,4.1377258,12.2439575,8.0487366
			c15.3161011,17.4300232,19.0876465,37.3995972,14.0718994,59.609436
			c-0.9648438,4.2724609-3.0593262,5.4486694-7.2647705,5.4376831c-48.324646-0.1264038-96.6497803-0.0774841-144.9747925-0.0762329
			c-51.4668884,0.0013123-102.9338074,0.0023499-154.4006958,0.0016174
			c-10.0105286-0.0001221-12.7798767-4.3860168-8.8687134-14.0102844c0.1716614-0.4224548,0.2026062-0.9020386,0.4334106-1.9855957
			c-3.3387756,1.9035034-6.2526855,3.5349121-9.1377563,5.2157898c-6.0397339,3.5188599-11.3106689,2.2590027-15.2051392-3.6652832
			c-0.6307983-0.9595642-1.3442078-1.875946-1.8762512-2.8875732c-3.9629669-7.5353088-6.5307617-8.6494751-14.4784241-6.1083679
			c-1.4845886,0.4746704-2.3957825,1.36203-2.7542725,3.1379395c-0.6486664,3.2135315-1.5495911,6.4125977-2.7135315,9.4778137
			c-2.1728058,5.7219849-6.6976929,7.9702759-12.6385345,6.5303955c-5.6859283-1.3780212-11.3584595-2.8113098-17.03508-4.2198792
			c-1.497406,7.5431213-1.4974518,7.5357666-9.8109131,7.5818481c-24.1593475,0.1340027-48.318573,0.2948608-72.4780731,0.3815918
			c-2.4874115,0.0089417-4.992363-0.2973022-7.4616318-0.6500854c-8.2297211-1.1755981-12.3940887-5.4824524-13.374321-13.6845398
			c-0.9522324-7.9678955,2.112648-12.1446533,9.9508667-15.8014526
			c11.7174988-5.4666443,24.0068512-8.7809753,36.5740814-11.4407043
			c5.4787292-1.1594849,10.9103241-0.9294739,16.6538849-0.5778198c0.0273285-2.7301941-1.5584259-4.7263184-2.6528931-6.7500305
			c-3.1392975-5.8046265-2.03508-11.2542114,3.4286194-14.9262085c1.3671875-0.9188843,2.8554382-1.6555481,4.2626038-2.5174866
			c2.0945282-1.2830811,5.5833893-2.0045166,5.8523254-4.1503601c0.429657-3.4282227-0.081604-7.3816528-1.5165863-10.506073
			c-1.1259308-2.4515076-4.9957428-2.7115479-7.590744-3.2301331c-10.9067993-2.1794128-12.8445435-7.294281-10.3011475-16.9033813
			c1.3734741-5.1889954,1.80336-10.6271362,5.4901886-15.06427c2.7588654-3.3203125,6.004425-4.1288147,9.9560242-3.3554077
			c2.256897,0.4417419,4.6187744,0.6207275,6.7372894,1.4308167c3.0884247,1.1809998,5.5083466,2.1264648,7.8256378-1.6365051
			c2.5059204-4.0692749,5.8761444-7.27005,1.5526733-12.4190063c-5.1446686-6.1269226-5.1761475-12.3386993-0.0778809-19.2811279
			c1.9968262-2.7191772,4.0258942-4.7511292,6.6217651-6.522522c3.6286774-2.476181,6.5354462-5.7227631,9.1913147-9.1111603
			c2.8233032-3.6019745,5.9519348-6.8822632,10.0811615-8.659729c3.9757538-1.7114105,3.9020233-5.0754547,4.1389771-8.1710663
			c0.1581268-2.0660706-1.664566-2.0915222-3.4659119-1.4665375c-7.4355164,2.5797119-15.3176422,2.5723419-22.9555359,3.9103394
			c-6.3618317,1.1144867-12.653717,1.1031494-18.9604034,0.9687805c-7.2783051-0.1550751-9.4879913-2.7893677-9.0005951-9.5944977
			c0.4855804-6.7799988,3.7983093-12.460144,8.2362213-17.178009c5.5658264-5.9169312,12.0903015-10.5496826,19.5027466-14.3996735
			c5.7893066-3.0069275,11.7428284-4.9647522,17.7181396-7.1967163c2.4704895-0.9228058,5.0865479-0.0092163,7.0607452,0.2619781
			c5.602066,0.7695618,9.2114563-2.804184,13.7671967-4.1135712c6.4788208-1.8620911,9.5323792-5.2411499,10.1440582-12.2770386
			c0.3172302-3.649231,4.8112335-6.3894806,7.9345093-8.9136124c1.8278656-1.4772415,3.7043457-3.0235901,6.4734497-3.7351685
			c2.9411316-0.7557755,5.7842102-3.6860046,4.2654724-8.0686264c-0.6527405-1.8836594-0.6829834-4.4093323,0.8750916-5.6974945
			c4.7277832-3.9087753-0.3924255-5.0805511-1.9448853-5.3886261c-7.3736877-1.4631729-9.6132507-7.4238586-12.1584625-13.020813
			c-3.4445343-7.5745468-0.4398499-15.0376358,1.069931-22.4739456c0.6584778-3.2432556,3.7380066-4.2085381,6.0196533-5.8540268
			c0.5050049-0.3642044,1.7246704-0.2326431,2.3252869,0.1391144c1.0818176,0.6695557,0.5736389,2.0426025,0.0854492,2.6285934
			c-3.0275879,3.6339722-2.6485901,8.5802078-5.399765,12.5257645c-3.642395,5.2237091,0.233139,16.009819,6.1534576,19.7530594
			c0.8435059,0.5333405,1.6878357,1.2119751,2.6228943,1.4268112c2.9241028,0.6718063,5.995636,3.9758453,8.6922607,1.4171219
			c1.9298096-1.8311234-0.6238098-4.8988266-1.3126831-7.2288818c-3.0213013-10.2190552-0.2080078-18.9514236,5.7530823-27.1674957
			c0.9719849-1.339653,2.2975464-1.8050308,3.6820984-2.3271751c2.0879822-0.787426,2.5175781,0.6110725,2.0849609,2.0005989
			c-0.5281982,1.6965485-1.2889709,3.5609665-2.5256958,4.7562256c-6.3003235,6.0890808-7.9628296,16.5035553-3.6687012,24.2339401
			c1.9326172,3.4791412,4.4491577,1.2700424,6.3107605,0.3302994c4.3731995-2.2075882,8.8033447-3.8406525,13.745575-3.7812271
			c4.5191956,0.0543365,9.1194153-0.177742,11.0901489,5.3773727c0.5280151,1.4884186,1.1246033,2.8809128,0.3426208,4.2602386
			c-3.0531006,5.3852158-4.9454956,11.3426056-11.2655029,14.6711121c-3.7255554,1.9621201-6.2966003,5.9654465-10.48526,8.0556412
			c-2.3197632,1.1575928-0.5597534,5.6330795-2.4799194,8.3196793c-0.3697815,0.5173798,3.1490173,1.8755035,5.0486145,2.0309906
			c6.2272644,0.5097198,12.3579712-0.1650238,18.5870667-0.9258575c5.870636-0.7170563,11.5900574-0.9661407,17.153656-3.4323578
			c5.4403992-2.4116211,10.7207031-4.7051163,14.9961243-9.1243973c9.1405334-9.4481506,17.2703857-9.3782425,26.5690308-0.1712341
			c3.1965027,3.1650085,6.4363403,6.2911224,9.5174561,9.5657272c1.6133728,1.7146912,2.973114,2.0509186,5.1867981,0.8744659
			c3.348938-1.7797546,6.8374939-3.6596985,10.4909058-4.4203796c5.8184204-1.2114716,7.098877-4.4538803,6.5809021-9.8234634
			c-0.445343-4.6168137-0.1713867-9.3277817,0.0782471-13.9813614c0.4263306-7.9488449,6.7290039-13.9538574,14.6128235-14.0350647
			c7.4979858-0.0772476,14.9978027-0.0659485,22.4960632-0.0036545c8.1667786,0.0678558,14.4649048,6.0765076,14.8255615,14.352684
			c0.2537231,5.8219681,0.3270569,11.6694946,0.0773315,17.4882813c-0.1259766,2.9351425,1.1047974,4.1306076,3.5872192,4.9322586
			c2.980835,0.9626312,5.9436646,2.0202332,8.8232117,3.2499466c7.7590027,3.3134766,7.7312012,3.3497467,13.9136047-2.7706757
			c2.8406067-2.8121033,5.5357056-5.8120193,8.6235657-8.3252792c7.014801-5.7094193,14.9911804-5.2181854,21.5175781,1.1369705
			c4.7749939,4.6497345,9.4725952,9.3803024,14.147522,14.1310883c6.9074707,7.019516,7.1866455,15.3033752,0.5905762,22.5724335
			c-3.5794067,3.9446411-7.3388062,7.7536011-11.2865906,11.3258514c-2.3092041,2.0895538-2.3304443,3.8165894-1.0138245,6.4583282
			c1.9836426,3.9800415,3.6844482,8.1404572,5.0664063,12.3677521c0.9971924,3.0502472,2.5901489,3.9892731,5.7402954,3.864212
			c5.6517944-0.2243958,11.3345337-0.1481781,16.9841309,0.1655884c8.2661133,0.4591064,14.1101074,6.7692871,14.1669922,15.0006409
			c0.0507202,7.3318024,0.0563965,14.6645966-0.0014038,21.9962921c-0.06604,8.3869476-6.2498779,14.7188263-14.7401733,14.970993
			c-5.6610107,0.1681213-11.3372803,0.2330017-16.9927368,0.0023041c-2.8129272-0.1147614-4.2748413,0.8140869-4.9629517,3.4686279
			c-1.2099609,4.6676636-3.1054993,9.110733-5.4613647,13.2749634c-1.4892273,2.6323853-0.8257141,4.1326599,1.1370239,5.9689941
			c3.7700195,3.5272522,7.4541626,7.1619263,10.97052,10.9413452c7.0430298,7.5698547,6.8894653,16.0110474-0.4869995,23.301239
			c-3.4995728,3.4587402-7.3408203,6.5718384-11.0273132,9.8414917
			C508.7460327,308.3325195,509.1427612,308.8607483,509.5394592,309.3890076z M542.6647339,215.3085175
			c0-3.6656494,0.0256958-7.3315277-0.0054321-10.9969177c-0.0615845-7.2484589-1.9231567-9.1486969-9.2063599-9.2119598
			c-7.4973755-0.0651398-14.996521,0.0300751-22.4929199-0.0798187c-1.217804-0.0178375-3.4605103,0.9563599-3.3859863-1.5718231
			c0.2692261-9.1321869-3.8530579-16.7424622-8.3616638-24.150589c-1.5958557-2.6221771-0.9934998-4.0605621,1.0160217-5.900116
			c4.6685791-4.2737579,9.1937561-8.7063599,13.7200928-13.132843c5.1392822-5.0259247,4.9865112-7.5068665-0.1949463-12.3401489
			c-4.8708496-4.5435486-9.700592-9.1503906-14.2727051-13.9898605c-4.8839111-5.1694412-6.5360413-5.413414-11.7853088-0.4816589
			c-4.6139221,4.3348236-9.2567139,8.6480484-13.6784973,13.1743088c-2.1827698,2.2343445-4.0387573,2.9590759-6.8437805,1.049118
			c-6.0083008-4.0910187-12.8283386-6.3592224-19.8824768-7.7504883c-2.9508362-0.5820007-3.7125549-1.9187012-3.7177124-4.6992798
			c-0.0141602-7.6579361-0.5124512-15.3193054-0.3790894-22.9716415c0.0866394-4.9717331-1.8544922-7.3747101-6.7835083-7.8791809
			c-7.8181763-0.8001938-15.6404114-0.289505-23.4583435-0.3697128c-6.6621704-0.0683441-9.6759644,2.9890442-9.8222351,9.7741394
			c-0.1471863,6.8287811-0.1685181,13.6614914-0.1419373,20.4920807c0.0084839,2.1828232-0.2336731,3.8193512-2.8609314,4.3358307
			c-7.8157349,1.5364532-14.6454163,5.4745026-21.33078,9.508316c-2.9520264,1.781189-4.7213135,1.2481079-6.8599243-0.9312744
			c-4.9000549-4.9935303-9.8997498-9.8900833-14.902832-14.7811737c-1.9925232-1.9479141-4.3912048-3.6559906-7.0696411-1.6861191
			c-6.519104,4.7944489-12.5526733,10.1817093-18.2685242,15.923851c-5.0787048,5.1020966-5.3283691,7.8859253-0.3463135,13.1220551
			c4.2446594,4.4611053,8.6434326,8.8226318,13.3483276,12.7835999c3.6252747,3.0520172,3.9248657,5.6964874,0.6450195,8.9704132
			c-5.6722717,5.6619568-8.5102539,12.679657-9.3026123,20.513092c-0.306427,3.0294952-1.6094055,3.9074097-4.4823608,3.8338623
			c-6.1608887-0.1577606-12.3301697-0.1300354-18.4933167-0.0223236
			c-7.544281,0.1318512-10.1384583,2.5796661-10.4165649,10.0722504c-0.2470398,6.6557922-0.2749329,13.324585-0.2077332,19.9857178
			c0.06073,6.0175171,2.2007751,8.119278,8.1722107,8.1817017c7.6633911,0.0801086,15.3296204,0.1009521,22.9917908-0.0250702
			c2.4302673-0.0399628,3.5093689,0.6882172,3.9284363,3.1946411c1.3844299,8.2801056,3.9641724,16.1627808,8.871521,23.1005249
			c1.5348511,2.1699524,1.2919312,3.7216492-0.7350769,5.5135498c-4.6164856,4.0810547-9.0984497,8.3205872-13.5195007,12.6146851
			c-5.0192261,4.8749695-5.0701599,8.7230225-0.1893921,13.7289429c4.8814392,5.0065918,9.8468933,9.9332886,14.851532,14.8171082
			c3.8821716,3.7884521,6.8329773,3.7321777,10.8277588,0.0975342c5.2963867-4.8189087,10.6713867-9.5521545,15.9274902-14.4142456
			c1.8309631-1.6937256,3.4952698-2.1502075,5.7702332-0.7920532c6.483551,3.8707275,13.5435181,6.3757324,20.8426208,8.1716309
			c2.9259338,0.7199097,3.9569397,2.2369995,3.8353577,5.2648621c-0.2605286,6.4888916-0.1116028,12.992981-0.2322693,19.4889832
			c-0.1378174,7.4189758,2.0595398,9.9215393,9.5979309,10.1350403c6.3266296,0.1791687,12.6622009,0.0620422,18.9937134,0.0445557
			c7.4416809-0.0205383,9.7348938-2.2889099,9.8155518-9.8929138c0.0742188-6.9972839,0.1682434-14.000885-0.0552063-20.9918518
			c-0.0991821-3.1027527,1.0030518-4.4768677,3.9690247-5.0961304c6.5457764-1.3666687,12.8258972-3.6522217,18.8673706-6.4802551
			c3.800293-1.7789612,6.6758423-1.503479,9.7124634,1.7202759c4.1030273,4.3558044,8.6686401,8.285614,13.1386108,12.2831726
			c3.8997192,3.4876099,8.8207092,3.5135498,12.5650635-0.1000977c5.5117493-5.3193359,10.9282532-10.7469482,16.1850281-16.3174438
			c3.4960327-3.7045898,2.9277344-6.6715393-0.9671021-10.1694336c-5.4503479-4.8949585-10.7148438-9.9970093-16.0500488-15.0198059
			c-1.1010132-1.0365295-2.5245972-2.2372131-1.0379639-3.754303c6.2570801-6.3851166,7.5970764-15.0661774,10.7459412-22.8760986
			c1.1665039-2.8931732,2.8360901-3.6031189,5.6498108-3.537735c6.1616211,0.1432037,12.3290405,0.0708771,18.4937744,0.035965
			c7.539917-0.0426941,9.2191772-1.6921234,9.265564-9.0203705
			C542.6941528,222.3067017,542.6759033,218.8075562,542.6647339,215.3085175z M211.4873047,361.5897827
			c0.210083,2.4622498,0.8258362,4.0942383,3.6599121,4.6181641c4.2121124,0.7786865,8.3566589,2.0395813,12.4362488,3.3803711
			c3.0944214,1.0169678,4.7075043,0.0159912,5.6320038-2.9289856c1.190094-3.7911072,2.795578-7.4732971,3.7041168-11.3246155
			c0.7321014-3.1033936,2.7975311-4.1497803,5.3371582-4.1351929c4.1953125,0.0240784,8.14505-0.8814087,12.1037903-2.0407104
			c2.4622192-0.7210388,4.318512-0.3548889,5.629364,2.3832092c1.7787781,3.7154236,4.1889343,7.1228943,6.1321106,10.7670898
			c1.6289368,3.0547791,3.803009,3.3356628,6.544281,1.7713318c3.8750305-2.2113037,7.704834-4.5024414,11.5960999-6.6842651
			c2.3264771-1.3044739,2.1932373-3.1021118,1.1588135-5.0672913c-1.7703247-3.3633423-3.2477112-6.9700623-5.5295715-9.9533997
			c-3.2150574-4.2034302-1.3525085-6.5730591,1.1474915-10.4950562c6.20224-9.7301331,13.8357239-11.9096069,23.9768982-7.4343262
			c3.4293213,1.5133362,5.0864258-0.5075684,5.9674377-3.2445679c1.3684082-4.2510071,2.4217834-8.6056213,3.5406189-12.9338989
			c0.6421509-2.4843445,0.1136169-3.9521484-2.9247437-4.4337463c-4.2321472-0.6707458-8.3889465-1.896637-12.519104-3.0889282
			c-1.449585-0.4184875-3.5304565-0.7620239-3.1694946-3.0801697c0.8139648-5.2276306-0.8016052-10.1768188-1.6784973-15.1923218
			c-0.5047302-2.8870544,0.1540222-4.6292419,2.9159546-5.92276c3.4270935-1.6050415,6.6192932-3.7044373,9.9613342-5.5002747
			c2.9679871-1.5947876,3.4551697-3.6870422,1.7174988-6.5238342c-2.322876-3.7921143-4.5917358-7.6192017-6.7972412-11.4806976
			c-1.6063843-2.8124237-3.4812012-3.6328735-6.4481201-1.7288055c-3.7458191,2.4039459-7.7137451,4.4590912-11.5087585,6.7901917
			c-2.0480957,1.2580566-3.6270752,1.1784363-5.1831055-0.7690735c-3.1436462-3.9346619-6.9228516-7.158905-11.4771729-9.3516846
			c-2.2347412-1.075943-2.6883545-2.4694977-1.8796997-4.780838c1.2548218-3.5866089,2.27771-7.2591248,3.2805786-10.9275818
			c0.7698975-2.8161774,0.9567871-5.0239258-3.1624146-5.6290131c-3.7084045-0.5447693-7.283783-2.1556244-10.8464813-3.4871674
			c-3.7593536-1.4050293-5.9208832-0.3403625-6.8757782,3.6113892c-0.8904877,3.6852112-2.0342865,7.3100891-3.1004181,10.9516144
			c-0.4684601,1.6000824-0.8618774,3.3814545-3.1271667,3.1918793c-5.8927155-0.4931488-12.2998962,3.5440674-16.7989807,1.9618378
			c-4.7523651-1.6713104-6.9212341-9.0722809-9.8165283-14.2080078c-1.5355225-2.7237244-3.4844513-2.7451172-5.6914978-1.526413
			c-4.1977997,2.3179626-8.2579193,4.8837738-12.4130249,7.2811127c-2.5716858,1.4837799-2.7042847,3.6047821-1.5927277,5.9484406
			c0.7736359,1.631134,1.8540802,3.1160431,2.787674,4.6721649c5.2324066,8.7215118,3.8672485,8.0775452,0.299469,15.6282654
			c-5.3613739,11.3467102-12.746933,11.3669434-22.2791901,7.2414856c-3.2420349-1.4031372-5.1081848,0.1213684-6.0256805,3.0346375
			c-1.2909546,4.0990295-2.4006348,8.2585754-3.4710846,12.4223022c-0.6568604,2.5550537,0.3932037,4.077301,3.0485535,4.6897888
			c3.8667603,0.8918457,7.6664124,2.0744934,11.5327454,2.9684753c3.3906097,0.7839966,5.3566895,2.0106506,4.1719055,6.1593933
			c-0.7535095,2.6385193-0.3569183,5.6068726-0.4655914,8.4277344c-0.1163788,3.0207214,3.7434692,5.9124756,1.0347595,8.7617798
			c-2.0965729,2.2053833-5.2282715,3.427002-7.9005585,5.0847168c-1.122879,0.6965637-2.1713409,1.5947876-3.3855591,2.0476074
			c-4.2112732,1.5705261-3.8057861,4.4929504-2.1713867,7.54599c1.946228,3.6355896,4.3764191,7.0172729,6.2412415,10.6896057
			c1.554184,3.0606079,3.484024,3.1081848,6.0451355,1.607605c4.0035248-2.3457031,8.0966949-4.5523376,11.9846344-7.0756226
			c1.9995422-1.29776,3.1869659-1.6735535,4.880188,0.559906c3.0081329,3.9678955,6.6977692,7.2880249,11.3249359,9.4002075
			c2.5854797,1.1801453,2.9806366,3.0081482,2.0261078,5.6515808
			C213.6673279,353.7660217,212.6350708,357.7742615,211.4873047,361.5897827z M520.5426025,375.5735779
			c22.8272095,0,45.6551514-0.0883789,68.4811401,0.0782166c4.3115234,0.0314331,7.0406494-1.4685669,7.1098022-5.6916809
			c0.199707-12.188385,0.4397583-24.2969055-4.6029663-35.9959106
			c-5.4869385-12.7298584-15.1526489-19.181488-28.1334229-22.1881409
			c-10.9169312-2.528656-21.8817139-1.9710999-32.8117676-1.1593628
			c-15.7766724,1.1716919-29.7178955,9.019989-44.6901245,13.2113342
			c-9.402832,2.6321716-17.1994019,9.3435669-26.9117737,11.5940247c-2.4189453,0.5604858-4.1831665,2.7171326-5.4904175,4.9019165
			c-5.4097595,9.0411682-9.6077271,18.5834961-11.9390259,28.9100342c-0.6513977,2.8853455,0.215332,4.2304688,3.1743774,4.9520264
			c3.7532654,0.9152832,7.47052,1.4368286,11.3318176,1.427002
			C477.5542603,375.5582886,499.0484619,375.586792,520.5426025,375.5735779z M334.493866,376.1967773
			c0,0.0791626,0.0000305,0.1582947,0.0000305,0.2374573c14.1522522,0,28.3050842-0.0699158,42.4562073,0.0552063
			c3.0696106,0.0271301,4.4406433-0.561615,4.3337097-4.0761414c-0.1852722-6.0916138,3.0059814-11.1576538,6.2286072-16.006073
			c1.6138306-2.4279785,4.1735535-3.6361084,7.3283997-3.4847717c4.1481934,0.1990356,8.3143921,0.0137939,12.4639893,0.1959839
			c3.520752,0.1545715,3.5554504-1.3999023,2.157074-3.8395386c-4.4825134-7.820343-11.0619507-13.3859558-19.5777283-15.9464417
			c-13.9692383-4.2001343-28.1673889-7.6323242-42.2104187-11.5957947
			c-13.0377502-3.679718-21.1777649-1.0692444-29.9857178,9.454895
			c-5.2166138,6.2331238-10.029541,12.7856445-16.1341553,18.3291626
			c-5.6799316,5.1578369-8.8329773,12.3943176-12.6161194,18.9694824c-3.0395203,5.2827759-1.2655029,7.6960449,4.5973511,7.7020874
			C307.1880188,376.2063904,320.8409424,376.1967773,334.493866,376.1967773z M342.4241638,315.1651611
			c0-0.8244629,0.065155-1.0374146-0.0092773-1.1130371c-5.6079407-5.698822-11.2619019-11.3528442-16.8352661-17.0851746
			c-5.6018677-5.7616577-6.3535767-13.4486389-1.4866943-19.8134766c2.9113159-3.8073425,6.2591248-7.4261169,9.971344-10.4388428
			c4.5683289-3.707489,5.9084473-7.1826782,2.3565674-12.4190521c-1.7997437-2.6532745-2.601593-6.057312-3.5068359-9.2214203
			c-0.8066101-2.8193207-2.210144-3.9275665-5.250824-3.8562469c-6.1535645,0.1443634-12.3325806,0.0816803-18.4726868-0.3247681
			c-6.1951599-0.4100952-12.5999451-5.4203949-12.7955017-11.3528137c-0.3483582-10.5682526-1.7339478-21.2808533,0.92453-31.746994
			c0.5466919-2.1522827,0.2322998-2.6138611-1.6899109-2.8299408c-5.1242371-0.5760803-10.2298279-1.4089813-15.4160767-0.8551636
			c-2.8955078,0.3092194-5.3821411-0.0605927-6.0488281-3.5672455c-1.6637878-8.7510223-5.509613-16.5855865-10.2870178-23.9905243
			c-1.3301392-2.0617218-3.2722778-4.4705811-5.4456482-4.6120605c-2.2199097-0.1445313-1.5815735,3.1821442-2.4186707,4.8832397
			c-0.7910004,1.6074524-1.0437469,3.4132843-1.4718933,5.1538239c-2.2727661,9.239151-2.819809,18.8250732-5.717392,27.9210052
			c-0.6568909,2.0621033-0.3705597,3.8947906,0.8937378,5.6668701c1.5473785,2.1688385,3.0549469,4.3732452,4.4489288,6.6426239
			c1.8270416,2.9743652,3.9584656,4.5863342,7.8527832,5.0599823c12.4366455,1.5125885,16.8426514,8.5421906,12.6498718,20.2603912
			c-1.9988708,5.5865631-0.0848999,7.9603882,4.396698,10.8997192c3.6431885,2.3894501,6.0183716,2.2217407,9.1085815-0.1372528
			c1.4229736-1.0862732,3.1448975-1.81427,4.7954407-2.5632477c6.7708435-3.0725098,12.1758423-1.3170624,15.8272095,5.1047974
			c1.5454102,2.7180176,2.9372253,5.5290222,4.5855103,8.1817322c4.8292847,7.7718811,3.6587219,13.7490234-4.4713745,18.1557617
			c-5.6018372,3.0363464-9.8569946,5.7404175-7.263031,13.3577271c0.9848022,2.8918457,1.2469177,4.3200378,4.7415466,4.6928101
			c13.4554138,1.4352722,17.5212097,8.0130615,13.2846375,21.0104065c-0.6351318,1.9485474-0.908783,3.55896-0.2009583,6.0302429
			C326.4452209,316.6795044,333.7686462,313.9414063,342.4241638,315.1651611z M161.3826599,375.270752
			c-0.0000153,0.1177368-0.0000458,0.2354431-0.000061,0.3531799c11.1663513,0,22.3344116,0.1074829,33.4979095-0.0710754
			c3.0151062-0.0482178,7.4910278,1.7799072,8.7558441-1.1119995c1.40271-3.2072449-1.3881073-6.9124146-3.492157-9.9390259
			c-0.8471832-1.218689-1.9160461-2.3031006-2.9859772-3.343811c-5.6393127-5.485199-12.3711395-9.4506836-18.7666473-13.9342346
			c-7.7262726-5.4165039-15.5851746-5.9637756-24.1413879-4.0363464
			c-12.3386841,2.779541-24.5907135,5.7479553-36.0606689,11.4281311
			c-6.2649307,3.1025085-8.1525345,5.7745667-6.7718201,12.4727173c1.1670303,5.6614685,5.0259018,8.1435242,12.9775238,8.1711426
			C136.7242279,375.3022766,149.0534973,375.270752,161.3826599,375.270752z M295.3327026,190.6807251
			c3.6128845,0.4998322,7.7857056,0.0758972,12.2596436-1.3161469c6.5108032-2.0258484,13.547821-0.86586,20.3636475-0.9629974
			c1.9981079-0.0284882,3.6485901,0.0998383,4.576416-2.5565948c1.9571838-5.6037292,6.7693176-11.2840576,6.1523743-16.4217072
			c-0.6635132-5.5258026-7.9376526-8.8461304-11.9076538-13.5056152c-2.0366211-2.3903198-4.329834-3.1292267-7.4024658-3.0848083
			c-9.5759583,0.1384735-19.1609802,0.8748016-28.4221191-3.1044006c-4.2966919-1.8461304-9.3578796-4.6365662-13.7134399,0.6031952
			c-0.2619934,0.3151703-1.2258911-0.001709-1.8535156,0.0655823c-7.471344,0.8007202-10.498291,6.6450195-6.5660706,12.938736
			c3.5103455,5.6185608,5.6539917,11.6531372,6.1070251,18.2463837c0.2961426,4.3102112,2.5501709,6.4524078,6.6964111,7.4224548
			C285.8789978,190.0005493,290.1843262,190.1642914,295.3327026,190.6807251z M197.9946899,194.7689209
			c2.7293549,0.1317902,5.1726379-1.1578522,8.0087738-1.2875671c3.2180634-0.1471558,6.8047485-0.165451,9.850174-1.0922546
			c6.22789-1.8953705,11.6019287-5.7819061,16.7997742-9.6752777c4.1131134-3.0808411,3.0000763-7.8554688,2.8961334-12.0442657
			c-0.0683289-2.7527008-3.2977295-3.0374756-5.006897-3.1894684c-6.98703-0.6212769-7.2857361-4.6575928-6.7049561-9.6053467
			c0.1824493-1.5542603-0.2782288-2.7775726-1.29599-2.3657837c-3.2820892,1.3279724-6.4513855-0.4637604-9.9873199,0.5735474
			c-6.7120972,1.9690552-13.0000763,4.8630371-18.767807,8.3368073
			c-5.4976349,3.3110809-11.1256714,6.7824249-14.8067627,13.0134888
			c-2.0289001,3.4343567-3.4113922,7.1766815-5.5869141,10.4333801c-1.4416656,2.1581268-1.4336548,3.7381592-0.4578705,5.8769226
			c1.162262,2.5474548,3.1768188,2.7638092,5.4052887,2.257309
			C184.8394623,194.5232544,191.4512177,195.293808,197.9946899,194.7689209z M488.9545898,316.5784302
			c-3.202301-2.2763062-6.2969666-4.4766541-8.9284973-7.2768555c-2.7315674-2.9066772-5.7230835-5.5694885-8.4441833-8.48526
			c-1.6723328-1.7919617-3.0444031-2.4072876-5.5523987-1.1577148c-4.4169617,2.2007751-9.0553284,4.0164185-13.7298279,5.617218
			c-2.5038147,0.8574524-3.2697449,2.1234741-3.2016907,4.6657104c0.1511841,5.6497192,0.1600952,11.3135681-0.0592651,16.9605103
			c-0.3544312,9.1230164-6.5882874,14.9931335-15.6907959,15.0195618
			c-6.9386597,0.0201111-13.8774414,0.0039978-20.9091492,0.0039978c1.802002,8.3312988,3.9041138,10.2297668,11.5944519,11.3881531
			c2.4371948,0.367157,4.7713623,1.3725891,7.1935425,1.8972778c2.7006836,0.585022,4.4814758,4.9828186,7.0569458,3.1831665
			c2.1246948-1.4846802,2.7413635-5.135376,4.0072327-7.8352051c0.2815247-0.6004333,0.4771729-1.2407227,0.7223206-1.8587036
			c4.3811035-11.0438232,11.4913635-19.0817871,23.243042-22.8822021
			C473.9555054,323.3282166,481.2990112,319.7385559,488.9545898,316.5784302z M411.9497986,375.1938477
			c0,0.1334229,0.0000305,0.2668762,0.0000305,0.4002991c6.9871521,0,13.974884,0.0453186,20.960968-0.0413208
			c1.273407-0.0157776,2.9806213,0.7616882,3.4645081-1.6512451c1.6640015-8.2973328-2.1867371-13.8232422-10.6180115-14.9770508
			c-8.5961914-1.1763916-17.2315979-1.4144287-25.8864746-1.0532532
			c-6.7600403,0.2820435-12.3644104,5.0832825-13.7711792,11.633606c-0.7868958,3.6641541,0.1538086,5.7889709,4.3907471,5.7206116
			C397.6418457,375.1100769,404.7964783,375.1938477,411.9497986,375.1938477z M353.6910706,317.2775574
			c14.7980957,5.7360229,29.0517883,8.460968,42.8528748,12.7777405c0-6.4547729-0.3913269-12.1352539,0.119873-17.7332764
			c0.4337769-4.7503052-1.3911438-6.7304382-5.7440796-7.8666992c-3.4711304-0.9060669-6.8640747-2.4589539-9.9863281-4.2554932
			c-3.0633545-1.7626953-4.8511353-0.9650269-7.2345886,1.3193359
			C367.9056091,307.0714111,363.3499756,314.1664734,353.6910706,317.2775574z M208.3305054,220.2941742
			c8.3547058,0.6556091,10.5466461,2.0887146,14.3101196,9.230072c0.3065338,0.581665,0.5104675,1.2407379,0.9114685,1.7450409
			c1.3049316,1.641037,1.7996063,4.5352325,4.1565399,4.5931549c3.4033051,0.0836487,6.8325958-0.6811981,10.2375183-1.1752777
			c0.3645782-0.052887,0.8045502-0.6643982,0.9331512-1.0986023c1.3027802-4.3992004,2.9651642-8.7509308,3.6607971-13.2498627
			c0.453537-2.9331818-2.9749451-4.5243378-4.3825989-6.9383087c-2.8004303-4.8024139-9.9702759-8.3133545-13.176239-7.2169647
			C217.6191254,208.7011566,212.7038727,214.0572662,208.3305054,220.2941742z M271.8998108,145.8023376
			c-2.178772-1.1146545-3.7294922-1.7449799-5.1016235-2.6470337c-2.2295837-1.4657288-2.738678-3.8764343-0.8503418-5.4843597
			c2.5513-2.1723938,4.191925-5.7152863,8.9334412-5.0899658c3.6598816,0.4826965,4.1611938-3.6128693,4.4766846-6.3047943
			c0.5291748-4.5150757-2.4517517-1.074852-3.8210144-1.414299c-1.0985413-0.2723007-2.181427-0.7121124-3.1862793-1.2394867
			c-3.9901123-2.0942001-7.4248962-2.0108643-10.6178589,1.7235489c-1.0229492,1.1964035-2.9090271,1.9760056-4.2813416,2.9414673
			c-4.333252,3.0484924-8.9293823,5.9572144-10.1982574,11.9382477c-0.7208099,3.397644,1.3156128,4.7932739,3.0771637,6.7029114
			c1.8792267,2.0372314,3.5773621,0.5407104,4.751358-0.5436096c2.980423-2.7527008,6.2291412-1.3627472,7.9676971,0.4983673
			C266.6212463,150.7069244,268.6437378,148.1886597,271.8998108,145.8023376z M287.9872131,142.3451538
			c9.9466248,4.2201996,19.6975708,7.9364624,30.453186,6.6856995c1.0922546-0.1270142,3.1509705,0.6424561,2.7793884-1.5537262
			c-0.7964172-4.7066803,0.8025208-8.9095306,3.0197144-13.8720245
			C312.0827942,138.9295349,299.348053,137.5783081,287.9872131,142.3451538z M249.0787354,177.1941833
			c-0.8573456,0.2565613-1.3022156,0.2491913-1.4394989,0.4510193c-5.1049194,7.5051422-8.9760742,15.8216553-14.9854126,22.7340698
			c-1.7136841,1.9711914,0.0345001,2.8484039,1.2441864,3.9706573c3.2730408,3.036377,6.4846649,6.1388397,9.7357941,9.1990051
			c1.2280731,1.1559296,2.2471619,3.8099213,4.2134399,2.1616058c1.4069366-1.1794128-0.3865509-3.2931519-0.8411865-4.9548492
			c-0.1322784-0.483429-1.1151123-0.6759491-1.4319916-1.1765747c-1.9828033-3.13237-3.8263855-6.6824188-1.9165497-10.1635132
			C247.4703674,192.4657288,246.5213165,184.626358,249.0787354,177.1941833z M307.3258362,333.5676575
			c-0.4820251-0.5795898-0.7954407-1.3475037-1.2806396-1.4783325c-4.0892334-1.1028442-8.2006836-2.1302795-12.3342285-3.0514832
			c-0.4499512-0.1002808-1.1618958,0.5307617-1.6169128,0.9645996c-6.7028809,6.3908081-6.914032,8.4137573-1.7880554,16.4016418
			c0.268219,0.4179382,0.52005,0.8543396,0.7156677,1.3096008c1.0718994,2.4947815,2.2357178,2.8688354,4.1396484,0.5693359
			c3.2894897-3.9730225,6.8143921-7.7502441,10.1852417-11.6573181
			C306.0885315,335.765686,306.5993958,334.7063293,307.3258362,333.5676575z M290.572052,96.3760529
			c4.1635437,4.2376785,2.3654175,7.8342056-0.7222595,10.9282379c-5.1135559,5.1240692-11.0886536,8.2668762-18.6617432,6.3890457
			c-1.4187012-0.3517838-2.8025513-0.600914-3.0499878,1.2445221c-0.1923218,1.4343872,6.5276489,5.5067749,8.1730347,5.1401138
			c10.608551-2.3640823,18.4642029-8.5240097,24.2318726-17.5618057c3.2451477-5.085022,2.5867615-6.3461914-3.4402161-6.7312393
			C295.1090393,95.6575546,293.1225281,95.4444504,290.572052,96.3760529z M241.1567383,149.8171539
			c-6.2567596-0.5818634-9.3776245,4.9066467-13.2739716,8.9859619c-0.9480743,0.9925995-0.4357147,3.2050323,1.2444611,3.4927368
			c2.5160217,0.4307861,5.4528351,4.4254608,7.0066681,1.8390656c2.8700409-4.7772217,6.4867249-5.0237427,10.7952118-3.983963
			c2.8099823,0.6781616,3.507782-0.2466888,3.6226807-2.8030548
			C250.7871246,152.1118469,247.9373169,149.5727386,241.1567383,149.8171539z M204.5149384,362.3204041
			c0.5722961-1.9371948,0.9677887-3.1835022,1.3086548-4.4445496c2.5504303-9.4350281,2.2788239-10.0290833-5.7919159-15.6719666
			c-1.1007843-0.7696533-1.8107758-1.1212769-2.9929504-0.3795471c-2.8955078,1.8167114-5.8437347,3.5493469-9.0782166,5.5013428
			C193.837204,352.2601013,199.6774445,356.4004517,204.5149384,362.3204041z M276.2371216,109.9109344
			c3.3004456-0.2174149,6.9404907-1.6331253,9.5381165-5.0399475c1.0284729-1.3488235,3.365509-2.6910706,1.6571045-4.5664291
			c-1.2746277-1.3991776-2.9594421-2.5249863-5.6510925-1.9411697c-3.6982117,0.8021545-6.0082397,2.9289932-8.6182251,5.277153
			c-1.4820251,1.3333435-2.5033569,2.21521-1.7272644,4.0867081
			C272.1317749,109.4056778,273.4554749,110.322876,276.2371216,109.9109344z M246.6665039,169.1917114
			c-0.6243591-1.5369263,1.1049042-5.5967712-3.4541931-5.4699249c-4.5109711,0.1255035-3.779068,3.7317047-3.6677246,6.6613159
			c0.0992432,2.6111298,0.3720093,5.215332,0.5404663,7.8243713c0.0582123,0.9016266,0.3514099,1.7674103,1.2554321,1.8811188
			c0.5033875,0.063324,1.4288483-0.4520264,1.5923157-0.9104919
			C244.0526276,176.0375977,247.3431091,173.8186646,246.6665039,169.1917114z M263.8211975,160.9223022
			c0.4466248-3.6724701-1.4963684-6.555542-2.2509155-9.682785c-0.3647156-1.5116119-2.1087341-2.4279785-3.502655-2.1872711
			c-2.1417542,0.369873-2.5953369,2.8115082-3.6628113,4.3570862c-0.8699646,1.2595673,0.8936005,3.0255737,1.6968689,3.1057129
			C259.2111511,156.8252411,260.4758301,159.9260101,263.8211975,160.9223022z M288.3340149,137.1047363
			c-5.8311462-0.7009888-10.1970825-1.5306396-14.4454041,0.3238525c-0.900116,0.3929291-1.9556274,0.8697662-1.7143555,2.1126404
			c0.1826172,0.9407501,1.0874023,1.219696,1.9508057,1.2052002
			C278.719696,140.669281,282.9377136,139.301712,288.3340149,137.1047363z"/>
		<path d="M475.9257202,215.3352356c-0.0045166,28.9711151-24.0727844,52.5410156-53.5682678,52.6073608
			c-28.3607178,0.0637817-53.4454346-24.846817-52.3621521-54.7133789
			c0.9797668-27.0127716,24.0674438-51.6078644,54.0445557-51.2272491
			C452.2242432,162.359848,475.9302368,186.4248505,475.9257202,215.3352356z M376.9296875,213.272583
			c-0.5334167,29.0955353,24.3130493,48.2650452,47.4988708,47.2974548
			c25.9552307-1.0832214,45.5359497-22.2729492,44.5959167-48.0847931
			c-0.9232788-25.3525696-22.5082092-45.3551483-47.8554688-44.34729
			C396.4158325,169.1222076,375.9729919,189.978775,376.9296875,213.272583z"/>
		<path d="M275.1841736,295.8027344c-0.1552124,19.9766846-14.5088196,35.499939-35.1264496,35.024353
			c-17.8578949-0.4119568-35.0509338-14.7749939-33.9986115-35.6781311
			c1.0003357-19.8707886,14.170639-33.0191956,33.4071655-33.6097107
			C260.0289307,260.9080505,275.2526855,275.2321167,275.1841736,295.8027344z M268.335144,295.4041443
			c-0.8266602-16.7248535-13.4224701-28.2156067-30.125946-27.4829102
			c-14.4473572,0.633728-26.7086182,14.0547485-25.9502411,28.5482788
			c0.8893433,16.9971313,13.8834381,27.794281,29.2548218,27.3652039
			C256.8200378,323.4074707,269.059845,310.0664063,268.335144,295.4041443z"/>
	</g>
</g>
</svg>
