<?xml version="1.0" encoding="utf-8"?>
<!-- Generator: Adobe Illustrator 19.0.1, SVG Export Plug-In . SVG Version: 6.00 Build 0)  -->
<svg version="1.1" id="Слой_1" xmlns="http://www.w3.org/2000/svg" xmlns:xlink="http://www.w3.org/1999/xlink" x="0px" y="0px"
	 viewBox="0 0 960 560" style="enable-background:new 0 0 960 560;" xml:space="preserve">
<style type="text/css">
	.st0{fill:#3A559E;}
</style>
<g>
	<g>
		<path class="st0" d="M506.1977844,350.9100952c0.0000305-14.4387817,0.0123901-28.8775635-0.0252686-43.3162537
			c-0.0027771-1.0674133,0.2809753-1.3277588,1.3310242-1.3228149c8.9990234,0.042511,17.9984741,0.0036316,26.9974365,0.0518494
			c1.0705566,0.0057678,1.312561-0.3687134,1.4362793-1.3360901c1.1348877-8.8746643,2.322998-17.7425537,3.4949341-26.6124878
			c0.3190918-2.4154053,0.6015015-4.8363647,0.9711304-7.2439575c0.1455688-0.9482117-0.4558105-0.7252808-0.9246216-0.725769
			c-6.4794312-0.0067444-12.9589233-0.0045776-19.4383545-0.0045776c-4.2796021,0-8.5593872-0.0177612-12.8387451,0.016449
			c-0.7635803,0.0061035-1.0248413-0.1703186-1.0218506-0.9835815c0.0298767-8.1192017-0.0395203-16.2390747,0.0361328-24.357666
			c0.0629578-6.7549133,5.7643738-12.3037109,12.5039063-12.3148193c7.0393677-0.0116119,14.0788574-0.0134583,21.118103,0.0122375
			c0.8067017,0.0029449,1.1895142-0.0737457,1.1853638-1.0662689c-0.0418091-10.0389709-0.0287476-20.0781708-0.0181274-30.1173096
			c0.0006714-0.6597748,0.0083008-1.092453-0.9117432-1.0884857c-10.4784546,0.0452576-20.9621582-0.1593018-31.4344788,0.1017151
			c-16.1207275,0.4018097-30.1372681,10.6265259-35.8317566,25.782196
			c-1.630188,4.3386993-2.4646912,8.8372803-2.4648438,13.4810791c-0.0002747,9.6791687-0.0293579,19.3585205,0.0345154,29.0372925
			c0.0086365,1.3079834-0.396759,1.5301208-1.5884399,1.5236816c-8.9589844-0.048645-17.918396-0.0112915-26.8774719-0.048584
			c-0.9610291-0.0039978-1.28125,0.1846313-1.2775269,1.220459c0.039917,11.158905,0.0394592,22.3180237,0.0007019,33.4769592
			c-0.0036011,1.0340271,0.3221741,1.2441406,1.2864685,1.2404785c9.039093-0.0343628,18.0784302-0.0021973,27.1174622-0.0449524
			c1.0527649-0.0049744,1.329834,0.2601013,1.3287659,1.3244934c-0.0306091,29.6774292-0.0310364,59.3548889,0.0010681,89.0323181
			c0.0011597,1.0930176-0.2749939,1.3354187-1.3355713,1.2330933c-10.4345093-1.0065918-20.6175232-3.1960144-30.3531494-7.0651245
			c-35.2958374-14.0272827-59.0788574-39.0563049-71.0263367-75.1402588
			c-4.6237183-13.9646301-6.171814-28.3946228-5.2139282-43.0601196
			c3.3997498-52.050705,40.6163635-95.8320618,91.3091125-107.4861603
			c10.5417786-2.4235229,21.2274475-3.3807526,32.025116-2.886795
			c52.2445679,2.3900452,96.8040771,38.9461975,109.3237305,89.7077179
			c3.4611206,14.0333405,4.3222046,28.248703,2.5338135,42.607132
			c-5.5152588,44.281189-34.7214355,81.1265564-76.6290894,96.6646118
			c-4.458252,1.6529541-9.0153809,2.9770508-13.6374817,4.0967712c-1.0155029,0.2459717-1.2062683,0.0379333-1.2044678-0.9522095
			C506.2060852,379.8676147,506.1977844,365.388855,506.1977844,350.9100952z"/>
	</g>
</g>
</svg>
