<?xml version="1.0" encoding="utf-8"?>
<!-- Generator: Adobe Illustrator 19.0.1, SVG Export Plug-In . SVG Version: 6.00 Build 0)  -->
<svg version="1.1" id="Слой_1" xmlns="http://www.w3.org/2000/svg" xmlns:xlink="http://www.w3.org/1999/xlink" x="0px" y="0px"
	 viewBox="0 0 960 560" style="enable-background:new 0 0 960 560;" xml:space="preserve">
<style type="text/css">
	.st0{fill:#FEFEFE;}
	.st1{fill:#DC4B39;}
	.st2{fill:#FEFDFD;}
	.st3{fill:#FDFBFA;}
</style>
<g>
	<g>
		<path class="st0" d="M606.4799805,406.4758911c-84.0681763,0.0013733-168.1363525,0.0013733-252.2222595,0.0013733
			c0-84.0554504,0-168.1136627,0-252.2045746c84.0622864,0,168.1422424,0,252.2222595,0
			C606.4799805,238.33461,606.4799805,322.4045715,606.4799805,406.4758911z M598.3046265,280.3083801
			c0.0707397-64.9604797-52.7495117-117.9491119-117.536499-118.210556
			c-64.8375854-0.2616577-118.420929,51.8020935-118.7496948,117.3132172
			c-0.3310547,65.9663086,52.4359741,118.8826599,118.1524048,118.9501038
			C545.3186646,398.4279785,598.2335205,345.5493774,598.3046265,280.3083801z"/>
		<path class="st1" d="M598.3046265,280.3083801c-0.071106,65.2409973-52.9859619,118.1195984-118.1337891,118.0527649
			c-65.7164307-0.0674438-118.4834595-52.9837952-118.1524048-118.9501038
			c0.3287659-65.5111237,53.9121094-117.5748749,118.7496948-117.3132172
			C545.5551147,162.3592682,598.3753662,215.3479004,598.3046265,280.3083801z M478.3444214,294.0862732
			c-0.0148621,0.3180237,0.0079956,0.5199585-0.0376892,0.7049866c-1.3332214,5.397522-3.915741,10.0677185-8.3735046,13.4764099
			c-7.159668,5.4746704-15.4220276,6.7555542-23.9976501,5.1459351
			c-16.5448303-3.1053772-26.8339539-18.9244995-23.5262146-35.6020508
			c3.4046631-17.1660767,21.0755005-27.8292999,37.7601013-22.8016052c4.0196228,1.2112427,7.507019,3.3082581,10.3500061,6.0317383
			c4.8074951-4.8078613,9.5661621-9.5668945,14.3478394-14.348938c-0.6572876-0.5853119-1.4020691-1.3117065-2.2102966-1.9588928
			c-12.8088989-10.2568054-27.3891296-13.171524-43.0997009-9.4149323
			c-24.9072266,5.9556427-40.8675232,29.0019684-38.0332947,54.5068817
			c1.6013184,14.4100037,8.433136,26.0448914,20.0696411,34.6408997
			c13.1112976,9.6854248,27.8216858,11.9924927,43.4784851,8.1638794
			c13.6427002-3.3361206,23.6763306-11.396759,29.6879883-24.1765442
			c4.4114075-9.3779907,5.5495911-19.3437805,4.8035583-29.5827332c-0.1179504-1.6188354-0.3851929-3.2268372-0.5819702-4.8279724
			c-15.9204102,0-31.6924438,0-47.4623413,0c0,6.6945801,0,13.3081055,0,20.0429382
			C460.4987183,294.0862732,469.399231,294.0862732,478.3444214,294.0862732z M541.8251343,305.3445435
			c0-5.8332214,0-11.6086731,0-17.5476379c5.9476318,0,11.7537842,0,17.5639038,0c0-4.233551,0-8.3010559,0-12.5323792
			c-5.8605957,0-11.6705933,0-17.6196899,0c0-5.9376221,0-11.7122498,0-17.4859314c-4.2072754,0-8.2715454,0-12.4796143,0
			c0,5.8362427,0,11.6114197,0,17.5270996c-5.9180908,0-11.6940308,0-17.4886169,0c0,4.2338562,0,8.3242188,0,12.5610962
			c5.8575134,0,11.631012,0,17.5429993,0c0,5.9218445,0,11.6975403,0,17.4777527
			C533.5513306,305.3445435,537.6165161,305.3445435,541.8251343,305.3445435z"/>
		<path class="st2" d="M478.3444214,294.0862732c-8.9451904,0-17.8457031,0-26.8250427,0c0-6.7348328,0-13.3483582,0-20.0429382
			c15.7698975,0,31.5419312,0,47.4623413,0c0.1967773,1.6011353,0.4640198,3.209137,0.5819702,4.8279724
			c0.7460327,10.2389526-0.3921509,20.2047424-4.8035583,29.5827332
			c-6.0116577,12.7797852-16.0452881,20.8404236-29.6879883,24.1765442
			c-15.6567993,3.8286133-30.3671875,1.5215454-43.4784851-8.1638794
			c-11.6365051-8.5960083-18.4683228-20.230896-20.0696411-34.6408997
			c-2.8342285-25.5049133,13.1260681-48.551239,38.0332947-54.5068817
			c15.7105713-3.7565918,30.290802-0.8418732,43.0997009,9.4149323c0.8082275,0.6471863,1.553009,1.3735809,2.2102966,1.9588928
			c-4.7816772,4.7820435-9.5403442,9.5410767-14.3478394,14.348938c-2.8429871-2.7234802-6.3303833-4.8204956-10.3500061-6.0317383
			c-16.6846008-5.0276947-34.3554382,5.6355286-37.7601013,22.8016052
			c-3.3077393,16.6775513,6.9813843,32.4966736,23.5262146,35.6020508
			c8.5756226,1.6096191,16.8379822,0.3287354,23.9976501-5.1459351c4.4577637-3.4086914,7.0402832-8.0788879,8.3735046-13.4764099
			C478.352417,294.6062317,478.3295593,294.4042969,478.3444214,294.0862732z"/>
		<path class="st3" d="M541.8251343,305.3445435c-4.2086182,0-8.2738037,0-12.4810181,0c0-5.7802124,0-11.5559082,0-17.4777527
			c-5.9119873,0-11.6854858,0-17.5429993,0c0-4.2368774,0-8.32724,0-12.5610962c5.7945862,0,11.5705261,0,17.4886169,0
			c0-5.9156799,0-11.6908569,0-17.5270996c4.2080688,0,8.2723389,0,12.4796143,0c0,5.7736816,0,11.5483093,0,17.4859314
			c5.9490967,0,11.7590942,0,17.6196899,0c0,4.2313232,0,8.2988281,0,12.5323792c-5.8101196,0-11.616272,0-17.5639038,0
			C541.8251343,293.7358704,541.8251343,299.511322,541.8251343,305.3445435z"/>
	</g>
</g>
</svg>
