<?xml version="1.0" encoding="utf-8"?>
<!-- Generator: Adobe Illustrator 19.0.1, SVG Export Plug-In . SVG Version: 6.00 Build 0)  -->
<svg version="1.1" id="Hosting_xA0_Изображение_1_"
	 xmlns="http://www.w3.org/2000/svg" xmlns:xlink="http://www.w3.org/1999/xlink" x="0px" y="0px" viewBox="0 0 700 400"
	 style="enable-background:new 0 0 700 400;" xml:space="preserve">
<g>
	<g>
		<path d="M575.0107422,169.9665985c-4.9610596,5.4554138-4.1101074,12.157959-4.1014404,18.72229
			c0.038208,28.8330688-0.3328857,57.6721802,0.1604004,86.4968414c0.255188,14.9072266-8.2510986,21.3332214-21.5836792,21.2822876
			c-44.9989929-0.1719666-89.999054-0.0671997-134.9986877-0.0629272c-6.9408875,0.0006714-6.95224,0.0164795-6.956543,6.962677
			c-0.0070496,11.333252,0.2276001,22.6731567-0.1005554,33.9968872c-0.1594238,5.5010681,1.7461548,9.1815491,7.0339661,10.3090515
			c9.1532898,1.9517822,17.2307739,7.2863159,26.7671509,8.068573c4.0509949,0.3323059,7.4319458,1.0768127,10.2171936-3.3233032
			c2.203125-3.4805298,6.3762817-5.3399658,10.2245483-6.9368896c10.6618652-4.4243774,20.3007507-10.7449646,30.4302063-16.150177
			c4.069458-2.1715088,8.1925659-3.59021,12.846405-3.4099731c7.0176086,0.2718201,13.9318848-0.5737,20.8525391-1.7528381
			c11.7940063-2.0094299,23.3339233-0.016571,34.3359985,4.0218811
			c11.9675903,4.3928528,18.2908325,18.3483887,15.2434692,31.2837219
			c-1.6442871,6.9794006-5.0554199,13.0477905-9.4373779,18.548584c-2.8278809,3.5499573-6.9094238,4.9577026-11.4743652,4.9519043
			c-17.3331909-0.0220032-34.6663208-0.0092773-51.9995117-0.0079651
			c-88.6269836,0.0066833-177.2539673,0.0213013-265.8809509,0.0152283
			c-20.3323975-0.0014038-40.6690979-0.3186646-60.9945374,0.0377502c-6.0106659,0.1053772-10.2486267-1.758606-13.4488983-6.501709
			c-2.0554352-3.0463562-4.4005432-5.8099976-7.1920471-8.183197c-1.2095947-1.0283203-2.162796-2.3849792-2.1943359-3.7993469
			c-0.117157-5.2537231-3.0184479-6.005188-7.2877197-4.9466858c-0.3115387,0.07724-0.6652374,0.0708008-0.9845886,0.0165405
			c-2.365036-0.4018555-5.1444092-2.6982117-6.9818878-0.5849609c-1.7795563,2.0466003-1.1918945,5.3780518-1.3238983,8.1983643
			c-0.1400604,2.992157-0.3185577,5.9873657-0.6408997,8.9638367c-0.137085,1.2657776-0.351059,2.925415-2.1484222,2.8365479
			c-1.7289581-0.0854797-1.9850464-1.7028809-1.9906769-2.9972839c-0.0216522-4.9864807,0.0871277-9.9822388,1.1565247-14.8797302
			c0.3342438-1.5307922,0.9483795-3.3290405-1.0272217-3.7377319c-5.8392563-1.2079773-4.880455-4.2622986-2.0682678-8.0152588
			c-1.9080963-0.5475159-3.4565659-1.1094971-5.0536194-1.4277039c-4.4908295-0.8946838-6.2438812-3.7063293-5.0691071-7.9303284
			c1.2872772-4.6285095,3.0472488-9.1166382,7.1610184-12.184845c4.8687363-3.6312866,8.4996109-8.9432678,14.9380112-10.4554443
			c2.4295349-0.5706482,4.8029175-1.5096741,7.3084259-1.403656c3.6461792,0.1542358,6.0731354-2.105072,7.8249512-4.5453796
			c1.7780151-2.4768677,2.6018524-5.6757507,3.6544952-8.625885c1.0809479-3.02948,5.3564301-2.6885376,6.2777252-6.0778198
			c-5.699646-1.3227844-11.0414429-2.390686-15.0262604-7.5231934c-3.0030365-3.8679504-3.2604675-7.8719482-3.322998-12.0247192
			c-0.2107544-13.9967346-0.0809021-27.9985657-0.0809174-41.9984589
			c-0.0000305-59.6661987,0.2862701-119.3348312-0.2239532-178.9966583
			c-0.1116638-13.0563889,9.7034454-22.3755684,22.1857452-22.3400955
			c126.3313141,0.3590469,252.664444,0.3593292,378.9957886-0.0007668
			c12.4619141-0.0355225,22.6140747,9.4129601,22.0906982,21.9144745
			c-0.7662354,18.3011017-0.06427,36.6598511-0.3041382,54.9899063c-0.0504761,3.8552246,1.069458,7.2110291,3.5536499,9.4205322
			c6.6940308,5.9537582,14.5647583,10.7278976,17.392334,21.0970688c2.1375732-4.1805878,2.2372437-6.8021545,0.5231323-9.8752136
			c-4.7473755-8.5113144-3.7651367-17.0336075,0.6716919-25.4148102c1.5999146-3.0222397,3.5661011-6.5778809,6.9655762-6.3536224
			c3.5701294,0.235527,6.977478,2.4826584,9.2322388,5.8663864c3.2299194,4.8471756,3.0253906,10.0354538,1.5623779,15.2220154
			c-0.937439,3.3231964-2.0357666,6.8496399-4.0354614,9.569191c-3.434021,4.6702881-2.7457275,9.7814789-2.8231201,14.868454
			c-0.0649414,4.2725372,0.3887329,8.4256744-1.8562012,12.5444641c-3.4786987,6.3822479-2.755188,12.6878204,1.7380981,18.5960846
			c3.2332764,4.2514343,3.989502,9.3695374,3.8951416,14.5421906c-0.0217285,1.1933746-0.6113892,3.4606018-2.6478271,2.8247528
			c-1.5964355-0.4984436-0.7121582-2.1750641-0.4552612-3.4103851c1.0498657-5.0488739,1.0015869-9.8316193-2.9507446-13.8761902
			c-0.9523315-0.9746094-1.5099487-2.3518372-3.1317139-1.3519135c-1.2988892,0.800766-0.8352661,2.0846252-0.4992065,3.1582031
			c1.442627,4.608078,1.6640015,9.3781586,1.9432373,14.1362c0.065979,1.1248932,0.0524902,2.4157104-0.437439,3.3656311
			c-0.4708862,0.9130707-1.2372437,2.3096466-2.5897827,1.9309387c-1.6741333-0.468689-1.020752-1.7444153-0.5187988-2.8271637
			c2.6074219-5.6239471,0.6226196-11.1315765-0.1498413-16.7975159c-2.5406494,0.312149-4.0574341,2.0121765-5.9641724,2.9148102
			c-2.1793213,1.031601-4.1871948,1.5733032-6.4586792-0.2512054c-2.4528198-1.9701691-1.3740234-4.1495209-0.8660889-6.2367554
			c0.7858276-3.228775,3.4868774-5.1628265,5.7161255-7.3361969c1.1965332-1.1665192,2.7244873-1.972702,2.2306519-4.5237885
			c-6.0982666,0.9984283-10.7107544,5.0602264-16.0041504,7.5595856c1.3914795-3.3302612,4.3579102-4.7267609,7.388855-6.0616608
			c1.6912842-0.744873,3.4217529-1.6763611,3.4492188-3.7432709c0.0142822-1.0786285-0.8685913-2.0975342-2.223938-2.3240967
			c-2.206604-0.3688812-3.8123169,0.4315643-5.0751343,2.2574158c-1.9485474,2.8172913-4.0481567,5.5306244-5.9770508,8.360733
			c-0.7216187,1.0587921-2.2875977,2.03862-0.9438477,3.7559052
			C572.4970093,171.2758331,573.2560425,169.8636169,575.0107422,169.9665985z M169.2606201,283.8932495
			c-1.1632233-3.1595764-2.3360138-5.7320251-2.5042267-8.5278625c-0.1286469-2.1384888-1.740799-5.5650635,1.4519653-5.7019653
			c2.3017731-0.0987244,0.6350403,3.2410583,0.7058716,5.0291443c0.305542,7.7129211,3.9079132,10.243866,11.1684418,7.7145081
			c1.7048035-0.5939331,3.3266602-1.4325562,5.0415649-1.9896851c4.0878906-1.3280334,6.5147705,0.2503052,6.8737335,4.3635559
			c0.604248,6.9238892,0.6042633,6.9239502,7.7736053,6.9204102c0.9999542-0.0004883,2.00737-0.0815735,2.9985657,0.0111389
			c4.2060394,0.3933105,6.9269104-1.3101501,8.5161896-5.3114624c0.779007-1.9612732,2.242157-3.6754761,3.5342865-5.397522
			c0.6145325-0.8189697,1.6725616-1.2638245,2.6404419-0.5644531c1.0113983,0.730835,0.7206879,1.7557983,0.1499329,2.6581421
			c-0.9788666,1.5475159-2.0555267,3.0352783-2.9910736,4.607666c-1.4625854,2.4581909-1.3699646,4.1594849,2.1487122,4.0000916
			c0.9978485-0.0452271,1.999588-0.0036621,2.9995422-0.0036621c108.9949188,0.0001831,217.9898529,0.0001831,326.9847412-0.0000916
			c0.999939,0,2.0092163,0.0852661,2.9983521-0.0189209c8.4747314-0.8930359,15.3410645-5.5665283,15.3373413-15.7557373
			c-0.0270996-73.496582-0.0120239-146.9931488-0.0187988-220.4897308
			c-0.0007935-8.6195412-5.7094727-14.4935036-14.2641602-14.4948769
			c-127.6607056-0.0205116-255.3214111-0.0201721-382.9821167-0.0012703
			c-7.8967438,0.0011711-13.8885803,6.0337715-13.889801,13.8648491
			c-0.0113983,73.8298874-0.0114288,147.65979-0.0008545,221.4896851
			c0.0010376,7.258667,5.1371002,13.7423096,12.1029205,15.2381897c1.3942413,0.2994385,3.0886078,0.6943054,4.0110626-1.0232239
			c0.8523102-1.5869751-0.5062561-2.5281677-1.3855438-3.3746643c-2.6984711-2.5977478-5.3275146-5.2257385-7.0693054-8.5974731
			c-0.6747894-1.3063049-0.8615723-2.8633423,0.6049957-3.4258728c1.4230499-0.5458679,2.4028473,0.6131592,2.6269989,2.1270142
			C165.2112579,279.8545227,165.7857971,282.3426514,169.2606201,283.8932495z M339.7012634,376.0742798
			c32.1452332,0,64.2904358,0.0058594,96.4356689-0.0108643c2.6547546-0.0013733,5.6795654,0.6034546,7.8573303-0.4582214
			c2.0697021-1.0090027,0.3439026-4.3053284,1.1895752-6.4621887c0.4240723-1.0815125,0.65271-2.2389221,1.0650024-3.3258667
			c1.0549927-2.7815552,0.1068115-3.4202881-2.8087769-4.0117188c-13.0505981-2.6473999-26.5092163-3.9360962-37.8217773-12.3899536
			c-3.3815002-2.5269775-4.8757019-4.9256897-4.8561401-8.8694153c0.0628357-12.6578674-0.0601196-25.3170776,0.0658569-37.973999
			c0.0333252-3.3468323-0.8999939-4.6361389-4.5092468-4.6161499c-25.6487427,0.1423645-51.2993774,0.1699219-76.9474792-0.0222473
			c-4.0017395-0.0300293-4.6689453,1.4773865-4.6244507,4.9263916c0.1503296,11.6569824-0.0747681,23.3193054,0.1268311,34.9747314
			c0.0700989,4.0535583-1.2627869,7.5499573-4.3883667,9.4426575c-4.5565796,2.7592163-8.6768494,6.2982178-14.1091309,7.7237854
			c-6.3512573,1.6667786-12.7927246,3.2427979-19.1390076,4.6377258
			c-12.3733215,2.719635-24.9578857,4.5690918-37.3818512,7.2446289c-3.966156,0.854126-4.6184235,2.5641174-4.7152863,5.9797363
			c-0.1256104,4.4286194,2.9529572,3.1690674,5.1276398,3.1726685
			C273.4121094,376.0909119,306.5567017,376.0741577,339.7012634,376.0742798z M213.3813629,356.0996704
			c9.0800629-1.6614685,17.66185-3.4223328,26.4259033-4.3592529c15.2013245-1.6251526,30.3613739-3.9306335,45.6895905-2.6853333
			c6.0659485,0.4927979,11.7596436-0.9473572,16.8985901-3.3052063c3.5923157-1.6482544,7.1424255-4.4990845,6.7761536-10.2679443
			c-0.6633911-10.4489746-0.1864929-20.9702148-0.1884155-31.4613037c-0.0013733-7.4570618-0.1321411-7.6106873-7.4918518-7.6134033
			c-27.643158-0.0101929-55.2879181,0.1505127-82.9282227-0.1312256c-5.7233429-0.0582886-9.5775909,1.1724548-11.4972382,6.9068604
			c-1.5661774,4.6784973-4.9721222,6.1468506-9.8618317,5.1863098c-4.9220886-0.9669189-9.93927-0.5865784-14.8924408,0.2008057
			c-3.2859039,0.5223389-5.0208282,1.9990845-4.2668152,5.7792053c0.6468506,3.242981,1.0388641,6.6368408,0.84375,9.9224243
			c-0.2459259,4.141571,1.4965515,5.6037903,5.3635864,5.9288025c7.4729919,0.6281128,14.443985,2.6333923,19.4999084,8.7325134
			c1.1901855,1.435791,2.6562347,2.410614,4.2074127,3.4144592
			C213.8625488,346.167572,214.8249359,348.6905823,213.3813629,356.0996704z M505.9371643,378.0464172
			c0-0.0195923,0-0.0391541,0-0.0587463c13.9766541,0,27.9721375-0.4420776,41.9234314,0.1526489
			c9.5837402,0.4085388,15.8601685-3.23349,19.5806274-11.79599c7.2327881-16.6456909,3.774292-26.6695251-9.5917969-33.2475891
			c-9.249939-4.5522766-19.9599609-5.4008789-30.3031006-3.9103699c-7.2717285,1.0478516-14.4821777,2.019043-21.8180237,1.741333
			c-4.15271-0.157196-7.7785339,1.152832-11.3525085,3.1383667c-8.7173462,4.8429871-17.143219,10.5628967-26.4054871,13.9815063
			c-10.9869995,4.0552063-15.838623,11.6496277-17.8341675,22.2600098c-0.3479004,1.849884,0.0521545,3.2012329,1.3387451,4.4943237
			c2.378479,2.3904724,5.2016602,3.2939148,8.5567322,3.2774658
			C475.3331604,378.0042725,490.6352539,378.0464172,505.9371643,378.0464172z M192.6575928,341.7969055
			c-3.1153107,0.303009-6.4155731-0.520813-9.3660431,0.8716736c-7.8956299,3.7263489-15.665451,7.7366638-22.7615967,12.849884
			c-3.1929474,2.3007202-5.2635651,6.1591187-2.7572327,9.4934692c6.2124786,8.2647705,13.0893707,16.0768127,25.2393036,14.0045471
			c1.1273651-0.1922607,2.3354492-0.1194153,3.4794464,0.0317383c3.9057922,0.5159607,6.1767273-1.1347656,6.3763123-5.0487671
			c0.1813507-3.556366,2.2301178-5.825531,4.7819519-7.7668457c2.3557587-1.7921143,4.883728-3.3581238,7.3385468-5.0197144
			c6.8178711-4.6147766,6.5642853-11.8104553-0.1310425-16.4089661
			C201.0090942,342.1608887,197.0481567,341.5071716,192.6575928,341.7969055z M278.5296936,353.6698608
			c-0.0241089-0.4122009-0.0481873-0.8244019-0.0722961-1.2365723c-3.7649841-0.6976624-7.6163025-0.9046631-11.4026184,0.0890198
			c-6.3380737,1.663269-12.7972412,1.8335876-19.2709656,2.3743591
			c-12.5180359,1.0456543-25.2049255,1.7232361-36.8227692,7.3491516
			c-4.9297791,2.3872375-9.5668182,5.3190002-13.2688599,9.4205627c-1.4516602,1.6083374-2.4309082,3.8091125-1.5266418,6.002533
			c0.9003448,2.1838989,3.1509705,1.4116516,4.8777466,1.4258728c7.9931946,0.0657959,15.9882507-0.0389709,23.9802856,0.0782471
			c2.568573,0.0376587,3.4993744-0.7864075,3.4435272-3.431427c-0.0807037-3.8208313,0.3357849-7.6495361,0.4121704-11.477417
			c0.039505-1.980072,0.6588898-3.1517334,2.8305817-3.1967468c10.1780396-0.2107849,19.8339233-3.8049011,29.951889-4.5957947
			C267.3228149,356.0291748,272.9094849,354.6351318,278.5296936,353.6698608z M122.9212646,341.4893188
			c-0.9488983,3.6281128,1.1157379,5.0057983,4.7531281,5.2308044c11.1356506,0.6887512,19.8482971-3.5585327,26.7605591-12.2851868
			c2.284729-2.8844299,2.7716064-5.7521057,1.7073822-8.7835999c-1.2033386-3.4278259-3.904953-5.960083-7.5473175-6.5723877
			c-7.3443451-1.2345581-25.3355331,14.0296631-25.6728058,21.5226135
			C122.9147339,340.7676697,122.9212646,340.9344482,122.9212646,341.4893188z M609.175354,112.6687698
			c-0.0454712,0.3348236,0.2280884-0.6480255,0.1960449-1.6207886c-0.1468506-4.4546204-3.5358276-6.2088318-6.7483521-8.2765503
			c-2.526001-1.6258316-4.3486328-0.4131546-5.6537476,1.2284546c-5.9180298,7.4441681-8.6917114,18.8709259-1.7009277,27.7269363
			c2.1797485,2.7612762,6.071167,2.7458038,8.013916-0.1716461
			C606.8121948,126.2542038,609.0882568,120.4869537,609.175354,112.6687698z M179.2189178,340.1389465
			c-0.0919037-0.2877808-0.1838074-0.575592-0.2757111-0.8634033c-2.2360687,0-4.4761047-0.0854187-6.7073059,0.0187073
			c-4.0237579,0.1878662-5.9764404-1.5777283-5.5228119-5.6589966c0.274826-2.4725952,0.727478-4.925293,1.0083771-7.3973999
			c0.0926056-0.8151245-0.0448914-1.7901306-0.9739685-2.0942078c-1.0701447-0.3502808-1.3931122,0.5523376-1.6143646,1.3479614
			c-2.3131561,8.3180542-8.5235291,13.9934692-13.624176,20.4681091c-2.7573547,3.5001221-7.4384613,4.7069397-10.098114,8.909729
			c2.6501312,0.2824402,4.7967987,0.4752808,6.9332733,0.7480164c2.6687622,0.3406067,5.184433,1.4260864,7.7275543-1.0627747
			c4.4902191-4.3945313,9.8373871-7.6623535,15.5428009-10.3414917
			C174.2138519,342.9926147,176.6879883,341.5052795,179.2189178,340.1389465z M169.4442291,312.026886
			c1.6201935,0.0912476,5.0100403,1.790802,2.8588562-2.1714783c-2.3247223-4.2818909-0.8584595-6.1336365,3.2129211-7.0372009
			c1.5200043-0.3373413,1.850296-1.3852539,1.8104706-2.5243835c-0.0522614-1.4952087-1.4539948-0.9669189-2.3080292-1.130188
			c-5.9853668-1.1442566-13.8312378,4.6390076-14.5750885,10.6779785c-0.2023468,1.6426697,0.4583893,2.878418,1.6050873,3.9538574
			c1.6593933,1.5562744,2.6672058,0.1651001,3.690155-0.8531189
			C166.8213501,311.864624,168.1364746,312.0120239,169.4442291,312.026886z M570.9265137,167.5875702
			c5.8272705-6.96492,5.8234253-6.97435,17.1251831-11.5700836c0.7282715-0.2961731,1.0599976-0.6370087,1.0139771-1.4114227
			c-0.0535889-0.9004974-0.3440552-1.5953674-1.27771-1.895874c-3.2960205-1.0608063-6.4680176-2.7054901-9.9899902-2.782547
			c-4.2605591-0.0932312-6.8001709,2.468338-6.8616333,6.6246643
			C570.8876953,159.8436737,570.9265137,163.1363373,570.9265137,167.5875702z M571.1743774,150.0868073
			c6.1825562-5.1699982,11.81073,0.6284637,17.9331055,0.4857941c-1.8807373-3.5802612-3.5842896-6.7432098-5.2081299-9.9465637
			c-0.8639526-1.7043762-2.1205444-2.8467712-3.8884888-1.6600952
			C576.0848389,141.6012115,572.2602539,144.4318542,571.1743774,150.0868073z M175.1800995,317.1200562
			c-0.5606079-0.0192566-1.1212158-0.0385132-1.681839-0.0577698c-1.0545044,5.1096191-2.1363678,10.2138062-3.152359,15.3310547
			c-0.5388489,2.7140198,0.7002716,3.675354,3.3380585,3.2380981c4.6828461-0.7762146,9.2339325-0.182312,13.7767792,1.1487732
			c1.9676819,0.5765381,4.1310272,1.1206055,6.6721802-0.1600952c-4.5231628-2.8817749-9.5439911-2.2175293-14.0526886-3.461731
			c-3.4147186-0.9423523-5.1194916-2.6636047-4.9345856-6.3071289
			C175.3098602,323.6152649,175.1800995,320.3643799,175.1800995,317.1200562z M596.2957764,142.2385406
			c3.3591919,4.1365204,0.1973267,8.3328094-0.8218994,11.8721619c-0.6812744,2.3657837,2.7404785,5.2310638-0.8582764,6.7044678
			c-1.671875,0.6845093-2.1601563,1.781189-0.7404785,2.8101959c1.1602783,0.8409576,2.7734985,0.8569336,4.0007935-0.5006714
			c3.137085-3.4701538,4.9915771-14.516098,3.0223999-18.7150421
			C600.0904541,142.6868744,598.9281006,141.3446808,596.2957764,142.2385406z M583.0987549,135.4969177
			c-2.7084351-5.6010284-7.5477905-3.8811646-11.1327515-3.375351c-2.2176514,0.3128967-0.7823486,4.2542114-0.9779663,6.5477905
			c-0.1312866,1.540451-0.4912109,3.2229156,0.5696411,5.0856781
			C575.1957397,140.6713715,577.9398193,136.5198517,583.0987549,135.4969177z M570.9366455,118.1634521
			c0,4.0135345,0.0231323,6.4860077-0.0078735,8.9578018c-0.0219116,1.7514114,0.6257324,3.2674332,2.512085,2.8542862
			c5.8535767-1.2820892,9.6954956,1.657074,13.1621094,5.8411713
			C584.1270752,127.9992752,575.7420044,125.7678223,570.9366455,118.1634521z M595.7605591,169.7082825
			c1.1942749,0.5098267,2.4586792,0.8975372,2.5466309-0.9158325c0.0718384-1.4811249-1.0512085-2.38974-2.440918-2.7018433
			c-3.1541138-0.7083893-12.0886841,6.984024-11.9070435,10.3196564c0.1350098,2.4797058,2.1637573,3.2947693,4.1196899,3.2844086
			c1.7258911-0.0091553,1.9614258-0.8044128,1.2024536-2.877243
			C588.0496216,173.4534912,592.0081787,169.5805969,595.7605591,169.7082825z M186.6220703,303.7376099
			c3.451416,0.3380127,6.9643555,0.3815002,10.3391418,1.0864563c4.5123596,0.9425659,6.3898773-1.5429688,7.7259216-5.0764771
			c0.213028-0.5633545,0.3614197-1.3871155,0.1029968-1.842865c-0.5115509-0.9020996-1.5466919-0.6080017-2.2022858-0.2096558
			C197.6138153,300.7174072,192.015625,301.9224243,186.6220703,303.7376099z M175.8723602,296.0027466
			c3.1314087,0.5661926,5.815155-0.4483643,8.104248-1.8352661c3.3219757-2.0126343,6.0521545-4.7192078,5.0873413-9.312439
			c-0.3511047-1.6715088-1.1858673-2.2393188-2.7875977-1.8836975c-1.1329346,0.2515259-2.4847717,0.3355103-2.0736847,2.0574951
			C185.8729706,292.0256348,181.4345398,294.3260498,175.8723602,296.0027466z M181.8992462,288.342865
			c0.0702972-1.6596069-0.7455902-2.505188-2.0958252-2.291687c-2.7613831,0.436676-4.3659363,2.2478333-4.7901917,4.9743958
			c-0.1752777,1.1264343,0.4908752,2.0648193,1.7125854,1.8552551
			C179.4010925,292.4218445,181.1044464,290.7425537,181.8992462,288.342865z M143.7593994,347.0984192
			c-7.7305756,1.5498962-9.135849,2.4576416-10.9797363,6.8398438
			C136.9324799,352.8462219,139.8425751,350.3824463,143.7593994,347.0984192z M594.9310913,138.8617096
			c1.4615479,0.1123962,2.6120605,0.329422,3.7423706,0.2517548c1.1372681-0.0781555,2.7888184,2.7115631,3.3442993-0.3406982
			c0.3412476-1.8751373-1.2973633-3.1922607-2.8764648-3.5248108
			C597.0681152,134.8113556,595.84021,136.314621,594.9310913,138.8617096z M596.9447632,173.4195099
			c-0.1928711-1.3443451-1.2401733-1.4210663-2.2398682-1.4186249c-2.3018188,0.0056305-3.1762085,1.7689362-3.5923462,3.525528
			c-0.3339844,1.4097595,1.2235107,1.5054474,2.0663452,1.3275299
			C595.0169067,176.4659424,596.5602417,175.5137024,596.9447632,173.4195099z"/>
		<path d="M358.1116638,54.0079231c58.998291-0.0000648,117.9966125-0.0014534,176.9949036,0.0013618
			c9.3186646,0.0004463,9.7816772,0.4736328,9.7821045,9.9947662c0.0025635,64.6647568,0.0031738,129.3294983-0.0007935,193.9942627
			c-0.0005493,8.9535522-0.8126221,9.7825317-9.6178589,9.7828369
			c-118.3299255,0.0037537-236.6598816-0.0126343-354.9898071,0.0357666
			c-8.124115,0.0033264-9.7678833-2.2677612-9.7544708-9.3858032c0.1225128-64.9979095,0.1277618-129.9962463-0.0049133-194.9941101
			c-0.0150299-7.3695183,1.6856537-9.4856606,9.5960083-9.4745216
			C239.448349,54.046051,298.7800293,54.007988,358.1116638,54.0079231z M357.4797363,58.9257202
			c-58.6529236,0-117.3060608,0.063591-175.9584503-0.1163635c-4.8820801-0.0149765-6.0260162,1.3108635-6.0139465,6.0794601
			c0.1618042,63.9845047,0.1589966,127.9696732,0.0056458,191.9542236
			c-0.0114136,4.7641907,1.2210388,6.1285706,6.0660095,6.1230469
			c117.4721527-0.1340027,234.9445343-0.1347046,352.416687,0.0015564c4.8984985,0.0056763,6.0620728-1.4284668,6.0507813-6.1727905
			c-0.1526489-63.9845581-0.1572266-127.9697266,0.0068359-191.9542236
			c0.0124512-4.8630295-1.3671265-6.0337639-6.1154175-6.0206871
			C475.1188354,58.9819336,416.2992249,58.9257431,357.4797363,58.9257202z"/>
		<path d="M353.9629211,280.7396851c-0.0625305-4.0394897,2.2504272-6.022522,5.9589233-6.363739
			c3.3730469-0.3103333,7.3829956,3.4316101,6.9597473,6.5559082c-0.5037537,3.7186584-2.8571472,6.1293335-6.6436157,6.5404968
			C357.0557556,287.8179626,353.9664001,284.2955322,353.9629211,280.7396851z M359.5297852,276.3248291
			c-0.9544678,1.4236145-3.1285706,2.2697449-2.6009216,4.6943054c0.3873901,1.7798157,0.9075012,3.9615173,3.2788086,3.4651794
			c2.0726318-0.4338074,4.1346741-2.2156982,3.6038513-4.3512573
			C363.4460449,278.6628723,361.1419373,277.6745911,359.5297852,276.3248291z"/>
	</g>
</g>
</svg>
