<?xml version="1.0" encoding="utf-8"?>
<!-- Generator: Adobe Illustrator 19.0.1, SVG Export Plug-In . SVG Version: 6.00 Build 0)  -->
<svg version="1.1" id="Слой_1" xmlns="http://www.w3.org/2000/svg" xmlns:xlink="http://www.w3.org/1999/xlink" x="0px" y="0px"
	 viewBox="0 0 960 560" style="enable-background:new 0 0 960 560;" xml:space="preserve">
<style type="text/css">
	.st0{fill:#FEFEFE;}
	.st1{fill:#0084B0;}
	.st2{fill:#FDFEFE;}
</style>
<g>
	<g>
		<path class="st0" d="M606.4688721,406.4688721c-84.0837402,0-168.156311,0-252.2177429,0
			c0-84.0837097,0-168.1562958,0-252.2177429c84.0837097,0,168.1562805,0,252.2177429,0
			C606.4688721,238.3348389,606.4688721,322.4074097,606.4688721,406.4688721z M361.945282,280.2352295
			c-0.1276245,64.6872253,52.74646,117.79245,117.2622375,118.1438904
			c64.9883423,0.3539734,118.6159058-51.6956177,119.0266113-117.1691895
			c0.4139404-65.9839325-52.1871948-118.8854523-117.9913025-119.114151
			C415.0790405,161.8693237,362.0743713,214.8031464,361.945282,280.2352295z"/>
		<path class="st1" d="M361.945282,280.2352295c0.1290894-65.4320831,53.1337585-118.3659058,118.2975464-118.1394501
			c65.8041077,0.2286987,118.4052429,53.1302185,117.9913025,119.114151
			c-0.4107056,65.4735718-54.038269,117.5231628-119.0266113,117.1691895
			C414.6917419,398.0276794,361.8176575,344.9224548,361.945282,280.2352295z M494.0282898,262.981842
			c-0.1029358-0.0339661-0.2059021-0.0679626-0.3088379-0.1019287c0-3.3032837,0.0002136-6.6065674-0.000061-9.9098816
			c-0.0001526-2.1573334-0.6990967-2.8625183-2.8558655-2.8630676c-8.0389404-0.0020447-16.0778198-0.0009613-24.1167297-0.0007324
			c-2.4960632,0.0000763-3.2005005,0.6999054-3.200531,3.1807556c-0.0001526,30.7958374-0.0001221,61.5916748,0.000061,92.3874817
			c0,0.3199463-0.0114746,0.6406555,0.006134,0.9597168c0.0969849,1.7586365,0.8745422,2.4853516,2.658844,2.4855957
			c8.3588562,0.0010986,16.7177124,0.0005188,25.0765991,0.0004578c2.4918823-0.0000305,3.0744324-0.5923767,3.0744629-3.1278076
			c0.0001221-17.7975769-0.0490112-35.595459,0.0568237-53.3924255c0.0146484-2.462616,0.390686-5.0880432,1.3218079-7.3393555
			c1.2168274-2.9420776,3.3249512-5.3207092,6.0113525-7.3340149c4.1456299-3.1069031,8.7352905-3.6238708,13.407135-2.7376404
			c4.8779907,0.925293,8.6814575,3.8326721,11.2021484,8.2856445c1.6170044,2.8564758,2.4136353,5.8512573,2.4086914,9.1289063
			c-0.0268555,17.7575989-0.0127563,35.5152283-0.0127563,53.2728577c0,0.3199463-0.012146,0.6405029,0.0028076,0.9597778
			c0.0814819,1.7362061,0.6443481,2.2828674,2.3609619,2.2832336c8.638855,0.0018311,17.27771,0.0019531,25.9165039-0.000061
			c1.8292236-0.0004578,2.4022217-0.5875244,2.4022217-2.4432983c0.0003052-22.1569824-0.0418701-44.3141174,0.0310059-66.4708862
			c0.017334-5.2729492-1.6397095-10.0563354-3.8730469-14.6382446c-1.703125-3.4940491-4.1990356-6.5386658-7.1047974-9.1696167
			c-3.2349243-2.9290009-6.8933105-5.2225189-11.0186157-6.6588287c-2.2467651-0.7822571-4.5625-1.5795746-6.9041748-1.8248901
			c-3.366333-0.3526611-6.7844849-0.2410431-10.1809692-0.2679291c-4.4819336-0.0354767-8.7392273,0.7972107-12.844696,2.7703857
			c-4.6677856,2.2434387-8.4775391,5.4061127-11.5799561,9.480896
			C495.2322998,260.8590088,494.669281,261.9501038,494.0282898,262.981842z M444.2790527,299.6792603
			c0-14.6382141-0.067627-29.276947,0.050415-43.9142151c0.0274353-3.4029999-2.3838501-5.6869354-5.629364-5.6690063
			c-6.598999,0.0364532-13.1987-0.0307312-19.7973938,0.0278473c-3.4598999,0.0307007-5.3787842,1.8413849-5.3794861,5.4022369
			c-0.0057068,29.4364319-0.0083923,58.8728638,0.0043335,88.3092957c0.0013428,3.1286926,2.1416321,5.3482971,5.3156128,5.3091736
			c6.598175-0.0813904,13.2033386-0.1796875,19.7950134,0.0429077c3.1453247,0.1062012,5.7307129-2.8847961,5.7042236-5.7141113
			C444.2059021,328.8764038,444.2790527,314.2774963,444.2790527,299.6792603z M411.1197815,218.6445007
			c-0.725769,9.681839,8.3834534,17.9703064,17.4262695,17.9487152c10.4637451-0.0249634,18.212738-8.066925,18.1741943-17.9502716
			c-0.0391235-10.0288696-8.1402588-17.535553-17.5220032-17.8599091
			C419.8970947,200.4614563,410.3470459,209.1370087,411.1197815,218.6445007z"/>
		<path class="st2" d="M494.0282898,262.981842c0.6409912-1.0317383,1.20401-2.1228333,1.9365234-3.0848999
			c3.102417-4.0747833,6.9121704-7.2374573,11.5799561-9.480896c4.1054688-1.973175,8.3627625-2.8058624,12.844696-2.7703857
			c3.3964844,0.026886,6.8146362-0.0847321,10.1809692,0.2679291c2.3416748,0.2453156,4.6574097,1.0426331,6.9041748,1.8248901
			c4.1253052,1.4363098,7.7836914,3.7298279,11.0186157,6.6588287c2.9057617,2.6309509,5.4016724,5.6755676,7.1047974,9.1696167
			c2.2333374,4.5819092,3.8903809,9.3652954,3.8730469,14.6382446c-0.072876,22.1567688-0.0307007,44.3139038-0.0310059,66.4708862
			c0,1.8557739-0.572998,2.4428406-2.4022217,2.4432983c-8.6387939,0.0020142-17.2776489,0.0018921-25.9165039,0.000061
			c-1.7166138-0.0003662-2.27948-0.5470276-2.3609619-2.2832336c-0.0149536-0.3192749-0.0028076-0.6398315-0.0028076-0.9597778
			c0-17.7576294-0.0140991-35.5152588,0.0127563-53.2728577c0.0049438-3.2776489-0.791687-6.2724304-2.4086914-9.1289063
			c-2.5206909-4.4529724-6.3241577-7.3603516-11.2021484-8.2856445c-4.6718445-0.8862305-9.2615051-0.3692627-13.407135,2.7376404
			c-2.6864014,2.0133057-4.7945251,4.3919373-6.0113525,7.3340149c-0.9311218,2.2513123-1.3071594,4.8767395-1.3218079,7.3393555
			c-0.105835,17.7969666-0.0567017,35.5948486-0.0568237,53.3924255c-0.0000305,2.5354309-0.5825806,3.1277771-3.0744629,3.1278076
			c-8.3588867,0.000061-16.7177429,0.0006409-25.0765991-0.0004578c-1.7843018-0.0002441-2.5618591-0.7269592-2.658844-2.4855957
			c-0.0176086-0.3190613-0.006134-0.6397705-0.006134-0.9597168c-0.0001831-30.7958069-0.0002136-61.5916443-0.000061-92.3874817
			c0.0000305-2.4808502,0.7044678-3.1806793,3.200531-3.1807556c8.0389099-0.0002289,16.0777893-0.0013123,24.1167297,0.0007324
			c2.1567688,0.0005493,2.8557129,0.7057343,2.8558655,2.8630676c0.0002747,3.3033142,0.000061,6.6065979,0.000061,9.9098816
			C493.8223877,262.9138794,493.925354,262.947876,494.0282898,262.981842z"/>
		<path class="st0" d="M444.2790527,299.6792603c0,14.5982361-0.0731506,29.1971436,0.0633545,43.7941284
			c0.0264893,2.8293152-2.5588989,5.8203125-5.7042236,5.7141113c-6.5916748-0.2225952-13.1968384-0.1242981-19.7950134-0.0429077
			c-3.1739807,0.0391235-5.31427-2.180481-5.3156128-5.3091736c-0.0127258-29.4364319-0.0100403-58.8728638-0.0043335-88.3092957
			c0.0007019-3.5608521,1.9195862-5.3715363,5.3794861-5.4022369c6.5986938-0.0585785,13.1983948,0.008606,19.7973938-0.0278473
			c3.2455139-0.0179291,5.6567993,2.2660065,5.629364,5.6690063
			C444.2114258,270.4023132,444.2790527,285.0410461,444.2790527,299.6792603z"/>
		<path class="st2" d="M411.1197815,218.6445007c-0.7727356-9.5074921,8.7773132-18.1830444,18.0784607-17.8614655
			c9.3817444,0.3243561,17.4828796,7.8310394,17.5220032,17.8599091
			c0.0385437,9.8833466-7.7104492,17.9253082-18.1741943,17.9502716
			C419.5032349,236.6148071,410.3940125,228.3263397,411.1197815,218.6445007z"/>
	</g>
</g>
</svg>
