<?xml version="1.0" encoding="utf-8"?>
<!-- Generator: Adobe Illustrator 19.0.1, SVG Export Plug-In . SVG Version: 6.00 Build 0)  -->
<svg version="1.1" id="Logo_x5F_design_xA0_Изображение_1_"
	 xmlns="http://www.w3.org/2000/svg" xmlns:xlink="http://www.w3.org/1999/xlink" x="0px" y="0px" viewBox="0 0 700 400"
	 style="enable-background:new 0 0 700 400;" xml:space="preserve">
<g>
	<g>
		<path d="M383.3364868,262.0888062c-4.5730591,2.3160095-9.2046509,4.5241699-13.708313,6.9680786
			c-14.1095886,7.6565857-28.1763916,15.3920898-42.2497559,23.1152954
			c-24.7027283,13.556427-49.3627625,27.1911316-74.108429,40.6687317
			c-17.4084778,9.4814453-34.9436646,18.72995-52.3914642,28.1395874
			c-5.7650604,3.1091614-11.4970245,6.2902832-17.1303864,9.6303406c-6.6825104,3.9621277-14.0007629,5.7677307-21.5600739,5.257782
			c-3.9753571-0.2681885-7.8855133-2.6477966-10.9895935-5.3858948
			c-7.3716888-6.5025635-12.0007477-14.184845-10.7585602-24.7080078c0.8408051-7.1229553,0.3855591-7.3125916-6.7094727-7.2825928
			c-4.5903778,0.0194092-7.2314529-1.237915-7.0296097-6.5314941c0.1614914-4.2356262-1.3377075-8.1199036-4.5830917-11.2059937
			c-1.2515411-1.1901245-1.978653-1.4837646-3.133934,0.0247498c-1.878273,2.4525146-3.3218307,4.8241882-4.2980347,8.0163269
			c-2.8617401,9.3578186-5.3615799,18.913208-10.1488647,27.6280212c-1.6791153,3.0567017-0.2711029,6.4330444,1.0158005,9.4318848
			c0.9110184,2.1229553,2.2462387,4.0733948,3.4836884,6.043335c0.8303909,1.3219299,1.8498917,2.8371277-0.0316696,3.7364807
			c-1.4476624,0.6919861-3.7378006,0.6854553-4.3455429-1.2127991c-1.7532043-5.4760742-4.8923645-10.6467285-5.16745-16.4096985
			c-0.188385-3.9468689,4.2022476-6.3771973,5.1846619-10.4116211c1.2678452-5.2064514,3.4893112-10.1806641,5.6511002-16.2384644
			c-3.7684937,2.2831726-5.9776611,5.2753296-7.4166718,7.5747986c-3.5220642,5.6280518-8.4547119,9.7798462-12.8040466,14.4749146
			c-2.3619537,2.5496826-1.8930893,3.3876648,0.2395859,5.3720398c4.2200775,3.9266663,7.4717331,8.6989136,10.6332092,13.504425
			c0.9708862,1.475769,1.8247986,3.0181885-0.2465286,4.2275085c-2.1356354,1.2469177-3.0972977,0.1040039-4.1832733-1.8332825
			c-2.2261734-3.971283-3.0844116-8.8449402-7.4614182-11.4822998c-1.9928894-1.2008057-2.2715073-4.8598633-5.2702789-4.4983215
			c-4.7544174,0.5732727-9.823349,1.0328979-13.3634033,4.6920776c-4.0375824,4.1734924-9.7976761,6.4514771-12.7083054,11.8575439
			c-0.6788712,1.2608948-2.3883095,1.5567017-3.5275154,0.6052856c-1.4609337-1.2200623-0.2302017-2.5247498,0.6698151-3.3359375
			c6.714035-6.0516968,12.5000343-13.4116516,21.5872688-16.2260437c2.4306717-0.7527771,2.2675476-1.9513245,2.9494095-4.1347656
			c2.4092255-7.7146606-1.620697-4.4672241-5.4772568-4.4921875c-13.7463722-0.0888977-27.6183167,1.2588196-41.198185-1.9707947
			c-3.7611828-0.8945313-6.1202049-2.9006653-5.8483696-7.6997375c0.5259132-9.2846985,6.1725082-14.9121399,12.7313652-20.1659851
			c3.3355064-2.6718445,6.7792511-5.1950989,10.7036705-6.9288635c11.8218956-5.2228088,23.8845673-9.8278198,37.0650177-6.4091492
			c5.4807663,1.4216003,8.9007645-3.1850281,13.7142563-3.2349854c5.4677811-0.0567017,7.0960388-3.7946167,8.6556015-8.4145508
			c2.1479111-6.362854,8.3790207-8.9251709,13.8807831-11.5068054c4.076683-1.9129333,9.0346222-1.9353638,7.7334442-8.7229614
			c-0.2395782-1.2497864,0.3629761-4.1623535,2.5485382-5.5663147c2.7426453-1.7619019,1.0141296-3.8746948-0.7705231-4.3158264
			c-7.2824783-1.7999573-9.2543335-7.8186493-10.6868057-13.6777802c-1.528923-6.2536316-1.1024628-12.7738037,1.6461105-18.8170471
			c1.5212708-3.3448029,2.1657639-7.2983551,6.2743835-9.0181122c1.4251251-0.5965118,2.6551971-1.7471466,3.9889832-0.4035034
			c1.3153839,1.325058,0.4734802,2.8969574-0.4252777,4.0348663c-1.0166779,1.2872467-2.2372437,2.5682678-3.6448822,3.3646545
			c-5.5427475,3.1358337-6.3514404,8.3785858-6.0362701,13.8465271c0.4522171,7.8455658,3.3249817,14.5312653,10.9675598,18.0692596
			c1.8734741,0.8673096,3.8510284,1.7178345,6.1566162,0.3842773c2.8276062-1.6355286,0.7274017-3.730896,0.5254974-5.2667999
			c-0.8540802-6.496933-0.3132019-12.7401276,1.8590698-18.8914948c1.613266-4.5684204,5.7975769-7.1584473,8.4291077-10.9580231
			c0.8058319-1.1635437,2.8976135-1.3708496,4.0376434-0.1258698c1.7640839,1.9264679,0.1705933,3.6708984-1.2838287,4.5552216
			c-3.6490936,2.2187653-6.5032959,4.8832703-7.9949493,9.0263367c-1.6520538,4.5885925-1.3952026,9.3817596-1.686554,14.0733185
			c-0.1867523,3.0070343,1.4732361,4.8728943,5.2186279,3.6916199c3.5873871-1.131424,7.3796844-1.6086121,11.076416-2.3990631
			c3.8890381-0.8315887,7.5205688,0.6758118,11.2113342,1.3525848c2.5494843,0.4674988,3.9068756,2.7609253,3.971283,5.1818848
			c0.0578308,2.1738281,1.2704163,4.563385-2.0599518,6.3724365c-3.5628662,1.9352722-4.7514801,6.4802856-8.6806183,8.9535828
			c-3.9245148,2.4703674-7.4392395,5.6223145-11.9020233,7.3672791c-4.2967072,1.6800537-3.2026062,6.8448486-5.9116669,9.7203064
			c-0.7163239,0.7602844,1.1670837,2.0853882,2.5757294,2.2198486c6.7144012,0.6410217,13.5562286,1.1066589,20.1033173,2.1245422
			c14.8535156,2.3092957,27.2774963-5.3832397,40.9190216-7.7204895
			c15.1450958-2.5948486,26.601059-12.6428833,39.8505402-19.0416565
			c8.8480072-4.2731018,17.3263092-9.310791,25.9776459-13.9922485
			c24.6642761-13.3464355,49.3987427-26.5655823,73.9449768-40.1255646
			c5.1250305-2.8311768,9.2394104-7.2207489,12.9674072-11.87117c1.3782959-1.7193604,3.7947388-2.5951233,5.2181396-4.2915955
			c7.3954468-8.8142395,11.2294617-19.4735413,15.1083374-30.0782013c0.9470825-2.5893097-0.1239014-2.6665344-2.7798462-3.2415009
			c-7.7844238-1.6852112-11.8453674,4.9077301-17.7540588,7.1707001c-4.1170349,1.5767517-8.3604126,1.2192383-12.4180908,2.716568
			c-2.6443787,0.9757996-5.8297424-3.5114746-5.2604065-6.542984c0.9769287-5.2021637,3.4005127-9.5994415,7.2673645-13.3017731
			c1.6795044-1.6080627,4.2597046-3.3914032,3.820282-5.7822876c-0.4777222-2.5992126-2.9463501-3.9057312-5.8812866-4.2557373
			c-2.6388245-0.3146973-4.4613037-3.0235291-7.4704895-2.9085388c-3.0913086,0.1181335-6.0942993-0.1388397-8.7454224,2.1570892
			c-1.4050293,1.2167358-3.9571533,1.2284088-4.7399902-0.4976501c-1.0198364-2.2485962,1.5559082-2.9941254,3.0816956-3.5017548
			c8.2200623-2.7349091,15.8609009-1.2710876,22.9162292,3.6289978c1.0849304,0.7535248,2.2364807,1.4261322,3.2478333,2.2676086
			c2.7588196,2.2953949,4.2784119,1.0053406,4.7497253-1.8539429c0.8789978-5.3329163-0.0883179-10.4298706-4.2401733-14.1201019
			c-4.9721985-4.4193573-10.3472595-8.4092636-17.5997925-4.595192c-0.8760681,0.4607162-1.7838745,1.3383713-2.6246338,1.2792282
			c-1.3291626-0.0935211-3.161438,0.4561462-3.828949-1.4714737c-0.7094727-2.0487366,1.1986694-1.9178925,2.1914368-2.574379
			c5.395874-3.5681686,11.1252441-1.4438629,16.1176453,0.2076874c5.4187317,1.7926025,10.303833,6.0334625,12.1559143,11.6031647
			c1.7528381,5.271225,0.4666138,12.3005219,9.6681824,9.8097687c3.5970459,4.611908,6.4713745,0.1448975,8.5695496-1.3860931
			c5.6993408-4.1586151,10.8993225-8.1955261,18.6896667-5.5643005c4.0495605,1.3677673,4.500946-3.8519897,7.2621765-5.2462463
			c7.1796265-3.6252747,7.4876099-11.8728409,11.5370789-17.6449356
			c5.1642151-7.3610992,12.0508728-12.6559448,19.386322-17.3930206c5.0697632-3.273941,10.824646-4.8818512,17.0267334-5.3199997
			c4.143219-0.2927094,7.4406128,1.2541046,10.5301819,3.167511c1.7068787,1.057106,1.7067566,3.996788,1.0016785,5.975502
			c-2.6771545,7.5130234-5.1499939,15.1367188-10.073822,21.6355057c-2.4705811,3.2608643-3.6380615,7.2268372-5.3410034,11.1634064
			c3.4832764,0.0987549,6.6367798,0.9271698,7.4398499,5.0458374c0.3102722,1.591507,1.3487549,1.7241821,2.6149902,1.2594757
			c4.2490845-1.5593872,8.670105-1.3019714,12.8269348-0.2505493c9.9303284,2.5117645,17.4520264-3.0853271,24.6729126-7.7697144
			c11.9990845-7.7841949,25.2181396-11.4094009,38.8433838-14.2829514
			c8.7087402-1.836647,17.4037476-3.6826782,26.0514526-5.8270721c12.2042847-3.026329,24.5687866-5.4090881,36.8771362-8.0085068
			c0.895813-0.1891861,2.0447998-0.9282074,2.8122559,0.0598221c1.062561,1.3679886-0.4957886,2.0500183-1.1077271,2.8409576
			c-7.9763794,10.3098679-17.4954224,19.196373-26.4804077,28.5759811
			c-7.0105591,7.3184662-13.9269409,14.7319946-21.0928345,21.8955536
			c-7.8228149,7.8202972-15.3047485,15.7397919-25.5665894,21.0300751
			c-26.0558777,13.4325714-51.5785828,27.8988647-77.3233032,41.9355774
			c-8.4705811,4.6183929-16.9673767,9.1886902-25.1329041,14.6334534c4.7796326-1.5235291,9.6812439-2.7463837,14.3161926-4.6265411
			c14.3542786-5.8227386,29.4375305-7.9377441,44.6963196-9.2386627c19.2634583-1.642334,38.5704041-1.7400513,57.8919983-1.82901
			c10.1896973-0.0468903,19.6724854,2.5818634,29.3591919,5.0704041
			c13.1330566,3.3739777,23.7355347,10.8612823,34.0270386,19.0912781c1.5128784,1.2098236,2.242981,2.9146729,2.7323608,4.6748505
			c2.133606,7.6739349,5.151001,15.0717926,5.7639771,23.1961517c1.0094604,13.3790894,5.2299805,25.8579407,10.7356567,38.1221313
			c6.2149658,13.8442993,9.8442993,28.4489746,11.298584,43.7565308
			c1.2230835,12.8739014-7.1114502,20.8059387-18.6190796,20.7935791
			c-75.8292847-0.0814819-151.6697998-0.820343-227.4840088,0.253418
			c-44.6397095,0.6322327-89.2680054,0.1506042-133.8976135,0.6947937
			c-1.8303528,0.0223389-3.6983948,0.1264038-5.4859619-0.1777039c-3.7513428-0.6381226-6.5723114-4.5044861-4.8804169-7.7747498
			c5.4451141-10.5249329,8.3332062-22.6584473,18.2520599-30.4862366
			c5.9080811-4.6626282,12.2902222-8.4373169,19.5639343-10.7220764
			c12.9087219-4.0548401,25.9571533-7.2747803,39.5546875-7.6619873c2.4930115-0.0710144,4.3792419-0.9576111,6.21698-2.6203308
			c15.7174072-14.2206726,29.7670593-29.911499,41.7608337-47.392334
			C378.5853882,267.3094482,381.1513367,265.0211792,383.3364868,262.0888062z M394.8434448,371.0530701
			c2.7782593,0,4.4056396-0.0004883,6.03302,0.000061c73.8035889,0.0239563,147.6071777,0.0494995,221.4107666,0.069458
			c6.5776978,0.00177,11.3530273-3.8580322,12.7860718-10.3468323c1.0255737-4.644043,1.0394287-9.4032593-0.3301392-13.8688965
			c-4.574646-14.9161682-9.0154419-29.8852844-15.3831787-44.1929932
			c-3.2476807-7.2974243-5.9018555-14.6736755-5.774353-23.0160828c0.1382446-9.0468445-3.6043701-17.5264893-5.6088257-26.2612457
			c-0.5216675-2.2730865-2.0689087-4.1215973-3.74823-5.8122864
			c-13.8321533-13.9259796-31.7132568-18.9299774-50.1974487-20.4405975
			c-15.5014038-1.2668304-31.2394409-0.359375-46.8985901,0.3090515
			c-23.432251,1.0002136-46.3465271,3.7951965-68.2808228,12.5048218
			c-7.0963745,2.8177948-14.9852295,3.9283142-21.3700867,8.1301117
			c-7.5779114,4.9869232-15.1236267,10.0710907-22.4500122,15.4956512
			c-9.0424194,6.6951294-16.0481567,14.8258362-22.1155701,24.0356445
			c-6.9697571,10.5795288-15.3122559,20.0558472-24.1308594,29.0680542c-4.37677,4.4728699-4.7571411,4.0812073,1.1887512,6.6130066
			c7.8871765,3.3584595,16.4907837,3.9457703,24.6157227,6.398407c7.3212585,2.2099609,13.5533447,5.7696838,16.4339905,13.296814
			c1.2381897,3.2355042,2.8616638,5.6138611,6.0527954,7.4169922c5.1421814,2.9054871,5.8458252,7.6017151,2.6479187,12.7747192
			C398.3367004,365.4715881,396.9319763,367.70578,394.8434448,371.0530701z M320.9302979,371.6558838
			c17.9951782,0,35.9916382-0.1166992,53.9847717,0.0753479c5.0106812,0.0534668,9.5059814-1.0192261,13.8746338-3.3148193
			c6.9733582-3.6641541,7.688446-12.0960388,1.2415771-16.4794617c-1.5733643-1.0697937-2.8349304-2.2437134-3.6341248-3.9727783
			c-3.1000671-6.7073059-8.4637451-10.2580566-15.6148376-11.8084412c-7.76828-1.6842346-15.8152161-2.4623413-23.0895996-5.9946594
			c-8.6751099-4.2124634-17.6959229-5.2607422-27.2415161-4.169281
			c-14.0361938,1.6049805-26.6292114,7.5054016-38.9601135,13.5225525
			c-11.0531006,5.3936157-19.5513611,14.1916199-24.0010986,26.1814575
			c-1.0110168,2.7241516-0.1903381,4.6929932,2.5116577,5.4803772c1.7154846,0.4999084,3.6222534,0.4594727,5.4435425,0.4623718
			C283.9401855,371.6680603,302.4352417,371.6565857,320.9302979,371.6558838z M512.5540161,142.769165
			c-2.7141724-0.1785736-4.7805481,1.3832397-6.84198,2.5018005
			c-25.1469727,13.6448517-50.2209778,27.4239655-75.3444824,41.1121674
			c-12.8529968,7.0027924-25.8023987,13.8289032-38.646759,20.8473358
			c-28.4281311,15.5337067-56.7893372,31.1900482-85.2306213,46.6995544
			c-27.576416,15.0379028-55.2071228,29.9764404-82.8366394,44.916687
			c-16.9243011,9.1515198-34.000061,18.0309143-50.7619019,27.4692078
			c-4.146347,2.3347778-8.9376221,3.8400574-12.9035797,7.6602173c4.1030579,0.8769836,7.6728668,1.4256592,11.1002045,2.4507446
			c2.1529694,0.6438904,3.8738403,0.2087097,5.6677246-0.7564087c8.5487061-4.5991516,17.1228485-9.1517639,25.6430969-13.8030701
			c28.5888214-15.6068726,57.148407-31.2673645,85.7384949-46.8720093
			c26.7171936-14.5823669,53.4420471-29.1509399,80.196106-43.6654968
			c16.9205933-9.1797485,33.9353027-18.1861725,50.8468628-27.38237
			c29.774231-16.1906738,59.4878235-32.4929047,89.2680969-48.6723633c3.4176331-1.8567963,7.3878479-2.9642487,3.960968-8.1626282
			C511.7852478,146.165451,512.4658813,144.358139,512.5540161,142.769165z M517.1425781,153.7376709
			c-1.4831543,0.729538-2.7999878,1.3170471-4.0610962,2.0065765
			c-20.3154907,11.1082306-40.6055603,22.2631531-60.9387512,33.3388977
			c-23.2237244,12.650238-46.4923096,25.2179565-69.7268066,37.8484497
			c-26.4095764,14.3565063-52.7975159,28.7527771-79.2049255,43.1132965
			c-26.9852905,14.6747437-53.9801941,29.3318176-80.975769,43.9877014
			c-24.1119232,13.0903625-48.2102203,26.2061157-72.372406,39.203125
			c-2.9063721,1.5632935-3.8937378,3.1630859-2.2106781,6.2178345c1.6119537,2.9257202,3.4620209,3.4325256,6.438385,1.7969666
			c9.6829529-5.3208923,19.5048676-10.3882446,29.2094727-15.6704407
			c28.674469-15.6073608,57.3001404-31.3043518,85.9792633-46.9031372
			c28.2501221-15.3654785,56.5446777-30.649231,84.8149719-45.9776306
			c15.3668823-8.3320313,30.7375183-16.6572418,46.0821228-25.0301056
			c25.3275757-13.8200836,50.6207275-27.7032318,75.9576416-41.5061035
			c13.1780701-7.1790466,26.4258423-14.2300415,39.6202698-21.3792267c1.3570557-0.7352905,3.5830078-1.441864,2.2590332-3.5525513
			C516.5377197,158.8789215,517.519165,156.4515686,517.1425781,153.7376709z M523.6980591,163.2948151
			c-7.1373901,2.6598663-13.3002319,6.7648315-19.7684326,10.2398529
			c-25.7923584,13.8568573-51.4221497,28.0158691-77.1525269,41.9886475
			c-13.3731995,7.2622681-26.877655,14.2831421-40.2400818,21.5649414
			c-24.8555908,13.5449829-49.6185913,27.2599182-74.4818115,40.7907715
			c-17.3912048,9.4645081-34.9250488,18.6667175-52.3239136,28.1173401
			c-29.9083099,16.2454224-59.7645874,32.5866089-89.6333771,48.9046936
			c-5.0200043,2.7425232-9.9550018,5.642395-15.0025482,8.3320923c-2.9793854,1.587616-1.5993042,3.5818787,0.0164948,4.3338928
			c2.8683777,1.3349609,5.5007019,2.7718811,9.3786621,0.6261292c28.9807434-16.0360107,58.199646-31.641449,87.3378754-47.3930359
			c15.5090637-8.3838806,31.0234375-16.7582092,46.5046692-25.1932678
			c28.6464539-15.6082764,57.2555847-31.2850342,85.9090271-46.8803711
			c17.2264099-9.375885,34.5353088-18.600235,51.7571411-27.9844208
			c28.3583374-15.4524384,56.6636047-31.0023193,85.0301208-46.4396973c2.9078369-1.582489,6.0985107-2.5459442,2.7598877-6.706192
			C523.1531372,166.8035278,523.6980591,165.0631104,523.6980591,163.2948151z M148.4811249,333.7012939
			c4.1253967,0.5049438,7.4988708-0.5188599,10.8076935-2.3195801
			c27.6307678-15.0372009,55.3069763-29.9908447,82.9502106-45.0051575
			c26.345047-14.3092041,52.6605377-28.672821,79.0008392-42.9908295
			c27.2056274-14.7883453,54.4150696-29.5697174,81.6420288-44.3188477
			c27.8014832-15.0603485,55.6506653-30.0328217,83.4255981-45.1418457
			c8.1968384-4.4588928,16.1264648-9.4125671,24.361908-13.7948151c2.5930481-1.3798065,3.4206238-2.4731903,1.8536072-5.0415039
			c-1.8417358-3.0186462-3.4500122-0.2210846-4.6321106,0.4159851
			c-21.5297546,11.6031036-42.9622192,23.3865662-64.4391785,35.0879974
			c-10.8815308,5.9286652-21.6549683,12.0856628-32.7614136,17.5633392
			c-11.0250244,5.4375305-20.8882751,12.8466797-32.2628784,17.7569122
			c-9.2063904,3.9742432-17.6679077,9.657196-26.520874,14.4698486
			c-35.272644,19.174942-70.5754089,38.2945099-105.8550415,57.4565582
			c-30.9248199,16.7966919-61.8361969,33.6181335-92.7441101,50.4459534
			C151.1416168,329.464447,148.809906,330.5619202,148.4811249,333.7012939z M521.8594971,136.2926941
			c-2.6881104,1.1183472-3.0618286,3.5892334-4.4381104,5.3346863c-2.7272949,3.4587402-1.9990234,5.8563232,2.2212524,7.5804443
			c2.6251221,1.0724792,2.5617676,2.4202271,1.6842041,4.578476c-1.8855591,4.6375275-0.6328125,6.6473236,4.1381226,5.7546082
			c3.9085083-0.7313385,4.1957397,0.2250214,2.5783081,3.2484283c-1.7824097,3.331665-1.5092163,5.4616089,2.9519653,5.128067
			c1.3817139-0.1033173,2.5194092-0.2992249,3.1008301,1.4911499c1.3826294,4.25737,3.6312256,4.8634949,6.9849854,2.019516
			c8.2394409-6.98703,14.916626-15.5152435,22.6688232-22.9942322c6.9411011-6.6965332,13.5784912-13.7117767,20.2548828-20.6774826
			c4.7124023-4.9165802-4.6407471-6.4346466-2.7841187-10.8233337c0.2362061-0.558403-0.4320679-1.5941086-1.4921265-1.6414261
			c-0.1539307-0.0068588-0.3845825-0.0040741-0.4555054,0.0889511c-1.8284302,2.3990402-4.6069946,1.0572128-6.8922119,1.6896286
			c-7.5963745,2.1022491-15.2672119,3.9533234-22.9533081,5.709053c-9.3875122,2.1443787-18.8256226,4.0665894-28.2280884,6.1470108
			c-2.743042,0.6069336-5.237915,1.9346924-4.9447632,5.1673584
			C516.5481567,137.3318787,519.7266235,135.2579041,521.8594971,136.2926941z M163.596817,371.1843567
			c4.3755188,1.1482544,7.1237488,1.8104858,10.3495178,0.0212097
			c12.3371735-6.8431702,24.8494873-13.3700562,37.2793732-20.0467834
			c17.3525543-9.3208923,34.7233429-18.6086426,52.0256958-28.0219727
			c25.3746643-13.8051758,50.6772156-27.7427673,76.0461426-41.5585632
			c16.2896118-8.8712158,32.6791687-17.5591431,48.9602051-26.4459839
			c28.5287476-15.572113,56.9911194-31.2658997,85.5151062-46.846756
			c18.7221985-10.2267456,37.4302063-20.484848,56.3167419-30.4009552c4.0967407-2.1509094,1.2905884-3.996933,0.1852417-5.1132507
			c-1.508606-1.5235596-3.2477417,0.5709076-4.6144409,1.3068085
			c-13.5386963,7.2900238-26.9560547,14.8047791-40.4594421,22.1611023
			c-13.368866,7.2830048-26.820282,14.4143982-40.1947632,21.6872253
			c-29.7591553,16.1825409-59.4862976,32.4239044-89.2388,48.6186676
			c-27.1673279,14.7875977-54.3390808,29.5670776-81.5305176,44.3102112
			c-27.1860962,14.7402344-54.4150085,29.4014893-81.5913391,44.1596375
			C183.3324127,360.0724792,174.1215515,365.3182983,163.596817,371.1843567z M73.0197067,343.7402039
			c7.250061-1.2818909,14.1738968-3.7854004,20.145668-8.3334656c3.54216-2.6976013,2.9975662-7.1552429,3.2696609-10.8441162
			c0.1935196-2.6235046-3.4973984-2.4478149-5.4825211-3.379425c-4.7074203-2.2091675-6.0800705-4.6403809-4.4231873-9.8988647
			c0.5326385-1.6904297,0.6382523-2.7885742-1.0807571-2.809021c-3.2896194-0.0392456-6.3089752-1.481842-9.7936859-0.9152527
			c-7.3471222,1.194519-14.60923,2.8327942-21.1631165,6.1705933c-4.3475571,2.2141724-9.3399429,3.6572571-12.7423439,7.5614929
			c-3.6886978,4.2327576-7.2852249,8.5160522-10.0597839,13.4573059c-1.9957104,3.5541992-0.7205219,7.2807617,3.022953,7.3650818
			C47.48946,342.4024048,60.1648026,344.6695862,73.0197067,343.7402039z M428.6821594,136.5176849
			c-0.5370789,5.4401398,3.6367798,9.1333618,8.3147888,7.7365875c7.2861938-2.1755219,12.7312317-6.9888458,16.5498657-13.531311
			c4.0803833-6.9908524,7.4843445-14.3060455,10.8423767-21.6852417c4.5153809-9.9224243,4.9729309-10.0895844-5.750824-10.5947342
			c-4.3262634-0.2037888-9.463623,0.4984055-12.9356384,2.7697296c-3.9764709,2.6013565-8.3091431,5.003746-11.7749939,8.5363007
			c-4.7379761,4.8291931-10.0723572,9.115715-11.8604736,16.1084595c-0.4396057,1.7192078-1.1357727,2.7941818,1.6642456,3.3585281
			C427.8921509,130.0545959,429.3222961,133.3016663,428.6821594,136.5176849z M165.8204956,317.425415
			c-6.778656-3.2446289-12.9499054-6.2140198-19.1475983-9.1272583c-0.3803101-0.1787415-1.0095215-0.0136108-1.4552612,0.1626282
			c-2.9053497,1.1488342-5.8873749,1.81604-8.956131,2.4359436c-1.9931641,0.4025879-6.5367432,0.350647-6.0257721,4.161438
			c0.7347717,5.4798889,0.8148346,10.9286499,0.8699799,16.4082947c0.0175934,1.748291,0.7198181,2.9971924,2.5481415,3.0473022
			c4.2478027,0.1163635,8.8599396,1.548645,11.417038-3.8887024c1.3739777-2.9215393,4.4531555-4.2126465,7.226181-5.690155
			C156.6270294,322.6278381,160.8811646,320.1784668,165.8204956,317.425415z M135.4261169,305.627655
			c-0.1148529-0.4494324-0.0909576-0.8711853-0.2873688-1.0474854c-3.1075897-2.7889404-2.3396454-6.1660767-0.7840881-9.096405
			c1.3738861-2.5881348,3.8193207-4.0106506,7.0269928-2.1719971c0.939209,0.5383301,2.1622009,0.0123291,2.3403473-1.120697
			c0.3704681-2.3561096,3.4667969-3.7293091,2.6937714-6.1466064c-0.7789154-2.4356995-3.6099548-0.3907471-5.2334442-1.4742126
			c-0.4086609-0.2727356-0.9008484-0.4320679-1.2788391-0.7373657c-4.7508698-3.8366699-9.0511017-2.1450195-13.2451706,1.0418396
			c-0.8720703,0.6626892-1.8498306,1.030304-2.8818588,1.4388733c-4.4703217,1.7696838-8.4451752,4.3170166-10.8208923,8.87677
			c-1.6183624,3.1061096-1.0029984,5.672699,0.9003143,8.2658081c1.9250107,2.6227112,3.7472839,0.731842,5.6190643-0.0613098
			c2.7610931-1.1699829,6.4176178-0.4009094,7.3172302,1.3293457
			C129.6377869,310.1973267,132.3803101,307.2383728,135.4261169,305.627655z M394.1893921,193.0571442
			c3.6875-1.360733,6.6913757-2.3322906,8.1316833-5.844574c3.1479492-7.6763611,8.9648743-12.5247498,16.6273499-15.4950256
			c2.8179321-1.0923462,7.6391296-1.6368256,7.3161621-4.8198547c-0.3128967-3.083725-5.1994629-3.4269867-8.2429199-4.2636566
			c-9.5886841-2.6360321-20.7581482,3.6835785-21.7877502,12.0816956
			C395.504364,180.6665039,395.9615479,186.7223816,394.1893921,193.0571442z M400.260498,142.0619202
			c-7.1471252,0.3473969-11.6942749,5.7070007-17.3925781,8.7948303c-3.5267944,1.9111176-1.232605,5.253952-1.9722595,7.8480072
			c-0.1325684,0.4649963-0.4051819,0.8970337-0.4922791,1.3666992c-0.2391052,1.2894287-1.7047424,3.5966797,0.4854736,3.5040283
			c2.1845093-0.0924225,5.4114075,2.1632538,6.8700256-1.621521c1.7129517-4.4447784,6.5865784-5.2612305,9.5431213-1.5876617
			c0.8976746,1.1154175,0.9927368,3.902771,3.2733765,2.0061035c1.3649902-1.1351471,3.6185608-2.3651276,1.6040039-5.2333984
			c-1.7533264-2.4963684-0.1609802-5.079071,1.9863586-6.6884155c1.7073364-1.2795868,2.9765015-2.398941,1.7653198-4.5151672
			C404.6878967,143.7632446,403.2095032,141.7359161,400.260498,142.0619202z M204.3283844,296.7098389
			c-13.4467163,4.9284668-26.9473419,6.2047424-40.9041138,5.901123c-3.791687-0.0825195-9.0338135-2.2931824-12.4185181,2.7040405
			c1.7810974,1.2953796,3.3432007,2.8372803,5.2161255,3.7190552c6.1008911,2.8723145,12.3085327,6.5921631,19.2671967,3.0760193
			C185.2132874,307.1965637,194.7254791,301.8634338,204.3283844,296.7098389z M451.0934753,162.4982758
			c-8.8929749-1.3045654-17.2530823-3.5762177-25.7677917-4.8408813c-1.7540588-0.2605133-3.8701172-3.1951904-5.0844421-0.6231384
			c-1.2843323,2.7205048,2.1504822,3.0025024,3.8278198,4.0429535c0.4179993,0.2592773,0.9249878,0.3702393,1.3670044,0.5964355
			c1.9862671,1.016449,5.3428955,1.2502441,5.1434326,3.8686371c-0.1965027,2.5788574-1.6474304,5.2710114-4.5831604,6.6326447
			c-4.0568542,1.8816528-8.0232544,3.9754486-11.934845,6.1469116c-2.4356995,1.3521576-4.3851624,3.2396088-5.1014709,7.1007538
			C423.5054626,177.508606,437.299469,170.0034485,451.0934753,162.4982758z M159.0546417,259.2393188
			c3.8310699,2.4173279,5.3366547,4.5906067,2.150238,8.1375122c-4.1937408,4.6682739-13.3299561,9.8537598-21.0726166,5.3143616
			c-0.870224-0.5101929-1.9937897-2.2653503-3.256546-0.2842407c-0.435257,0.6828613-1.008728,1.2121582-0.5896149,2.1914673
			c1.5338745,3.5840454,7.2603912,6.6378784,11.2460327,6.1382446c10.3148804-1.2931519,16.8254089-8.5479431,23.5317383-15.265564
			c1.8944855-1.8976746,2.7772064-4.6468811-1.9690399-5.9921265
			C165.7985229,258.5447083,163.0250549,258.8572083,159.0546417,259.2393188z M367.1416931,206.992218
			c5.0586548-1.2060242,9.3663635-3.7304688,13.6428528-6.3240814c2.9259338-1.7745361,6.5855713-2.6360931,8.4296875-5.7945251
			c3.6582031-6.2653809,4.3691406-13.0571747,2.8981323-21.2172699
			C381.8189087,183.8773193,379.4533997,199.217453,367.1416931,206.992218z M103.9847412,304.9179077
			c-4.8672104,0.2623291-8.5776825,2.5231934-11.8179932,6.1316223c-1.3833694,1.5405273-3.5375443,3.1381531-1.7479935,4.6748047
			c2.0506516,1.7608337,7.3779678,3.411499,7.5094299,3.1575317c2.9786453-5.7548523,7.4829025-3.5559082,11.7085724-2.6143494
			c3.1316605,0.6977539,3.8608627-1.2246704,3.8948135-3.6012573
			C113.5980072,308.0160522,109.80159,305.0122375,103.9847412,304.9179077z M167.8733978,340.4237671
			c-6.630127-2.9256287-12.2312012-3.3904724-17.8466187-1.3887329c-3.8730774,1.3806458-6.3761444,6.4477844-5.5946503,10.6558533
			c0.1989136,1.071167,0.6518402,2.8466187,2.6499023,1.7828369
			C153.6727295,347.9645081,160.2683716,344.4645996,167.8733978,340.4237671z M428.6607361,154.6699219
			c9.1915588,3.147171,17.9657898,2.6329346,26.8329773,3.8435822c0.6016846-1.1675415-0.0116272-3.068985,0.3675842-4.7918091
			c0.978302-4.4443512-0.8666992-4.8380127-4.768219-4.2390137
			C443.8074951,150.601181,436.7830811,152.7246246,428.6607361,154.6699219z M425.2647095,134.4851685
			c0.2614746-0.7578735-0.535675-1.5819092-2.1313171-1.7663574c-5.5900269-0.6461792-13.0937805,5.8388672-13.2477417,11.5094299
			c-0.0900879,3.3197021,2.1899719,5.3925018,4.8670654,6.0416107c2.8976746,0.7025909,3.1223145-2.5640411,3.4858398-4.339325
			c0.4227295-2.0644379,0.977417-4.1887512,2.9177856-4.412735
			C425.3673401,141.0316467,424.4503479,137.9000397,425.2647095,134.4851685z M145.7552185,270.9654541
			c3.9730835-0.0875244,8.2516479-0.6231995,10.9872894-4.6341858c0.7416687-1.0874634,2.9887848-1.327301,2.0301514-3.4693909
			c-0.7659302-1.7113953-2.1719818-2.4533386-3.8632355-2.8076477c-4.621109-0.9680481-8.2599945,0.7766418-11.7969666,3.6940613
			c-1.4795227,1.2203369-3.7672577,1.6686401-2.7603455,4.0622864
			C141.1829529,269.7856445,142.7046204,271.4949036,145.7552185,270.9654541z M374.4121094,149.860611
			c-0.2359619,1.1932373-0.427948,1.6592255-0.4029846,2.113266c0.4057922,7.3809052-8.0777283,15.5997162-15.397583,14.9136353
			c-1.5375671-0.1441193-2.8564453-0.526062-3.5346069-2.1248474c-0.2082214-0.4909515,0.3679199-1.975708-1.182312-1.1570587
			c-3.1875305,1.6832581-3.1134033,5.1006622-3.3511047,7.8189392c-0.1303406,1.4905853,2.8510437,2.0917358,4.5736389,1.5936584
			c4.1335449-1.1951294,8.3657227-2.3359528,12.1968994-4.2294769
			C374.9775391,165.0010986,377.8843384,157.3508148,374.4121094,149.860611z M459.1764526,157.5019531
			c7.902771-2.8575134,14.0868835-7.3643799,21.3792114-10.9841919
			C465.8339844,143.1391449,461.7579041,145.1742554,459.1764526,157.5019531z M357.2527161,159.9199829
			c-0.2304077,2.9262848,0.9816895,3.8180695,3.8366089,3.0151825c3.9476624-1.1102142,6.5348816-3.8352966,8.4494934-7.1428833
			c1.3735962-2.3729248-0.1420898-4.4322052-2.3959961-4.9061279
			C363.5433655,150.1293182,357.3380127,156.0861359,357.2527161,159.9199829z M107.7374878,324.4628601
			c-0.764595-1.5385437,0.9586029-4.6449585-2.7596283-5.4160156c-2.7907181-0.5787354-3.9574127,1.634613-4.2245941,3.105957
			c-0.6629028,3.6505432-0.5510025,7.4517822-0.6189117,11.1948547c-0.023056,1.2713013,1.0461349,2.7994995,2.0290222,1.4402161
			C104.3718643,331.7336121,108.4867325,329.6328735,107.7374878,324.4628601z M126.4526749,319.3924561
			c-0.3408966-3.7887878-0.6020126-7.1865234-1.9047699-10.3780823c-0.9931335-2.4330139-2.7354813-2.5760498-4.7123795-1.114624
			c-1.6802979,1.2421875-4.0376434,2.3441772-1.5145187,4.8943176
			C120.6841278,315.1824646,122.6834641,318.0368652,126.4526749,319.3924561z M428.6654968,151.755722
			c1.3247681-1.398819,4.643158,0.2290497,5.1485901-2.1395874c0.5240784-2.4559631-2.2132568-2.6580505-4.0812683-3.2773743
			c-1.2139282-0.4024506-2.1905823-1.4911652-3.3954773-1.9571228c-1.7728271-0.6855927-3.543335-0.8235321-4.6307983,1.3231049
			c-1.072876,2.1178589-0.3312988,3.1530762,1.7105713,4.1968536
			C425.0395508,150.730957,426.5661316,151.562973,428.6654968,151.755722z M152.6327972,299.6760864
			c-4.4465485-3.3347778-8.5943909-2.3958435-12.4358368-3.0982666c-2.1580353-0.3945923-2.6176147,1.1772461-3.0802002,2.406189
			c-0.5119019,1.3599854,0.6688995,1.8737488,1.8614502,2.3699036
			C143.725769,303.32901,147.7034607,300.98349,152.6327972,299.6760864z M445.9639282,145.9235382
			c4.0966797,0.3482971,7.3315735-0.1746826,10.5111389-1.1022797c1.5720825-0.4586487,1.9442749-1.8323517,1.7713013-3.1686096
			c-0.262085-2.0248871-1.7855225-1.4236603-3.065094-1.1611328
			C451.7700806,141.1914368,448.5720215,142.258667,445.9639282,145.9235382z M387.1892395,172.9160156
			c3.6494141-1.848587,6.2851257-4.2841187,7.0979309-8.2931519c0.2542114-1.2539825,0.4359436-2.8444214-1.3850098-3.065567
			c-1.2715149-0.1544189-2.4669495,0.3274078-3.0039063,1.8381653
			C388.833252,166.3921509,387.3527527,169.2557526,387.1892395,172.9160156z M412.0131531,155.7688599
			c-0.4971008-1.5882111-0.610321-3.7853088-3.3559265-3.7838745c-1.7129211,0.0009003-3.3833008,1.0456085-3.3101501,2.4283142
			c0.1517029,2.8661499,3.0912781,2.3857269,4.975708,3.1098785
			C411.7336121,158.0653229,412.0686646,157.2429199,412.0131531,155.7688599z"/>
	</g>
</g>
</svg>
