<?xml version="1.0" encoding="utf-8"?>
<!-- Generator: Adobe Illustrator 19.0.1, SVG Export Plug-In . SVG Version: 6.00 Build 0)  -->
<svg version="1.1" id="Seo_x5F_help_xA0_Изображение_1_"
	 xmlns="http://www.w3.org/2000/svg" xmlns:xlink="http://www.w3.org/1999/xlink" x="0px" y="0px" viewBox="0 0 700 400"
	 style="enable-background:new 0 0 700 400;" xml:space="preserve">
<g>
	<g>
		<path d="M321.4602661,314.2406921c1.6204834,4.4592896-0.1450806,8.7520752-0.7661743,12.8035583
			c-2.0741577,13.5300293-5.6606445,26.7647705-10.7390747,39.5217896c-1.0162659,2.5528564-1.592804,4.7175903-0.0451355,7.2922974
			c0.5691833,0.9468384,0.347229,2.3475037,1.9958191,2.1146545c1.3086243-0.184845,1.7975159-1.1206055,2.1683655-2.3599243
			c4.2452698-14.1864319,9.8365173-27.9707947,12.1715088-42.727417c0.9004517-5.6906738,2.2575073-11.3596497,1.7116089-17.0958862
			c-0.4016724-4.2209167,0.6516113-5.7426147,4.9558716-7.196991c11.4775696-3.8781738,22.5988159-8.8099976,33.8674927-13.3085022
			c1.512207-0.6036682,3.0578308-1.1236267,4.852478-1.7789307c1.1532898,14.0338135,1.1212769,27.519989-1.8636169,40.9642334
			c-2.835083,12.7696838-7.4915466,24.916687-11.7070923,37.2295532c-1.0057983,2.9378052,2.0234375,4.8645935,3.6059265,6.0430603
			c1.9380798,1.4433289,2.9111633-1.0761414,3.669281-3.1469116c5.6034241-15.3059998,11.4468384-30.5707703,14.2219238-46.684021
			c1.9611511-11.387146,2.6019897-22.9584045,0.6293335-34.4873047c-0.3939819-2.3028564,0.1808472-3.6475525,2.5369568-4.5847473
			c12.9720764-5.1598206,25.9076233-10.4147644,38.7879333-15.7992554c2.4593506-1.0281067,3.1621094,0.1733398,3.2380676,1.9735718
			c0.5991516,14.2012939,1.9823914,28.3422241,0.4759827,42.6358643
			c-1.6847229,15.9851379-7.3720398,30.7189636-12.4795532,45.6756287
			c-1.3594971,3.9812012-3.2849121,7.7683411-4.6700745,11.7423401c-0.2493591,0.7154236-1.6189575,2.202301-0.0040283,2.8313904
			c1.1080627,0.4316711,2.54776,0.5278015,3.1101379-1.4024048c1.0783386-3.7012329,2.6107788-4.0811768,3.7852783-0.0617065
			c0.5603027,1.917572,1.854248,1.552124,3.1098022,1.6150818c1.5122681,0.0758972,2.4033508-0.6521912,2.9606934-2.0990601
			c7.0873108-18.3986816,14.7140198-36.6802063,17.8471375-56.2626038
			c1.8527222-11.579895,1.8583069-23.3349915,0.3850098-35.1066895c-0.7713623-6.163269-0.4284058-12.4615173-2.1351929-18.5525208
			c-0.5172729-1.8461609,1.1329651-2.6755981,2.4129639-3.3577576
			c12.4305115-6.6247406,24.8819885-13.2103882,37.3521729-19.7601929c2.374054-1.2469482,4.595459-1.54216,5.0078735,2.0656281
			c1.7571106,15.3709564,3.8977051,30.7535553,3.8952942,46.2231293
			c-0.003479,22.3560181-5.1400452,43.7792664-13.7897644,64.3692932
			c-2.6450806,6.2964172-5.3374939,12.5749512-7.8253784,18.9332581c-0.3772888,0.9642334-1.4634705,2.6812439-0.2154541,3.3431091
			c1.6064758,0.8519592,1.9445496-0.7663879,2.4836731-2.0908508c0.9494019-2.3322449,2.9677734-2.5985718,3.6226501-0.1374817
			c0.974823,3.6634827,3.5471497,2.1820068,5.5791016,2.4184265c2.2183533,0.2580566,2.7315979-1.1903687,3.5989685-3.099823
			c8.0487366-17.7184143,15.1898804-35.7520142,19.2192383-54.8451538c1.4527588-6.8838501,2.744873-13.851593,2.6145935-20.9818115
			c-0.2454529-13.4376831,0.7592163-26.921875-1.0711365-40.2979736
			c-1.2637939-9.2357941-1.6461487-18.5919952-3.7909851-27.7169952c-0.3262634-1.38797-0.988678-3.0857849,1.0685425-4.3594055
			c12.9828796-8.0377808,25.5552673-16.7593689,40.0489807-22.1217651c3.1207275-1.1546173,3.3006592,0.1961975,3.5675049,2.3471527
			c1.4746094,11.885025,3.1286621,23.7351532,4.1934814,35.6851959c1.1028442,12.3774261,2.043335,24.7176666,1.8059082,37.1347504
			c-0.4680176,24.4838867-5.6784668,47.9953308-14.225647,70.8929138
			c-3.4172974,9.1549072-7.940979,17.8162842-11.4179688,26.9533691c0.4401855,0.1424561,0.9091797,0.4220276,1.0292358,0.3139954
			c2.0151367-1.8137512,3.6380005-7.3135071,6.3479004-0.2400513c0.4867554,1.2705078,2.7452393-0.2173767,3.5352173-2.010437
			c7.1033325-16.1236877,13.383728-32.440979,18.2661743-49.4897156c6.9616699-24.309021,7.2938843-48.9252625,6.3774414-73.6179962
			c-0.6124268-16.4990387-2.0134277-33.0856628-5.5286255-49.3629761c-0.7902222-3.6591034-0.5739136-7.5296783-0.90802-11.2951813
			c-0.2451782-2.7640533,0.8892822-4.3159637,3.2473755-5.9665985c9.3726807-6.5606995,18.4508667-13.5406494,27.6949463-20.2874603
			c2.8074951-2.0490875,5.7619019-3.9053192,8.7147827-5.744339c2.7667236-1.7230835,4.4436035-0.5007935,4.7969971,2.3719025
			c1.1220093,9.1225586,2.1242676,18.2609711,3.0689087,27.4039764c1.367981,13.2403107,3.4152832,26.4700165,3.7601318,39.7409515
			c0.4047241,15.5776672,0.699585,31.182251-0.484375,46.8189087c-1.0697632,14.1292419-3.0931396,27.9874573-6.2017822,41.7724304
			c-2.4417114,10.8276367-5.8984375,21.3103333-9.4066162,31.8154907
			c-3.156189,9.4512634-7.675354,18.2978821-11.3413696,27.8291016c1.819519,0.3523254,3.4768677,1.3037415,4.4830933-1.6001892
			c0.8583374-2.4770203,1.9915161-1.888031,3.3327026,0.0867615c2.3795166,3.5036316,8.0081787,2.6235046,9.6638794-1.3924255
			c6.9454956-16.8467407,13.7202148-33.7657776,17.7539673-51.6016846c2.8839111-12.7519226,5.27771-25.5521851,6.840271-38.6022034
			c2.5810547-21.5552673,2.0743408-43.1214752,1.4968262-64.6349182
			c-0.4572754-17.0365143-2.2393188-34.0931702-4.4823608-51.0705414
			c-1.2011719-9.091217-1.7542114-18.2887421-3.2064819-27.3769531c-0.3860474-2.4158325,0.5010376-3.9957886,3.0003052-5.503479
			c3.6085205-2.1768036,6.6912842-5.3584595,9.6578979-8.4391708c7.145752-7.4204865,14.1773682-14.9428635,22.8504028-20.6590042
			c3.75177-2.4726868,4.6974487-7.7853241,9.7733765-9.4957199c0.9660034,3.3896484,1.2421265,6.9036636,1.3265991,10.078392
			c0.3215942,12.0727921,1.8408813,24.0499115,2.3904419,36.1059113c0.647583,14.2068634,1.0786133,28.4462585,2.048584,42.6136169
			c1.196106,17.4696198,1.0465088,34.920517,0.508667,52.3177338c-0.5269775,17.0475159-2.0475464,34.1070709-4.5698853,51.0684967
			c-2.0941772,14.0827026-4.5283203,28.0765991-8.3205566,41.7547607
			c-3.3895264,12.2256775-6.71875,24.5273132-11.9968262,36.1607971c-2.6866455,5.9216309,0.2869873,10.459137,6.7619629,10.5866699
			c0.9991455,0.0196838,1.9996948,0.0180664,2.9968262,0.0751343c0.7193604,0.0411682,1.2147217,0.3755798,1.279541,1.1844788
			c0.0852661,1.0643921-0.4755249,1.4909668-1.4454346,1.5402832c-3.2510376,0.1654663-6.8572388-0.8030701-9.0016479,2.9222412
			c-0.1123047,0.1950378-1.6682129-0.0175476-1.758606-0.296936c-1.2784424-3.9535522-4.5576782-2.501709-7.0695801-2.5213928
			c-13.99823-0.1098328-27.9979248-0.0818176-41.9967041-0.0157471c-1.7710571,0.0083618-4.0336914-0.9345703-4.7692871,2.1371155
			c-0.2940674,1.2278442-2.5750732,1.1899109-2.8792114,0.2997742c-1.3010254-3.8083191-4.3427124-2.3970947-6.6998291-2.4173889
			c-13.4981689-0.1162109-26.9979248-0.0895386-40.4966431-0.0158691c-1.7630615,0.009613-4.0396729-0.9773865-4.8189087,2.0831299
			c-0.3453369,1.3562622-2.5170898,1.1867676-2.7943115,0.2186279c-1.0007324-3.494812-3.6855469-2.2809143-5.7442017-2.2940369
			c-14.3318481-0.0914917-28.6647339-0.0866394-42.9967041-0.0055847c-2.0670776,0.0117188-4.7486572-1.1427307-5.6766968,2.3222656
			c-0.2597351,0.969696-2.2694702,0.8937073-2.5246887,0.1383972c-1.2640381-3.7409363-4.2913513-2.4390564-6.6768494-2.4560547
			c-13.6651001-0.0974731-27.3313904-0.0756531-40.9969177-0.0123291c-1.7798767,0.0082397-4.0241699-0.906311-4.7849121,2.1227112
			c-0.3144836,1.2521667-2.585968,1.2001953-2.8807373,0.356781c-1.3020325-3.7253723-4.2862244-2.4508667-6.6690674-2.467865
			c-13.4984436-0.0963745-26.9981384-0.0819397-40.4968262-0.0030823c-1.7473755,0.0102234-4.1139526-1.0437317-4.7972717,2.066925
			c-0.226532,1.03125-2.0845947,1.275177-2.309021,0.3524475c-0.9335938-3.8381653-3.8782349-2.3829956-6.0166931-2.4039917
			c-12.3313599-0.1209412-24.6648254-0.1008606-36.9967041-0.0102844c-1.7127686,0.0125427-4.125885-1.1289673-4.7264404,2.0816345
			c-0.1905212,1.0185242-2.0499878,1.2727966-2.28125,0.2961121c-0.8335876-3.5206299-3.4830627-2.3763733-5.5378723-2.3889465
			c-12.3320618-0.075531-24.6650391-0.0701294-36.9971619,0.0036926c-1.5726624,0.0093994-3.7824707-1.0004272-4.2324829,1.9980164
			c-0.1713257,1.1416016-1.9859009,1.3273926-2.2125244,0.4095764c-0.9460754-3.8314209-3.8905029-2.3685913-6.0281982-2.3893433
			c-12.4980316-0.1211853-24.9980316-0.0936584-37.4967499-0.0155945c-1.5627441,0.0097351-3.7908783-1.0366821-4.2509155,1.9666443
			c-0.1818848,1.187439-1.9881287,1.3339233-2.2051544,0.4630432c-0.9451141-3.79245-3.8654938-2.3981628-6.0164948-2.4180603
			c-12.3314819-0.1141357-24.6650391-0.1105042-36.9966736-0.0045471c-2.2103119,0.0190125-5.0823364-1.275116-6.2050934,2.3263245
			c-0.3023682,0.9699097-2.355957,0.8616333-2.5777588,0.2832336c-1.6538696-4.312561-5.2674255-2.5483704-8.0519562-2.5889282
			c-11.6634521-0.1699524-23.3341141-0.2306213-34.9949951,0.0118713c-4.2318878,0.0880432-5.9285889-0.9371643-5.7504425-5.5339966
			c0.3546906-9.1523438,0.1896667-18.3293762,0.0496674-27.4933167c-0.0385971-2.5265503,1.4047775-5.7295227-2.479866-7.1630859
			c-0.7511063-0.2771912-0.7787018-2.2736206,0.1930695-2.5315247c3.4925156-0.9270325,2.2685013-3.6380615,2.2925797-5.6882629
			c0.111557-9.4980774,0.0862885-18.9984436,0.0208588-28.497406c-0.0146484-2.1261902,0.9217834-4.6910706-2.3500824-5.6962891
			c-0.9918365-0.3046875-0.8348236-2.3761902-0.2900848-2.5846252c4.3169098-1.651825,2.5510406-5.2713928,2.5972824-8.0619812
			c0.1766663-10.6630554,0.1199036-21.3312378,0.0222855-31.9963226c-0.0158539-1.731369,1.1194-4.1630554-2.0170898-4.8060913
			c-0.9988556-0.2047882-1.1366119-1.6157074-0.3156662-1.8640594c3.6331253-1.0991211,2.3101349-4.0055847,2.3299255-6.2187347
			c0.1087799-12.1649323,0.1063843-24.3317871,0.0023422-36.4967804c-0.0190125-2.2231293,1.2543564-5.10112-2.3557281-6.2210541
			c-0.8780136-0.2723846-0.906189-2.2835083-0.1746292-2.5530396c4.1393433-1.5251007,2.4797363-4.9564514,2.5093231-7.5783386
			c0.1522827-13.4974365,0.1016312-26.9976349,0.0323792-40.4964294c-0.0090637-1.7665558,0.9516754-4.035553-2.1118851-4.7843323
			c-1.2543106-0.3065643-1.2047348-2.5913696-0.3628464-2.8817749c3.7539673-1.2948456,2.4471741-4.2951202,2.4647369-6.6744537
			c0.0996552-13.4984055,0.0907822-26.9982071,0.0032883-40.4967804c-0.0134506-2.0757523,1.1829605-4.831337-2.3250122-5.7081451
			c-0.7625961-0.1906128-0.8239441-2.0183868-0.3979721-2.1682587c4.977066-1.7511978,1.9512558-5.8913651,2.7682114-8.8474808
			c0.3813858-1.3800583-1.0100937-3.6345825,1.7803421-3.8289261c2.911438-0.2027588,1.7703323,2.0972672,2.0738831,3.509079
			c0.6800613,3.1629257-2.0360641,7.3557205,2.8010712,9.322464c0.1457367,0.0592499,0.0179062,1.6588211-0.2573242,1.7552109
			c-3.8664551,1.354187-2.4766464,4.6042709-2.4975052,7.1443329c-0.10672,12.998291-0.0137787,25.998085-0.0679474,38.9970322
			c-0.0199203,4.7803497,1.0453262,9.2890167,0.5275116,14.3912659
			c-1.4564667,14.3512573-0.5131454,28.9465637-0.5026169,43.4456329c0.0013962,1.9176788-0.437645,3.9521637,2.3514404,4.675827
			c1.0218277,0.265152,0.8613205,2.3226776,0.2644348,2.5627289c-4.2559509,1.7116394-2.5088806,5.31633-2.5488663,8.1100464
			c-0.1717148,11.9967804-0.1022491,23.9975586-0.0419464,35.9964905c0.0091248,1.8157501-0.8701782,4.1273041,2.0954285,4.8574524
			c0.898262,0.2211609,1.1422348,1.611969,0.1950226,1.8548889c-3.5087509,0.8998718-2.2507324,3.6423035-2.2700729,5.6793976
			c-0.1075974,11.331604-0.0963593,22.6651001-0.0040894,33.9969482c0.0141602,1.7383423-1.0728836,4.0653381,1.9955978,4.8534241
			c1.3693848,0.3517151,1.279274,2.6056824,0.5705719,2.8763428c-4.1070099,1.5685425-2.4916,4.965271-2.5464249,7.6112976
			c-0.1795197,8.662384-0.1544189,17.3323059-0.0099564,25.9960022c0.0391235,2.3460693-1.405365,5.3959045,2.3974457,6.6437378
			c0.9532776,0.3128357,0.7221985,2.3381348-0.0071411,2.5493469c-3.6777191,1.065033-2.3679276,3.9712524-2.3976364,6.1934814
			c-0.1203156,8.9978027,0.0624695,18.0003662-0.1123047,26.9963989c-0.0581055,2.9902649,0.6959991,4.0383911,3.8688583,3.9907532
			c12.1631393-0.1827087,24.3468628-0.4271851,36.4871826,0.1300964c3.8987732,0.1789551,3.1339569-3.6104126,5.4705658-4.1216431
			c3.1380768-0.6865845,1.2199249,5.0107727,4.9867554,3.9898682c1.5187225-0.4116211,2.7470551-0.5289917,3.3877411-2.2563477
			c2.4838715-6.6967468,6.7030945-12.6815186,8.069519-19.8572998c0.2691498-1.4134216,1.0329895-3.0109863,2.8559875-3.0010376
			c8.2968903,0.0452271,15.8681488-3.255249,23.6528931-5.3467407c5.4409485-1.4618225,11.3785706-0.7486877,16.4119873-3.855072
			c0.7380524-0.4555054,1.6635895-0.3152161,2.216629,0.4831848c0.4041748,0.5835266,0.0787354,1.0708618-0.2283325,1.7232056
			c-3.7413483,7.9482422-4.6126862,16.9442444-9.011734,24.6746521c-1.4529266,2.5531921,0.8008728,4.666626,1.4808197,6.8502502
			c0.2670441,0.8575439,2.7436066,1.318512,3.6311646-1.1924438c3.670105-10.3828735,8.6364136-20.3528137,9.5580444-31.5819397
			c0.1355133-1.651123,1.0440216-3.3060608,2.96315-3.4939575c8.6551666-0.8473816,16.5213165-5.0850525,25.1743774-5.8309021
			c5.1848907-0.4468384,10.2876434-0.9668884,14.7223663-4.072876c0.6469421-0.4531555,1.5013123-0.9696655,2.256134-0.2627563
			c0.6531677,0.6116943,0.6052551,1.4826355,0.3902893,2.3367004c-3.0173035,11.9862366-5.3569031,24.1973572-10.3680115,35.5614014
			c-1.546051,3.5061646,0.3355713,6.0271606,1.561554,8.2649231c1.105835,2.0185242,3.0226135,0.3778076,3.6711426-1.7049866
			c3.9707336-12.7521362,9.1013184-25.1616821,11.0360413-38.5097961
			c1.3690491-9.4455566,4.0897522-11.281189,13.8476257-13.0974731c9.7929077-1.8227539,19.3727417-4.7893372,29.0485535-7.2443848
			C319.7973633,314.5308228,320.6099243,314.408783,321.4602661,314.2406921z M592.9797974,376.0719604
			c11.84021,0,22.9971924-0.010437,34.1541748,0.0097961c1.9710693,0.0035706,3.1920776-0.4024658,4.0378418-2.6548157
			c8.375061-22.3049011,15.7683716-44.7850647,20.2474365-68.3474731
			c4.3778687-23.0299377,6.3168335-46.2150879,7.4175415-69.4655151
			c0.7119751-15.0364685,0.5057983-30.1705322-0.5032349-45.3074036
			c-0.9776611-14.6654358-0.9966431-29.4128265-2.2060547-44.1006012
			c-0.9345093-11.3493042-1.0795288-22.7706528-2.2642212-34.0878754c-0.3375854-3.223999-0.2097168-6.739975-1.4593506-10.4965591
			c-3.2073364,2.9460983-6.0770874,5.4194794-8.7628174,8.0786972
			c-9.0836182,8.9938507-17.9794312,18.1826706-27.2449341,26.9832916
			c-1.9393311,1.8420105-2.6793823,3.4369965-2.4755859,5.8426819c0.6385498,7.5385895,1.3313599,15.1260376,2.3408813,22.5653992
			c2.4161987,17.8060455,3.9065552,35.6936035,4.4521484,53.5713043c0.7420654,24.312973,0.9700317,48.6855316-2.6920166,72.9145966
			c-2.0539551,13.5897217-4.6931152,27.0335388-8.5814209,40.1723633
			C605.0485229,346.5895691,599.7753906,361.1561279,592.9797974,376.0719604z M591.6898193,160.4470062
			c-12.78125,9.5298767-24.8616943,18.5363007-36.9405518,27.5447083c-1.1088257,0.8269348-2.0993652,1.7663269-1.6749268,3.3211517
			c1.2575073,4.6062012,1.2782593,9.3948212,2.0865479,14.0504913c2.5050049,14.4284668,4.1265259,29.0074158,4.5444946,43.5680389
			c0.5029297,17.5191956,1.1871948,35.1122742-1.6714478,52.6214905
			c-2.4024658,14.7148438-6.0846558,29.0057678-10.9660645,43.0688171
			c-3.6817017,10.6068726-8.6975098,20.6589355-12.9179688,31.4505005c11.6429443,0,22.8036499-0.0973206,33.9603271,0.0687256
			c2.7763062,0.0412903,3.8297119-1.4489441,4.6995239-3.5053711c6.9725342-16.4829712,13.262085-33.1579285,17.887085-50.5262451
			c5.1460571-19.3245239,7.5949707-38.9334412,8.2861938-58.7767029c0.7323608-21.0245667-0.760437-41.9864197-2.7820435-62.9355927
			C594.940979,187.3404083,592.8798828,174.396637,591.6898193,160.4470062z M481.1212463,376.0712891
			c11.7770386,0,22.9374084-0.102478,34.0935364,0.0711365c2.8380737,0.0441895,3.8468018-1.5870972,4.6311646-3.6014404
			c3.4916992-8.9675293,7.6490479-17.6429749,10.9934692-26.693634
			c7.7836304-21.0639343,12.3030396-42.7245483,13.1760864-65.1134033
			c0.4835205-12.4028015-0.8973999-24.7508392-1.756897-37.1248322c-0.8997803-12.9542847-3.102356-25.6919403-4.5304565-38.6109467
			c-2.1175537,0.0344849-3.4608154,1.4269562-4.9234619,2.4057922c-8.8481445,5.921402-18.1877441,11.1434784-27.5267334,16.0727081
			c-5.9204102,3.1248627-5.942688,6.8282013-5.2052612,11.4476624c3.2200623,20.1712036,5.2636414,40.3218231,4.0485229,60.8563385
			c-0.8518677,14.3957214-3.9342041,28.1368713-8.0652161,41.7876892
			C492.1290283,350.5450134,486.3904114,362.8273315,481.1212463,376.0712891z M478.5228271,245.0811157
			c-12.1675415,4.9550018-23.2314453,11.7007141-34.9496765,17.0711365
			c-3.2393188,1.4845581-3.1205444,4.3026428-2.4825134,6.7932739c1.4463196,5.6461792,1.2611084,11.4394531,1.683136,17.1206055
			c1.6908569,22.7624817-2.2429199,44.7460327-10.3917847,66.0405884
			c-3.0130615,7.8737793-6.8358459,15.4556885-9.1153564,23.9656982c11.4927979,0,22.6354675-0.0195313,33.7779541,0.0165405
			c2.223999,0.0071716,3.3061523-0.6156921,4.2102966-3.0432129c3.9230957-10.5327148,8.693573-20.7591858,12.3949585-31.3626404
			c4.1359253-11.8482666,7.8382263-24.0378113,8.2549744-36.6117554
			C482.5606995,285.2817078,482.7866516,265.4182739,478.5228271,245.0811157z M367.1950073,376.0725098
			c11.7849731,0,22.7715454-0.052063,33.7569275,0.0383301c2.5894165,0.0213318,3.6007996-0.9260864,4.424469-3.4613037
			c2.0031433-6.1655273,4.569458-12.1485291,6.920166-18.2007141c5.6410828-14.5237122,9.7376709-29.4447632,10.7200623-45.0440063
			c0.6463318-10.2630005-0.2901917-20.5253296-0.893158-30.7799683c-0.1442261-2.4532471-0.722168-3.3656616-3.2736816-2.5159912
			c-11.0450134,3.6780396-21.7860718,8.1144714-32.4817505,12.6863708
			c-2.1134033,0.9033813-2.4997253,2.2515564-2.4708557,4.2645264c0.0835266,5.8269653,0.1296692,11.657959,0.0077209,17.4835815
			c-0.2587585,12.3589478-2.706543,24.3114929-6.7674255,35.9769592
			C373.7640991,356.2107849,370.5856628,365.9691467,367.1950073,376.0725098z M316.0897827,376.0687256
			c11.7476501,0,23.0522461-0.010376,34.35672,0.010498c1.8332214,0.0033875,3.0107727-0.4608765,3.6557922-2.4931946
			c2.9009094-9.1404724,5.8477173-18.2713318,9.0387573-27.3136292c5.2814026-14.9656677,6.5874939-30.3929749,5.9765015-46.1101379
			c-0.095459-2.455658-0.8211975-2.6721497-2.9849548-1.9969788c-10.9517822,3.41745-21.5168457,7.833252-32.1474609,12.0946045
			c-2.4100952,0.966095-3.0416565,2.392395-3.1278076,4.8859558c-0.3796997,10.9900208-2.3131104,21.7377625-5.6610107,32.2248535
			C322.1836548,356.8076782,319.2025757,366.2547607,316.0897827,376.0687256z M318.6571655,318.2885742
			c-11.8560181,3.5440979-23.7116394,5.3693848-35.0063171,9.370575c-2.2046204,0.7810059-3.3146362,1.5166626-3.9530334,4.1486816
			c-1.3788147,5.6846313-1.8114624,11.5510559-3.7634583,17.1358643c-3.094696,8.8543091-5.7793884,17.8519287-8.7446899,27.1239929
			c11.7633362,0,23.0591125-0.0082092,34.3549194,0.0092468c1.6170654,0.0025024,2.9047546-0.3303528,3.4621887-2.1022034
			c2.3375854-7.4296875,4.6372375-14.8727112,7.0971069-22.2621765
			C315.6624756,341.0224915,317.6201477,330.0318298,318.6571655,318.2885742z M236.4406128,376.0715637
			c5.1613922,0,10.3230438,0.0276184,15.484024-0.0183716c1.3797913-0.0122681,2.586319,0.3162842,3.2466125-1.9315796
			c3.5740509-12.1674194,8.3410187-23.9780273,10.6649017-36.5226135c0.8060303-4.3511963,0.0532837-5.3171387-4.1369324-4.0640259
			c-10.3625793,3.098999-20.666275,6.3957214-31.0400543,9.4555969c-1.8536072,0.5467529-2.9189758,1.6357422-3.3402252,3.214325
			c-2.3954163,8.9766846-5.0801239,17.8633728-8.7206268,26.4111938c-1.2513428,2.9380798-0.3075867,3.5032654,2.3583069,3.4727478
			C226.1173401,376.0297852,231.2792206,376.0716248,236.4406128,376.0715637z M168.3526764,376.0673828
			c11.542572,0,22.8482666-0.023468,34.1536102,0.0275879c1.5379028,0.006958,2.4100342-0.4819336,2.9749603-1.9428406
			c3.4962006-9.0414124,7.3856659-17.9494629,9.3951569-27.8858643c-0.9543457,0.0773926-1.5844879,0.0502014-2.176178,0.1880188
			c-11.6555939,2.7149353-22.9810028,6.7729797-34.8648071,8.5715637c-0.5876617,0.0889587-1.5792847,0.4894714-1.6126404,0.822113
			C175.4855652,363.2036438,169.7542267,368.6369629,168.3526764,376.0673828z"/>
		<path d="M156.2233276,309.9741516c9.2571869-1.9257202,18.5208893-3.8206482,27.77005-5.7841492
			c15.3022919-3.2485352,30.2982025-7.7938538,45.554184-11.1431274c8.1249847-1.783783,12.7801666-7.1325989,17.5992126-12.6762085
			c3.2859802-3.7800598,6.3687897-7.7219543,10.4156036-10.7158203c2.5921631-1.9177551,2.2209778-3.6891479,0.2914124-5.7776489
			c-1.2355957-1.3373413-2.4152679-2.7700806-3.3645477-4.3168335c-1.1237335-1.8310242-2.1781158-3.6956787,0.1895752-5.6528778
			c2.3842316-1.970871,0.3029327-3.265152-1.2635193-3.0269775c-7.5792542,1.1524048-14.5384521-1.8313293-21.7628326-2.9021301
			c-6.7268372-0.9970551-13.1661224-3.2157288-19.4910278-5.7471924
			c-8.3310394-3.3343964-10.0509796-10.4561157-3.9833221-16.993866
			c7.4575806-8.0354004,16.8999634-13.2145844,27.268158-15.5336304c8.2848969-1.8530731,16.9833832-3.4386902,25.7603912-1.6163788
			c1.7352905,0.3602905,2.9653015,1.252182,4.3817444,1.9161377c8.2294312,3.8574219,16.5851135-0.319458,24.84552,0.5374146
			c1.5429993,0.1600647,1.1950684-1.2737427,1.4891357-2.0979004c2.8977661-8.1213684,9.6906433-12.1799927,17.2495422-13.0271912
			c9.2071533-1.0319366,12.0880127-7.066391,15.2315979-13.9099426c0.953949-2.0767059-0.5354309-2.3007507-1.332428-2.9160919
			c-7.3727722-5.6920013-9.7853394-17.3187714-6.6870728-26.2109222c1.6473694-4.7279968,4.8217468-8.2332916,7.1225586-12.3635864
			c1.0586548-1.9005127,4.4356384-2.565033,6.8475342-3.5866547c0.3036194-0.1286163,1.5932312,0.9543915,1.6327209,1.530426
			c0.1119385,1.632782,0.0690918,3.6056519-1.7176208,4.3238068c-1.8862915,0.7582092-3.4384766,1.8856506-5.1105347,2.9682007
			c-10.3519897,6.7022858-8.8709717,26.401947,0.8912048,31.377655c3.7775879,1.925415,7.026123,0.5364075,6.8822021-3.6774597
			c-0.4154358-12.1613922,5.6783752-20.6432037,15.0359497-27.3340149c1.5026245-1.0744324,3.5189209-1.8460999,4.5983276,0.54953
			c0.8332214,1.8491821,0.4519348,3.128952-1.9934692,4.0193176c-7.2698364,2.6469269-12.3093262,7.567276-13.9934998,15.4458923
			c-1.6903992,7.9077606-0.2812805,10.3783569,7.4237366,10.170166c5.8905945-0.1591492,11.4109497,0.6132507,17.0068359,2.2299347
			c5.1203613,1.4792786,7.4415894,6.9156494,3.4845276,10.3960419
			c-6.7814636,5.9646149-13.4364624,12.5206146-23.1153259,13.7512817
			c-5.0052795,0.6363983-6.0699463,5.6153107-9.0329285,8.4571991c-1.329834,1.2754974,1.2086182,2.9807739,2.6201172,3.3321991
			c15.0465698,3.7460175,29.5548706,10.6980896,45.8782959,6.5636444
			c5.8168335-1.4732971,12.0991211-1.6459503,18.1480713-1.5065308c5.4588623,0.1258392,9.9568176-1.5038452,14.5118713-4.1896973
			c31.8658752-18.7894287,63.2602844-38.2752686,92.2160645-61.4252319
			c6.2491455-4.9961853,12.2535706-10.2607117,17.7165833-16.141922c2.244873-2.4166565,2.5561523-3.7801361-0.859375-5.3670807
			c-4.9275513-2.289505-9.6296387-5.0640564-15.1460266-8.0158844
			c29.6215515-16.1051559,58.1371155-32.4501877,84.3033752-54.5270844c-0.7213135,1.8874664-0.993042,2.8286514-1.4232178,3.690773
			c-12.4089966,24.8667145-24.1521606,50.0479126-35.2949829,75.5027237
			c-1.6609497,3.79422-2.9165649,4.3266602-6.0930786,1.6591339c-3.3049316-2.7754211-7.112915-4.9443512-10.5019531-7.6296844
			c-2.3307495-1.8467712-3.9140015-2.0187378-6.375,0.1253357
			C458.8822021,206.4491425,375.01474,251.4989166,284.0844727,284.0512085
			c-32.3348999,11.5756531-65.464035,20.2153015-99.625351,24.4884949
			C175.1992035,309.6980591,165.8899841,310.2833252,156.2233276,309.9741516z M253.0086365,247.1767883
			c3.4718628,1.0001221,6.597168-0.8317108,9.6635437-1.5634155c4.9452515-1.180069,9.5988159-2.5627747,11.8425293-8.9666443
			c1.6930237-4.832077,0.0111084-6.3889008-2.9771729-8.2451324c-4.5054016-2.798645-5.6818848-5.8769836-3.4612427-10.5192108
			c0.5505676-1.1508942,1.8754883-2.9394226-0.0097046-3.1082001c-2.8803406-0.2578735-4.92453-2.2557678-7.8235779-2.4951477
			c-10.6075745-0.8758087-20.7395325,0.6242523-30.8153381,4.0435486
			c-8.3207855,2.8237152-14.4159546,8.1841125-19.4759827,14.9240417c-3.1017761,4.1315918-1.7044067,7.1296082,3.6296997,7.734024
			c5.5406342,0.6278229,10.5131378,3.0666809,15.8561859,4.2221832
			C237.2439117,244.8910522,245.021286,246.7987518,253.0086365,247.1767883z M368.601532,239.3603516
			c-0.1296692-0.4240875-0.2593384-0.8481598-0.3890076-1.2722473c-6.1298523,0.3322449-12.2744141-0.4421844-18.4059448,0.6226196
			c-2.1224976,0.3685913-4.4259033,0.0459442-6.1935425-1.2371521c-3.7806396-2.7442932-7.3564148-5.7690277-11.069458-8.6091461
			c-1.5620422-1.194809-3.2358398-3.1049194-4.899231-3.1484985c-5.5532532-0.1454468-11.1703186,0.0652313-16.5017395,2.076828
			c-0.9849243,0.3716278-1.0026855,1.105423-0.9378357,2.0039063c0.3565369,4.9380646-0.5552063,9.7243805-1.7507324,14.4856415
			c-0.7692566,3.0637512-0.0944824,5.0816956,3.6271973,5.4559937c4.7078552,0.4734955,9.3763733,1.9310913,14.0570068,1.9096069
			c4.3762512-0.0200653,8.3856506,3.6437073,12.4159546,1.9140015
			C348.7277527,249.1956177,358.6053467,244.1398315,368.601532,239.3603516z M329.8580322,256.3490601
			c-7.7629395-0.6532745-14.9248657-2.3912354-22.1578369-3.776001c-3.8456726-0.7362366-4.6710815-2.6723175-3.7928162-5.8582153
			c0.7837524-2.8430481,0.5003967-5.6647339-0.1547546-8.3371887c-0.6564331-2.6777344-1.99823-6.2193604-5.0528259-5.8304596
			c-2.0359497,0.2592163-4.798584,3.1643372-5.3297424,5.3487396c-1.706604,7.0188141-6.819458,12.0263824-9.7203369,18.2781067
			c-1.033844,2.2281494-1.6550903,5.2033691-3.4338379,6.4164124c-3.8981018,2.6584167-3.6513062,6.3066711-3.7360535,10.0312805
			c-0.0922546,4.0531006,1.4716797,5.1967163,5.5765381,3.7128296
			c14.8399963-5.3645325,29.6228027-10.8588867,44.0864258-17.1785278
			C327.4078064,258.6033325,329.0925598,258.5515137,329.8580322,256.3490601z M315.6695251,214.7009735
			c0.0906372-2.4984283,0.5309448-4.5465546,3.0742798-5.372406c2.2416077-0.7278595,4.3853455-0.8515625,6.8040466-0.3789978
			c2.5074463,0.4898682,4.8257446-0.7579498,5.7102051-3.4949188c0.9798584-3.0319366-1.508728-2.8400421-3.2710571-3.6626434
			c-2.2099609-1.0315552-4.1914063-2.5968933-6.1673279-4.0713806c-1.4883423-1.1106415-2.9520569-1.26474-4.6496887-0.6514435
			c-3.5810547,1.2937317-7.2797546,2.3066864-10.758606,3.8273773c-4.4467468,1.9438171-8.7879639,4.2853088-10.1607056,9.5139618
			c-1.11203,4.2357635,0.6062317,6.4832001,4.8468323,5.9022675c4.2626343-0.5839844,7.2535095,0.2313843,9.1055908,4.4782867
			c0.7134094,1.6358185,2.3690491,2.4089966,4.5705872,1.3801117c2.2443237-1.0488739,2.3572693-2.2738495,1.5194702-4.2630463
			C315.8521118,216.8608856,315.8379517,215.6338501,315.6695251,214.7009735z M395.1625366,224.1785889
			c-1.1410828,0-2.3067932-0.1293182-3.435791,0.0196991c-13.5396118,1.7871552-27.1123047,3.9298859-40.6170044,0.1407928
			c-4.1528931-1.1652069-8.6360168-0.4062805-12.5924988-2.7385559c-1.7539368-1.0339355-3.7525024,0.5220184-4.7993469,1.826828
			c-1.2528687,1.5615997,0.7142334,2.4471893,1.7088013,3.4230347c6.071228,5.9568024,13.1616821,8.1944733,21.818573,8.0970917
			C370.8910522,234.7939911,384.1897278,234.5653992,395.1625366,224.1785889z M334.4994507,198.75354
			c4.8104553,2.0345764,9.7915344-2.0908203,15.3032227-3.9010925c3.687439-1.2111206,5.9099426-4.8431702,9.9019775-5.8824463
			c1.9099426-0.4972076,1.3417664-3.5296478,2.1159973-5.3309021c-2.6427612-0.7227478-4.2582397-3.3609161-7.3510742-3.5267029
			c-1.9841003-0.106369-2.8529968-0.2358551-2.4516602,2.0751953c0.8007813,4.6112823-2.02948,6.7448425-5.69104,8.5723724
			c-6.6410828,3.314621-12.9555359,3.0695038-19.0788269-1.1052551c-1.1915894-0.8124084-2.5319214-2.3989868-3.1122742,0.2027435
			C323.3894043,193.203064,329.3248901,199.0833893,334.4994507,198.75354z M294.2290039,221.7980499
			c1.6204529-1.8212891-0.2740784-2.8639832-1.5513611-4.0817566c-4.8360596-4.6108093-13.4987793-4.4761963-19.2962341,0.195343
			c-1.7143555,1.381424-3.972168,3.1445007-1.7555237,4.9568634c2.075531,1.6969604,3.7441406,6.3844299,7.7717896,3.2897186
			c3.1851196-2.4473877,6.071106-1.4788818,9.1237793-0.1698151
			C293.3766785,228.0704651,294.1723022,227.5514221,294.2290039,221.7980499z M286.0508423,242.4669647
			c-1.3570557,4.0329742-5.9994507,3.4703827-8.1793518,6.4143372c-3.2301636,4.3623505-5.2540283,9.1493073-6.823822,14.2079926
			c-0.3989258,1.2854614-0.4780884,2.8506775-1.7360535,3.4187927c-3.6745605,1.6595154-3.2637939,3.7920532-1.3130188,6.5932922
			c1.524292,2.1888428,2.2171326,6.4997253,5.0574646,5.5685425c2.1202698-0.6951294,0.0125732-4.6907043-0.4928284-7.0871277
			c-0.6090698-2.8878784-1.2671509-6.953186,0.7669067-7.8345947c3.4408569-1.4909668,4.4884033-4.3276367,5.7435303-6.8156738
			C281.4755554,252.1712494,285.6626282,248.2731628,286.0508423,242.4669647z M336.5964355,190.0475464
			c3.4676819-0.8362427,7.4479675-0.7633209,10.0878296-4.1029053c1.9521484-2.4695892,1.8433533-4.4179077-1.3561096-5.802063
			c-4.9677124-2.1490936-9.6696472-1.1009064-14.3117371,0.9487305c-2.207428,0.9746552-2.3775024,3.0191345-2.2798157,5.0484467
			c0.0952759,1.9784393,1.469574,2.8479919,3.2399902,3.1800385
			C333.4352722,189.5933533,334.9092102,189.7852478,336.5964355,190.0475464z M247.2839661,287.5496826
			c5.0673065-1.5390625,8.6812439-2.5984192,12.2708435-3.7346191c8.6250305-2.7301025,8.6203003-2.7445679,4.3071899-10.681488
			c-0.0787659-0.144928-0.1557007-0.2924805-0.2154541-0.4458313c-0.6757507-1.7340088-1.7370911-1.702179-3.0560913-0.7018433
			C255.4051666,275.918457,251.1181946,280.610321,247.2839661,287.5496826z M271.3272705,248.210144
			c-5.2071228,1.3969727-8.4473877,4.5525055-11.9534607,7.1899719c-1.5156555,1.1401672-1.2808228,2.982666-0.3435364,4.5292664
			c1.296051,2.1386108,2.8193359,4.3865051,5.3631287,4.7903137c1.8824768,0.2988281,2.4071655-1.8433533,3.0960693-3.3511658
			C269.2840576,257.4407043,269.9100952,253.2040558,271.3272705,248.210144z M286.5597839,232.8959656
			c1.7997742-2.2525787-0.1128235-3.1779022-2.0397949-4.2762451c-2.6742554-1.524292-3.7618713,1.5057831-4.0280151,2.2642975
			c-1.4087524,4.0151367-2.280304,8.2346191-3.09021,12.4311066c-0.1685486,0.8733521,1.1603394,1.3190918,1.8182373,0.5753174
			C282.0846863,240.6515808,287.7407227,239.326004,286.5597839,232.8959656z M307.4968567,229.7467651
			c-0.2984924-2.2381134-0.5317078-4.8720245-1.0317078-7.4542847c-0.3954163-2.0422211-2.0390015-2.9213562-3.9596558-3.1796722
			c-1.6217346-0.2181244-2.7894592,0.593277-3.7775574,1.8599091c-1.4407654,1.8469086-0.058075,2.9117584,0.8845825,4.2702484
			c1.3924255,2.0066833,2.0622864,4.4816742,4.0405884,6.1292725c0.9418335,0.7844086,1.4044189,2.6680298,2.9668884,1.9514313
			C307.6739502,232.840271,307.3953247,231.2729187,307.4968567,229.7467651z M334.5344238,218.1980438
			c-2.9243469-3.0573883-6.4494629-4.7245178-10.2427368-5.9100037c-1.8918457-0.5912476-3.3687134,0.1210785-4.1286621,1.787262
			c-0.7626038,1.6720734,0.4686584,2.3615265,1.7463989,3.4352264
			C325.9869385,220.9368896,330.2410889,218.5439148,334.5344238,218.1980438z"/>
	</g>
</g>
</svg>
