<?xml version="1.0" encoding="utf-8"?>
<!-- Generator: Adobe Illustrator 19.0.1, SVG Export Plug-In . SVG Version: 6.00 Build 0)  -->
<svg version="1.1" id="Слой_1" xmlns="http://www.w3.org/2000/svg" xmlns:xlink="http://www.w3.org/1999/xlink" x="0px" y="0px"
	 viewBox="0 0 960 560" style="enable-background:new 0 0 960 560;" xml:space="preserve">
<style type="text/css">
	.st0{fill:#FEFEFE;}
	.st1{fill:#15ABE4;}
	.st2{fill:#FDFEFE;}
	.st3{fill:#16ACE4;}
</style>
<g>
	<g>
		<path class="st0" d="M354.2500916,406.480011c0-84.063324,0-168.1266327,0-252.2149811c84.0432434,0,168.0965881,0,252.1899109,0
			c0,84.0549622,0,168.134964,0,252.2149811C522.3999634,406.480011,438.3300781,406.480011,354.2500916,406.480011z
			 M598.4057007,280.3319092c0.2355957-65.0196838-52.4605713-117.8641205-117.867981-118.1996918
			c-65.0999146-0.3339996-118.1562805,52.5059509-118.3999329,117.9169159
			c-0.2423401,65.0657654,52.4859924,118.04245,117.7552185,118.309845
			C545.2504272,398.626709,598.1680908,345.9259033,598.4057007,280.3319092z"/>
		<path class="st1" d="M598.4057007,280.3319092c-0.2376099,65.5939941-53.1552734,118.2947998-118.5126953,118.0270691
			c-65.2692261-0.267395-117.9975586-53.2440796-117.7552185-118.309845
			c0.2436523-65.410965,53.3000183-118.2509155,118.3999329-117.9169159
			C545.9451294,162.4677887,598.6412964,215.3122253,598.4057007,280.3319092z M406.7219543,281.1037903
			c0.104187,0.012085,0.2083435,0.0241699,0.3125305,0.0362244c-0.0541687,5.5392151,0.5838013,11.0041504,1.8496704,16.3912048
			c3.6530151,15.5458679,11.4498291,28.6563416,23.6173401,38.9804382
			c17.601532,14.934967,37.960144,20.199646,60.6947021,16.6343384c0.639801-0.1003418,1.4255981,0.0290527,2.0016174,0.3261108
			c13.421936,6.9220276,26.9559937,7.1784668,40.3191528,0.1509399
			c20.7931519-10.9348755,28.4124756-37.0004883,17.1139526-57.6072388c-0.3131104-0.571106-0.4474487-1.381073-0.3361206-2.022583
			c1.3146973-7.5780334,1.5042725-15.1687927,0.4570923-22.7919922
			c-2.031311-14.7866821-7.8475342-27.9247131-17.9592285-38.8708496
			c-18.3674316-19.8831635-41.1292419-27.4850769-67.8555603-23.3132629
			c-0.460083,0.0718079-1.0316772-0.0192871-1.4387817-0.2409363c-8.3807983-4.5632935-17.2797241-6.2242584-26.7390747-4.8922119
			c-19.7972412,2.7877808-35.9092712,19.7330322-36.1669922,41.4313965
			c-0.0875244,7.3686829,1.6932373,14.3098755,5.2303772,20.7975159c0.295929,0.5427856,0.4013062,1.2874451,0.3380737,1.9122925
			C407.7190857,272.3885498,407.2096558,276.7450867,406.7219543,281.1037903z"/>
		<path class="st2" d="M406.7219543,281.1037903c0.4877014-4.3587036,0.9971313-8.7152405,1.4387512-13.0786133
			c0.0632324-0.6248474-0.0421448-1.3695068-0.3380737-1.9122925c-3.5371399-6.4876404-5.3179016-13.428833-5.2303772-20.7975159
			c0.2577209-21.6983643,16.369751-38.6436157,36.1669922-41.4313965
			c9.4593506-1.3320465,18.3582764,0.3289185,26.7390747,4.8922119c0.4071045,0.2216492,0.9786987,0.3127441,1.4387817,0.2409363
			c26.7263184-4.171814,49.4881287,3.4300995,67.8555603,23.3132629
			c10.1116943,10.9461365,15.9279175,24.0841675,17.9592285,38.8708496
			c1.0471802,7.6231995,0.857605,15.2139587-0.4570923,22.7919922c-0.1113281,0.64151,0.0230103,1.4514771,0.3361206,2.022583
			c11.2985229,20.6067505,3.6791992,46.6723633-17.1139526,57.6072388
			c-13.3631592,7.0275269-26.8972168,6.7710876-40.3191528-0.1509399c-0.5760193-0.2970581-1.3618164-0.4264526-2.0016174-0.3261108
			c-22.7345581,3.5653076-43.0931702-1.6993713-60.6947021-16.6343384
			c-12.167511-10.3240967-19.964325-23.4345703-23.6173401-38.9804382
			c-1.2658691-5.3870544-1.9038391-10.8519897-1.8496704-16.3912048
			C406.9302979,281.1279602,406.8261414,281.1158752,406.7219543,281.1037903z M480.7256165,331.2367249
			c0.0142822,0.1056519,0.0285339,0.2113037,0.0428162,0.3169861c4.0772095-0.467804,8.204895-0.6757202,12.221405-1.4560852
			c9.103302-1.7687378,17.1225891-5.7228088,23.1703186-12.9629211c6.7147217-8.0386353,8.5362549-17.1018372,4.840271-26.9988403
			c-2.2071533-5.9103394-6.7603149-9.7821045-12.1424866-12.7468872
			c-7.0795593-3.8998413-14.7966614-5.9012756-22.6483154-7.4784851
			c-5.9153442-1.1882629-11.7874756-2.5307617-17.3272095-5.0095825c-2.5668945-1.1485901-5.0186462-2.4932251-6.8789368-4.680481
			c-1.9862671-2.3353271-2.1151733-4.9640198-0.4015503-7.4959412c1.2176819-1.7991486,2.8487854-3.1461639,4.7744751-4.0929413
			c6.0714417-2.9850769,12.4645996-3.9385071,19.1110535-2.6415558c4.4527588,0.8688965,7.9647522,3.1136322,10.033844,7.3726196
			c0.9030151,1.8587646,2.00177,3.6621704,3.2644043,5.2952881c1.2568359,1.6256104,2.6397095,3.2781372,4.3007202,4.4437561
			c5.1659546,3.6252441,12.2178345,1.0531921,13.9303589-5.0072327c1.423645-5.0380096,0.4609375-9.6915741-2.9229736-13.7022247
			c-7.111084-8.4281616-16.5144348-12.3014069-27.2441711-13.3349457
			c-6.6452637-0.6400909-13.2497864-0.0746765-19.788208,1.1954956c-6.7688904,1.3149567-13.2063599,3.5055847-18.7779846,7.7201233
			c-5.4049072,4.0884247-8.6808472,9.4224548-9.0792542,16.3043213c-0.5155334,8.9042664,3.0918579,15.9190979,10.04953,21.2769165
			c6.8356018,5.2638245,14.8056946,7.9079895,23.1235962,9.6423645c4.5299377,0.9445801,9.125946,1.598053,13.6199036,2.6821899
			c4.3818054,1.0570984,8.4902954,2.8323059,11.6856079,6.2190857c2.7385864,2.9026794,3.4025269,6.6769714,1.5471802,10.0254822
			c-0.8011169,1.4458313-1.7794495,2.9200745-3.0227966,3.9736328c-7.9093933,6.7021179-16.9329834,7.5413208-26.2987366,4.0262756
			c-6.8806458-2.5823975-10.8944092-8.2103882-13.4880676-14.9318542c-0.4625549-1.1987915-1.0834351-2.5036011-2.0138855-3.3269958
			c-5.2574768-4.6526184-14.3703308-3.0168762-16.4174805,4.6970215c-0.9795837,3.6911011-0.0509338,7.2167969,1.3669739,10.6127625
			c3.1735229,7.6005859,9.0290833,12.4430542,16.4208374,15.596344
			C463.7418823,330.1682434,472.1565552,331.1653748,480.7256165,331.2367249z"/>
		<path class="st3" d="M480.7256165,331.2367249c-8.5690613-0.0713501-16.9837341-1.0684814-24.948761-4.4663086
			c-7.3917542-3.1532898-13.2473145-7.9957581-16.4208374-15.596344c-1.4179077-3.3959656-2.3465576-6.9216614-1.3669739-10.6127625
			c2.0471497-7.7138977,11.1600037-9.3496399,16.4174805-4.6970215c0.9304504,0.8233948,1.5513306,2.1282043,2.0138855,3.3269958
			c2.5936584,6.7214661,6.6074219,12.3494568,13.4880676,14.9318542c9.3657532,3.5150452,18.3893433,2.6758423,26.2987366-4.0262756
			c1.2433472-1.0535583,2.2216797-2.5278015,3.0227966-3.9736328c1.8553467-3.3485107,1.1914063-7.1228027-1.5471802-10.0254822
			c-3.1953125-3.3867798-7.3038025-5.1619873-11.6856079-6.2190857c-4.4939575-1.084137-9.0899658-1.7376099-13.6199036-2.6821899
			c-8.3179016-1.734375-16.2879944-4.37854-23.1235962-9.6423645c-6.9576721-5.3578186-10.5650635-12.3726501-10.04953-21.2769165
			c0.398407-6.8818665,3.6743469-12.2158966,9.0792542-16.3043213c5.5716248-4.2145386,12.0090942-6.4051666,18.7779846-7.7201233
			c6.5384216-1.2701721,13.1429443-1.8355865,19.788208-1.1954956c10.7297363,1.0335388,20.1330872,4.9067841,27.2441711,13.3349457
			c3.3839111,4.0106506,4.3466187,8.6642151,2.9229736,13.7022247c-1.7125244,6.0604248-8.7644043,8.6324768-13.9303589,5.0072327
			c-1.6610107-1.1656189-3.0438843-2.8181458-4.3007202-4.4437561c-1.2626343-1.6331177-2.3613892-3.4365234-3.2644043-5.2952881
			c-2.0690918-4.2589874-5.5810852-6.5037231-10.033844-7.3726196c-6.6464539-1.2969513-13.0396118-0.3435211-19.1110535,2.6415558
			c-1.9256897,0.9467773-3.5567932,2.2937927-4.7744751,4.0929413c-1.713623,2.5319214-1.5847168,5.160614,0.4015503,7.4959412
			c1.8602905,2.1872559,4.3120422,3.5318909,6.8789368,4.680481c5.5397339,2.4788208,11.4118652,3.8213196,17.3272095,5.0095825
			c7.8516541,1.5772095,15.5687561,3.5786438,22.6483154,7.4784851c5.3821716,2.9647827,9.9353333,6.8365479,12.1424866,12.7468872
			c3.6959839,9.8970032,1.8744507,18.9602051-4.840271,26.9988403
			c-6.0477295,7.2401123-14.0670166,11.1941833-23.1703186,12.9629211c-4.01651,0.780365-8.1441956,0.9882813-12.221405,1.4560852
			C480.7541504,331.4480286,480.7398987,331.3423767,480.7256165,331.2367249z"/>
	</g>
</g>
</svg>
