<?xml version="1.0" encoding="utf-8"?>
<!-- Generator: Adobe Illustrator 19.0.1, SVG Export Plug-In . SVG Version: 6.00 Build 0)  -->
<svg version="1.1" id="Social_x5F_media_xA0_Изображение_1_"
	 xmlns="http://www.w3.org/2000/svg" xmlns:xlink="http://www.w3.org/1999/xlink" x="0px" y="0px" viewBox="0 0 700 400"
	 style="enable-background:new 0 0 700 400;" xml:space="preserve">
<g>
	<g>
		<path d="M350.5528259,185.644989c7.3527527-4.5536652,13.8285217-2.6628265,20.3280945-0.2530212
			c4.2106018,1.561142,8.5803223,2.7183838,12.7223816,4.4341278c11.683197,4.8394623,23.8310852,7.2280884,36.428894,6.8055115
			c10.1685791-0.3410797,19.8255005,2.0069122,29.5030212,4.5418091c9.3228455,2.4420013,18.0037842,1.3440094,26.0307312-4.3711853
			c3.5773621-2.5470886,5.365387-6.2131195,7.3526917-9.8287201c0.2967224-0.5397644,0.800415-1.7170105,0.247467-1.7170868
			c-3.1837769-0.0004272-5.6904907-3.8085938-8.937561-2.041748c-9.3747559,5.101181-19.1476135,5.0887451-29.0751343,2.5551453
			c-6.0647583-1.5478058-8.0489197-5.627182-4.0315552-11.4188232c3.8268433-5.5168762,9.0351257-9.3589783,14.3340454-13.0744324
			c3.3786926-2.3690033,3.2087402-4.3239594,1.0780029-7.3538971c-4.5595703-6.4838409-13.7427063-10.1234741-22.1156006-8.2494507
			c-1.6759033,0.3750916-3.1725159,1.0678558-4.5582886-0.4859924c-0.7346802-0.8238068-1.128479-2.1741791-0.5964661-2.7458191
			c1.3071289-1.4043274,3.0682373-1.5319366,5.1236572-1.5400238c6.8707581-0.0270386,13.2591248,0.9910431,19.1442261,4.9142761
			c3.4160767,2.2772675,6.5581665,4.6494293,8.1022644,8.5063934c0.5706787,1.4254303,1.2706299,2.5896454,2.6746521,2.2542114
			c1.4242554-0.3402863,3.0184326-0.3821411,3.9230957-2.397934c3.1991882-7.1283264,0.1998596-18.2947235-6.4532166-22.4761047
			c-1.7906799-1.125412-3.5055237-2.2073669-5.0385132-3.7560425c-2.8625183-2.8917694-6.4914246-0.8891907-9.6011963-0.4749451
			c-2.5367126,0.3379211-4.1234131,0.0550003-5.4708557-1.9340057c-0.7866516-1.1611633-0.5560303-2.9286346,0.6185608-2.7829056
			c3.0317383,0.3760986,5.61203-1.9348907,9.1092834-0.152092c5.3193359,2.7116394,11.4462585,3.9353714,15.5960693,8.6751709
			c5.2366638,5.9812622,8.5251465,12.7029114,5.6403503,20.7958069c-1.0131531,2.8423004-0.0595398,3.6859283,2.0927429,5.2443848
			c6.3795471,4.6193237,12.3129578,4.0326996,19.1850891,0.7514343c6.6867371-3.1927643,14.0848694-4.3132629,20.565033,1.151947
			c1.6970825,1.4312897,2.5551758,0.7493286,3.6722412-0.3852386c3.4660645-3.5205078,7.6231689-5.908905,12.315979-7.3501434
			c3.656311-1.122879,5.2576294-4.5529022,7.1270142-7.1634827c4.4716187-6.2444763,10.6609497-9.660614,17.0673828-13.3480225
			c7.0228882-4.0422211,14.458313-6.6292877,22.2393188-7.4152298c8.0149536-0.8095627,16.2626953-0.914299,23.2545776,4.9248886
			c3.6094971,3.0144806,2.8118286,6.2106476,1.0723877,9.0891418c-5.7132568,9.4546814-12.9915771,17.6468658-20.7412109,25.5498199
			c-6.352478,6.4781189-13.1405029,11.6461182-21.9488525,14.1189575c-1.9345093,0.5430908-3.8687134,1.814621-5.0662231,4.5175476
			c8.6401978,0.9844666,16.9672241,2.3392029,25.3428345,2.7873535
			c11.0923462,0.5935211,19.6539917,6.2805328,27.3121338,13.2471161
			c6.0059204,5.4635315,12.8002319,10.0900726,18.0380249,16.3900452c1.1953735,1.4377899,2.7689209,0.8421936,4.1697998,0.856781
			c6.9989624,0.072876,13.9992676,0.0000305,20.9987793,0.0424347c10.4768066,0.0634613,16.5725098,6.0125732,16.5809326,16.357193
			c0.0353394,43.6649628,0.03302,87.3300018,0.0020752,130.9950104
			c-0.0073853,10.4312439-6.0352783,16.468811-16.4554443,16.4764099
			c-43.6650391,0.0317688-87.3300171,0.0333862-130.9950562-0.0013123
			c-10.3695068-0.0082397-16.3659058-6.0894775-16.3746338-16.5578003
			c-0.0310364-37.1652222-0.0123901-74.3305054-0.0125732-111.4957581c0-1.8205872,0-3.6411743,0-5.7916107
			c-1.8982544,1.242981-1.8893738,3.0122223-2.387085,4.4792175
			c-13.5236816,39.8585052-27.0180664,79.726944-40.5286255,119.5898895
			c-4.1088867,12.123291-10.842865,15.3677673-23.1535339,11.2069092
			c-35.460022-11.9849548-70.9199524-23.9702148-106.3834839-35.9447021
			c-1.5403748-0.5201111-3.1164856-0.9342041-5.8188477-1.7373352c3.2077942,3.5594177,6.4612732,4.9873657,9.4531555,6.7857971
			c9.6161194,5.7802429,13.2136536,18.3015442,7.7340698,27.3188782c-2.2198792,3.6530762-5.0314941,6.4188232-9.9230652,6.4003601
			c-42.8293457-0.1618042-85.6634064,0.1222534-128.4869232-0.4324646
			c-21.4886322-0.2783203-42.972229-0.2086487-64.4571228-0.2949524
			c-25.1622391-0.1011047-50.3257828,0.1088257-75.4886932,0.2046814c-5.0394058,0.0191956-9.2888603-3.5073547-9.5347137-8.8965454
			c-0.3781662-8.2895203-0.3736649-16.4519043,2.9040985-24.5466003c4.6138-11.3941345,8.2064629-23.2039795,12.170063-34.858429
			c2.8513184-8.3839417,8.6486893-14.2200012,16.3586884-17.9576111
			c11.2710571-5.4639587,22.9440994-9.9154053,35.5418777-11.3666687c8.8512115-1.0196533,16.9321442-5.0727234,25.5379181-6.806488
			c17.3149261-3.4882813,34.8269806-1.6656494,52.2650452-0.5310669c1.9615936,0.127655,3.895462,0.6817932,6.0730438,1.0804138
			c-1.1255798-2.1910706-3.177063-2.7045288-4.8260498-3.6442871c-17.0680847-9.727417-34.1914673-19.3576813-51.272934-29.0616913
			c-10.3117523-5.8580933-12.4207001-13.4727173-6.5760956-23.8033905
			c21.2333374-37.5310822,42.4840546-75.0523376,63.7608795-112.5587921
			c5.701828-10.0511398,13.4281616-12.1976852,23.4354401-6.5401306
			c36.6681061,20.7301102,73.2664948,41.5843353,110.0176849,62.1659088
			C346.3244019,169.7039795,352.3724976,174.6762848,350.5528259,185.644989z M220.0566406,104.9016113
			c-5.5560608,0.1061783-8.4139404,2.8004379-10.6084137,6.680809
			c-21.389679,37.8225784-42.8327484,75.6149521-64.2249146,113.4361191
			c-4.1998291,7.4252777-2.8227081,12.4161072,4.5904083,16.6213684
			c37.6494904,21.3575287,75.3153381,42.686203,112.9918213,63.996048
			c7.680603,4.3440857,12.6417236,2.9786987,16.9792175-4.6698608
			c21.3525391-37.6522217,42.686615-75.3149109,63.9920959-112.9937439
			c4.1904602-7.4108124,2.8186951-12.4426422-4.5783691-16.637558
			c-37.796814-21.4348602-75.6199036-42.8233185-113.4382629-64.2201462
			C223.7288971,105.9653778,221.6835327,104.8079681,220.0566406,104.9016113z M443.6485901,377.3138733
			c5.5072327,0.0342102,8.5159607-2.5038147,10.7136841-8.9846191
			c13.8302612-40.7835388,27.6463013-81.5718994,41.4436951-122.3665466
			c2.9003601-8.5754547,0.6113586-13.0083313-8.1726685-15.9817047
			c-40.317627-13.6475067-80.6368408-27.2903137-120.9607849-40.9191589
			c-9.8594971-3.3323822-14.0336914-1.2595367-17.3803406,8.6359406
			c-13.6372986,40.3231659-27.2617188,80.6506653-40.8763733,120.9815063
			c-3.0135803,8.9272461-0.8158569,13.230072,8.2810364,16.307312
			c40.3217468,13.6399231,80.6445618,27.2767944,120.9742432,40.8933716
			C439.7094421,376.5682068,441.7314453,377.4275513,443.6485901,377.3138733z M583.4758301,374.0740051
			c21.8215942,0,43.6432495,0.0144043,65.4648438-0.0072021c8.4755859-0.0083923,12.1240234-3.6760559,12.12677-12.1953735
			c0.0139771-43.3100586,0.015625-86.6201172-0.0015869-129.9301758
			c-0.0032349-8.2188873-3.6919556-11.9959564-11.8253784-12.0013275
			c-43.4766235-0.028717-86.9532471-0.025177-130.4298706-0.0036774c-8.1447449,0.0040283-11.8717346,3.7612-11.8754272,11.9519196
			c-0.0195007,43.3100433-0.0191956,86.6201019-0.0006409,129.9301605
			c0.0037231,8.7380066,3.6349487,12.2463989,12.5756531,12.2517395
			C540.8320923,374.0827637,562.1539307,374.0741272,583.4758301,374.0740051z M128.502182,379.1101685
			c0.0000305-0.0635681,0.0000763-0.1271667,0.0001221-0.1907349c5.6658936,0,11.3317719,0.0011292,16.9976654-0.0002136
			c14.997818-0.00354,29.9956665-0.0255432,44.9934235,0.000824c3.4275818,0.006012,5.4861908-0.3395386,4.9570007-5.0214844
			c-0.5836792-5.1639099,1.2511749-10.316864,4.8885498-14.2480774
			c11.0322113-11.9234619,24.2482452-19.6346436,40.8955688-20.4673157
			c5.6257477-0.2813721,5.9273987-0.9422607,4.0166016-6.3821106c-4.0116577-11.4208069-10.861557-21.3756104-16.9198608-31.6645203
			c-4.4291229-7.5220642-11.5078583-13.2454224-20.1203613-15.6111755
			c-23.3372345-6.4103394-46.7955475-7.8587646-70.2664032-0.1881104
			c-4.7298126,1.5457764-9.6669312,2.6044922-14.5880737,3.3869934c-10.2609863,1.6315002-20.012764,4.7935486-29.7249374,8.4069824
			c-7.5003281,2.7905273-13.7853699,7.1227417-17.7926865,13.7187195
			c-6.3936234,10.5238037-10.0473862,22.3739624-13.7019997,34.058136
			c-2.6418991,8.4464417-6.4848976,16.782135-4.4731293,26.2353821c1.4161339,6.6543579,2.4725533,7.9811707,9.3518028,7.9741821
			C87.5110168,379.0968323,108.0066071,379.1101685,128.502182,379.1101685z M267.6739502,379.0047302
			c19.6662903,0,39.3328552-0.0547791,58.9986572,0.0435486c4.2263184,0.0211487,7.839386-0.287384,9.9799805-4.7861328
			c2.2634583-4.7569275,2.9134216-9.3808289-0.4973755-13.6192322
			c-9.0400391-11.2335815-20.7951355-17.7767029-35.130127-19.7363281
			c-11.3308716-1.5489502-22.6461792-0.6098328-33.9162292,0.3059082
			c-17.4217377,1.4155273-34.7797852,3.1039429-50.6755676,11.6984863
			c-6.8259888,3.6907043-12.522995,7.6763306-15.4631042,15.2954102c-2.6324921,6.8218689-0.5384521,10.8018188,6.704895,10.8036194
			C227.6746979,379.0148926,247.6743317,379.0116882,267.6739502,379.0047302z M307.9025574,336.3473206
			c-7.5262451-7.1197815-5.7257996-14.5554504-2.9930725-22.506073
			c12.3765259-36.0081482,24.4662476-72.1148682,36.6526794-108.188324
			c0.5133667-1.5196075,0.9618225-3.0611115,1.4405212-4.5924072c-1.7889404,1.3315125-2.750061,2.871109-3.6438904,4.4488373
			c-18.4554138,32.5762024-36.8874817,65.1656342-55.3617859,97.7310944
			c-5.7268677,10.0950012-13.3798828,12.2427673-23.3949585,6.6478271
			c-6.5371399-3.6520386-13.0296021-7.3839111-19.5540619-11.0587158c-4.4863281-2.526886-8.9932404-5.0172729-13.4909363-7.5239563
			c5.5385437,6.7341919,8.3203583,14.7377319,12.5711517,21.8570251
			c4.2652435,7.1435242,9.0985413,14.0001831,11.2306213,22.1910095c0.9807587,3.7677612,3.7039795,2.9413757,5.934906,2.269043
			c8.7730408-2.6437378,17.751709-2.6821594,26.7467346-2.4303589
			C291.6520691,335.405365,299.2553101,335.9163513,307.9025574,336.3473206z M580.4293213,127.5179749
			c-11.3045654,0.6907959-21.4364014,4.7801056-30.6293335,11.2180481
			c-4.2322998,2.9639282-8.6018066,5.9154816-11.2710571,10.6124115c-0.946167,1.6648712-1.6489868,2.617218,1.2044678,3.4797058
			c4.1484985,1.253891,5.5164795,6.8344574,3.2908936,10.9810028c-1.0332031,1.9250183-2.2325439,4.2055664-0.543396,5.9972534
			c1.9161377,2.0324554,4.4716797,4.8411102,6.7841797,4.8742371c8.4857178,0.1215515,16.1834717-3.2445221,22.5370483-8.692627
			c10.1029053-8.6631927,17.7040405-19.6452637,26.2193604-29.7754822c1.6095581-1.9148102,1.3623047-2.7816467-0.7323608-4.0709076
			C592.0949097,128.9445496,586.6270142,127.1044159,580.4293213,127.5179749z M540.4105225,184.2406311
			c-0.1141357,0.3101807-0.2283325,0.6203766-0.3424683,0.9305573c6.6459351,2.780426,13.2774048,5.5961609,19.9456177,8.3220215
			c2.3102417,0.944397,5.1384277,1.543869,6.3201294,3.6938934c2.4762573,4.5055237,4.7612915,9.210968,6.3182983,14.0916443
			c0.9443359,2.9602051,2.0380859,3.9208374,5.0621948,3.8603668c9.1494751-0.1829071,18.3049927-0.0652313,27.4581299-0.0648346
			c4.3883057,0.0001984,8.7766113,0.0000305,13.164978,0.0000305c-5.602478-6.3962708-11.3763428-11.8303986-17.4916992-16.8484039
			c-6.3554077-5.2149658-13.2911377-9.2855988-21.8602295-10.0336914
			C566.1102905,187.0682068,553.2672119,185.5761871,540.4105225,184.2406311z M543.4685669,215.0729218
			c7.3121948,0,14.625,0.044281,21.9358521-0.0530243c0.9716187-0.0129395,2.6431274,0.9963074,2.8227539-1.3621063
			c0.4887695-6.4167328-4.548584-14.0570984-10.3834229-16.3900757
			c-10.8537598-4.3397217-22.1900024-7.5918121-32.1843872-13.9628754
			c-0.6530151-0.4162903-1.8932495-1.2399597-3.1586304-0.4057007c-1.2572632,0.8288269-1.0830688,1.8341064-0.9312744,3.0280457
			c0.5042725,3.9651794,1.6447754,7.505249,4.913269,10.2302856c3.4520264,2.8781738,3.7605591,6.1789551,0.3659668,9.4762115
			c-1.8619385,1.8085938-3.6761475,3.6687164-5.5882568,5.4222717c-0.9661255,0.8860779-2.5651855,1.5662079-2.1724243,3.0276184
			c0.4621582,1.719574,2.251709,0.938385,3.4415894,0.9513855
			C529.5085449,215.1111755,536.4887695,215.072403,543.4685669,215.0729218z M509.311615,204.9288788
			c-4.0532227-2.1371765-7.6441345-3.7501221-10.942627-5.8274384c-7.1336975-4.4926758-13.4742737-4.0425262-20.1243896,1.4023743
			c-5.7897949,4.740509-12.7028503,7.1632843-20.4749451,5.7450104c-5.06604-0.924469-10.169342-1.6536713-15.2194214-2.6544647
			c-7.4164429-1.4697418-14.8353577-2.752243-23.3353577-2.6318512c1.138031,0.8366089,1.45401,1.2050629,1.8496094,1.3400726
			c15.4096375,5.2586823,30.8288574,10.4891968,46.2391052,15.746109c1.6924744,0.5773468,3.1689758,0.23349,4.7897644-0.4318237
			c8.1429749-3.342514,16.205658-6.849411,24.9608765-8.5340729
			C500.9772339,208.3279114,505.1239014,207.6275482,509.311615,204.9288788z M501.8778076,235.9886017
			c-1.5596924-9.802948,3.0025024-16.2616882,10.0492554-21.6255493c2.6982422-2.053833,5.1361694-4.4598999,7.6194458-6.7837524
			c6.2424927-5.8417358,6.5336304-6.4088745,0.2246704-11.8646851c-4.3857422-3.7926483-6.7058716-11.6558838-15.1932678-8.8475494
			c-1.7704163,0.5858307-4.4897156-0.4579926-5.1195374,1.9304504c-0.6590576,2.4993134-0.6928406,5.4664612,1.8937378,7.2222748
			c2.3227539,1.5767365,4.8491821,2.8765106,7.3675537,4.1347809c2.1351929,1.0668182,4.3804932,2.0477905,4.4547119,4.8099823
			c0.0856934,3.1918335-2.5783386,4.1474609-4.9060364,4.8473663c-5.0806885,1.5276947-10.3210754,2.5308685-15.3848877,4.1062164
			c-5.7592468,1.791687-11.3970947,3.9735413-17.660553,6.1883545
			C484.6281128,225.5505676,496.9397278,224.0908051,501.8778076,235.9886017z M503.1483154,160.3420258
			c-4.2958374-0.0740204-13.7153625,2.2821503-16.9625854,4.8085022c-2.4214478,1.8839874-2.4095764,5.2957153-3.730072,7.9123077
			c-0.368866,0.730957-0.6711426,1.520752-1.1654053,2.158432c-1.3738098,1.7724457-2.2142639,3.4690094,0.3224487,4.9243774
			c2.1430969,1.2295074,4.3523865,2.0141144,6.0088501-0.6733246c1.9908752-3.2299652,4.6368713-5.4003296,8.5580444-4.4763489
			c3.6676331,0.8642426,4.5294495,4.1542664,4.7725525,7.3528137c0.2559509,3.3676453,2.7767944,2.0432281,3.9432678,1.7115631
			c1.4498596-0.4122162,4.5415344-0.3446503,3.241272-3.5656433c-2.2115784-5.4784851-0.2699585-9.3055878,4.7289734-11.8395233
			c1.7512207-0.8876648,1.9491577-1.6638184,0.9176025-3.4320679
			C511.318573,160.9980011,507.3707886,160.4721222,503.1483154,160.3420258z M477.4963379,162.3526917
			c-1.2004395,0.4012909-2.0006104,1.2010193-2.2355652,2.4478607c-0.6569214,3.4863586-3.169342,5.7759094-5.4073792,8.1686401
			c-6.3534851,6.7926178-16.5174866,5.9034271-20.5423889-1.8656769c-0.6303101,0.5671082-1.1757507,1.1734924-1.8285217,1.6244507
			c-2.3755798,1.6411133-3.7018738,4.1485443-2.9571228,6.6873474c0.8509827,2.9009247,3.751709,3.0337067,6.5833435,3.1340027
			c5.378418,0.190506,10.649353-0.3834229,15.8448181-1.5523529
			C476.8630066,178.7674866,481.346405,170.7032471,477.4963379,162.3526917z M535.0935669,166.5648804
			c2.911438,0.7384796,3.9070435-1.8335876,4.6087036-4.6205444c0.6096191-2.4212036,0.4403076-4.6323242-2.3269653-5.7339478
			c-7.4740601-2.9754181-18.0648804,4.481781-17.9038086,12.6084747c0.0559082,2.8176575,1.744751,5.2011414,3.9405518,5.9104156
			c2.8307495,0.9143524,3.3771973-1.8256531,3.9786377-4.1646423
			C528.2710571,167.1413879,530.8153687,165.920578,535.0935669,166.5648804z M459.4137573,173.6629028
			c4.7556458,0.0505371,10.6846924-4.1489716,11.8829956-8.6219635c0.7333984-2.7375183-0.1478271-5.4094849-3.3439026-5.0633545
			c-4.8632507,0.5267181-9.697937,1.6936493-12.4040527,6.6767883c-0.8807983,1.6220093-2.014801,2.8365326-0.7815552,4.8852844
			C455.9526367,173.5089722,457.8972168,173.0606995,459.4137573,173.6629028z M543.5680542,180.549408
			c0.3094482-0.0491486,1.4477539,0.0758362,2.1375732-0.4213104c0.7634277-0.5502319,0.230957-1.6776886-0.3409424-2.1990051
			c-2.7960205-2.5487366-5.5509033-5.1815491-8.609375-7.3830566c-1.1195068-0.8058014-3.2202759-1.5136719-4.437439,0.4369354
			c-1.0671997,1.7101898-0.9507446,3.2206268,0.515686,4.9411926
			C535.5446777,179.1051483,539.105896,180.0106049,543.5680542,180.549408z M517.973999,188.425354
			c0.4844971-4.1697388,1.309082-7.6723633,0.3894653-11.3137665c-0.6213379-2.4601593-1.4168701-4.9206696-4.4014282-3.9808807
			c-2.5957642,0.8173981-3.7963257,3.3110046-2.7261047,6.0302277
			C512.5976563,182.6208649,514.0939331,186.1094666,517.973999,188.425354z M485.5447083,191.5934601
			c4.3774719-2.3478394,7.6122742-4.1876068,10.065979-7.1967163c1.3674316-1.6769714,1.6411133-3.437912-0.0270386-4.8020325
			c-1.8323669-1.4983673-3.5422363-0.2655334-4.6451721,1.2506256
			C488.8241577,183.7516937,486.8928833,186.8023682,485.5447083,191.5934601z"/>
		<path d="M278.111969,196.8892517c-3.6989136,0.4560547-5.7316589-1.9901428-8.2146912-3.5200653
			c-1.3512573-0.8325806-3.1991882-2.1924133-4.4621582-0.5201263c-1.5959167,2.1131744,1.0180359,2.6704254,2.1327515,3.58078
			c1.541626,1.2590179,3.3054504,2.2413025,4.9206848,3.4156189c4.7456055,3.4502106,5.205719,5.7212067,1.8330688,10.750824
			c-2.3059082,3.438797-5.1595154,6.5242157-7.3207092,10.0425415c-2.5979614,4.2293701-5.5774536,4.2549438-9.5552673,2.1294098
			c-8.1228027-4.3403931-8.0987854-4.1931152-13.1261597,3.755127c-4.7163696,7.4565735-9.54776,14.8430939-14.461441,22.1713257
			c-3.9757233,5.9293518-5.3003845,6.1272736-11.2667236,2.4342499c-3.8138275-2.3606567-7.695282-4.6153412-11.4606171-7.0502472
			c-4.5276794-2.9279022-5.2931519-5.3199463-2.5206604-9.9742584c5.3643951-9.0054626,10.9597473-17.8769836,16.6313477-26.6934357
			c1.5692444-2.4393463,2.6349487-3.932785-0.9423828-5.6951294c-3.8633728-1.903244-4.3288879-5.6267242-2.6355896-9.3149567
			c2.2844849-4.9759216,4.7707214-9.8188171,8.302597-14.1503601c2.5285339-3.1010437,5.022934-4.0812531,8.475174-2.1912079
			c3.5238953,1.9292755,6.0507202,1.7467346,7.9152527-2.4033051c1.1367035-2.5300598,3.0611877-4.7595215,4.8707428-6.9242554
			c6.1633759-7.3731232,17.360672-9.3105469,25.619339-4.5290985c5.1625671,2.9889679,10.292511,6.0343475,15.4610291,9.0128784
			c4.3955383,2.5330505,5.9430542,6.8574677,3.5090332,11.2419281c-2.2567139,4.0651855-4.9993591,7.8586884-7.476532,11.8041687
			C282.7694397,196.7632751,280.3017273,196.8765259,278.111969,196.8892517z M284.0358276,179.6629639
			c0.2905579-3.2593231-0.9260559-4.595932-2.9638367-5.5164337c-3.3300476-1.504303-6.6497192-3.0451355-9.8912354-4.7294159
			c-8.7304688-4.5363617-16.6214905-2.5003052-21.9685974,5.8028564c-1.9812164,3.0764618-4.1006775,6.0921936-5.765564,9.3365631
			c-1.855545,3.6159515-3.9633484,3.8965912-6.9184875,1.4061279c-3.0485687-2.5692291-5.6329651-3.1186676-7.7658691,1.3118591
			c-1.675415,3.4801636-5.9809265,6.7680969,0.7136536,9.5200806c4.0024567,1.6453094,3.8727875,3.9343414,1.5870819,7.3083344
			c-5.2256317,7.7137146-10.0197906,15.7180939-15.094223,23.5362701c-7.1282196,10.9824829-5.5872498,9.0044403,3.1410828,14.79245
			c3.1306458,2.0760345,5.2923279,2.2785339,7.583786-1.5019226c4.9131622-8.1057587,10.2272949-15.9766235,15.5739746-23.8093872
			c6.5717163-9.6274109,4.0192413-10.0236053,14.6647491-3.065567c1.3755188,0.8990631,2.4824219,2.0581665,4.4489746,1.0193024
			c6.0906067-3.217453,6.6764526-9.3869629,1.1360474-13.1495972c-0.5502625-0.3737183-1.1031494-0.7436066-1.6528931-1.1180878
			c-6.7471619-4.5960236-6.8218842-4.9409332-2.5293579-11.6549988c2.9041443-4.5424652,5.3843689-5.2884064,10.5123596-3.1457825
			c2.1450806,0.8963013,4.3078918,1.7567139,6.4132996,2.7391815c1.4880371,0.6943817,3.088562,1.0076447,4.1500244-0.2798157
			C281.7432861,185.6359406,283.1583252,182.2767181,284.0358276,179.6629639z"/>
		<path d="M341.0194702,303.3995972c0.223114-13.6871338,6.0902405-22.6726685,18.2182922-25.0776672
			c6.1141052-1.2124329,5.8919983-1.1820374,2.7863464-6.5445557c-5.8609314-10.1199646-2.4900513-19.7575684,2.6446228-28.7786255
			c5.6383362-9.905899,15.8360596-10.5888672,25.3813477-9.4889526c9.5083313,1.0956573,18.7818604,4.3103485,28.1225281,6.7340698
			c3.15271,0.8180695,5.6165466,2.6065063,7.0238037,5.8254089c1.3469543,3.0810089,1.2863464,5.2298737-2.0739441,6.9688416
			c-3.1724548,1.6417999-2.9680786,3.8992004,0.199646,5.7076111c6.3596497,3.6306152,8.18396,2.9429321,11.1802979-4.2144318
			c3.0871887-7.3744202,10.5978394-8.3010864,16.154541-2.2896423c2.7005005,2.9215546,1.1464233,5.5440521,0.3209534,8.2508698
			c-2.4723206,8.1075745-2.4240112,8.2960815,5.8312988,11.0291748c4.910614,1.6257935,6.7189331,4.8398438,5.2464905,9.3248596
			c-2.2822876,6.9515991-5.1350098,8.9730225-10.5319214,7.4495544c-0.4789429-0.1351929-0.931366-0.3616333-1.4053955-0.517334
			c-6.9316406-2.2771301-6.8476257-2.2381897-9.74823,4.2321472c-1.6828003,3.7536926-3.0941772,7.6833191-8.7680359,7.0823975
			c-8.7304077-0.9246826-11.0265198-4.1983643-8.3583679-12.5333252c0.6376343-1.9920044,3.0019836-4.1225891,0.7985229-6.3517456
			c-2.4851685-2.5142517-10.6732483-4.1708374-12.9188843-2.8008423c-2.8218994,1.7215576-5.4701538,3.6511841-8.5539246,5.0235596
			c-3.230011,1.437439-1.4830933,3.6972046-0.1082458,5.7159119c6.7516785,9.9136353,6.414917,22.23526-1.1388855,31.4786377
			c-4.5869141,5.612854-10.7237549,9.1792297-17.978302,9.4156494c-9.0447083,0.2947693-17.8688965-1.3426208-25.9612122-5.8312378
			c-2.737854-1.5186768-5.861908-2.4751892-8.3218384-4.3339539
			C343.2566528,314.4900818,340.5053406,308.4862976,341.0194702,303.3995972z M383.4237366,322.4032288
			c8.4762878,0.3843994,17.0637817-7.2245483,17.2417603-18.9620667c0.0915222-6.0357056-3.3553467-10.6864014-6.3403931-15.4476013
			c-3.3192139-5.29422-2.9876709-6.7679443,2.5079651-9.5089722c4.7427979-2.3655396,9.7415771-4.4220886,12.1564941-9.7646484
			c2.2137146-4.8972473,5.9514465-9.4631348,2.7955322-15.3547211c-0.2353516-0.4393768-0.08255-1.4567413,0.2757263-1.7879486
			c4.6662598-4.3140106,1.7782593-5.2716064-2.4653931-5.9226379c-1.4342957-0.220047-2.7621765-1.0974731-4.1543884-1.6337585
			c-6.7167053-2.5874481-13.5202026-4.7619171-20.8718872-4.1392212
			c-8.9775391,0.7604065-13.969635,6.6177216-17.0141602,14.2046661
			c-2.6766663,6.6701202-0.6483765,12.8209991,4.3520508,17.7873077c1.9755249,1.9620056,4.4511414,3.5068665,6.9006958,4.8826599
			c2.8681641,1.6109314,2.5415649,4.1612244,2.1709595,6.5487976c-0.4568787,2.9436951-2.9580688,1.3020935-4.461853,1.3525391
			c-6.0612488,0.2032471-12.1070862-1.4818115-18.1542969,1.3092346
			c-5.9048462,2.7253723-9.2890015,7.3049927-10.2369385,13.1991272c-0.74646,4.6413269-0.644043,10.2016602,4.040863,13.1148682
			C360.5193481,317.4749756,369.2958069,321.9567566,383.4237366,322.4032288z M451.8521118,281.6279907
			c1.8543701,0.140564,3.4621277,0.0948181,4.0116882-1.6738281c0.542572-1.7462158-0.6899109-2.9960632-2.0635376-3.5649414
			c-3.3777771-1.3989258-6.8257751-2.6748962-10.3338928-3.696991c-2.5139465-0.7324219-3.171936-1.8756714-2.1751099-4.3081665
			c1.1347046-2.7689514,2.0758972-5.6228333,2.9794312-8.4783325c0.4130859-1.305481,0.5046387-2.8579407-1.1299133-3.375946
			c-1.6239014-0.5146179-2.4085999,0.8213196-2.9006042,2.0923157c-1.0806274,2.7917786-2.2053223,5.5809631-3.0338745,8.4515076
			c-0.7383423,2.5581665-1.9742432,3.0673828-4.4046936,2.0991516c-3.0858765-1.2293091-6.2825317-2.195343-9.4673767-3.1554565
			c-1.6598816-0.5003967-3.5148315-0.6132507-4.3079834,1.3352661c-0.9127502,2.2424316,0.6611328,3.3897705,2.4803772,4.1302795
			c1.5390015,0.6264648,3.1430969,1.0917664,4.7133179,1.6427612c8.7313538,3.0638733,8.3221436,1.436615,5.2095947,10.3395386
			c-0.3846741,1.1003113-0.8458862,2.1784058-1.1587219,3.2983093c-0.4769287,1.7071838-1.5919189,3.9060974,0.8477173,4.6968384
			c2.0870972,0.6764832,2.5845642-1.5071106,3.1546936-3.055542c0.8631287-2.3442078,1.9395142-4.6377563,2.5241699-7.0500488
			c0.8564758-3.5339966,2.6920166-4.0751343,5.8501282-2.7980957
			C445.7258606,279.8014526,448.9535522,280.6768799,451.8521118,281.6279907z"/>
		<path d="M635.2998657,303.9245911c-0.1914063,2.0619812-0.2771606,5.4132996-0.8660278,8.6737976
			c-0.6369019,3.526947-0.583252,6.8951416,0.395874,10.3479614c1.8280029,6.4465332-0.0438843,11.7930603-4.3724976,16.914856
			c-9.3502197,11.0635986-20.8508911,12.7647095-34.2197876,9.634552c-5.095459-1.1930237-10.604187-0.541626-15.9099121-0.9302368
			c-18.9558105-1.3885193-38.8997803-14.4331665-44.6604004-34.3633728
			c-2.7877808-9.6450195-2.6630249-19.3721924-3.2155762-29.1091614c-0.2564087-4.5189514-1.536438-8.798645-1.9857178-13.2767944
			c-1.3379517-13.3354187,13.067627-27.1663055,24.2269897-27.7567749c5.2130127-0.2758484,10.2926636-0.700119,15.267334,0.7698364
			c6.9138794,2.042923,14.0960693,1.9961853,21.1120605,3.1898804c26.5339355,4.5144653,41.1300659,20.0521545,43.7045288,46.661377
			C635.0331421,297.3302307,635.0840454,299.9998474,635.2998657,303.9245911z M560.3574219,251.07724
			c-13.7053833-0.4450531-25.1616211,11.7884521-22.6629028,25.063385
			c1.732605,9.2045898,1.7014771,18.4064026,2.7790527,27.5574951
			c2.0369873,17.2981262,18.2928467,33.0861816,35.0672607,36.4272156
			c7.4832153,1.4904785,15.1964722,1.7922363,22.7792969,2.8246155c8.4783936,1.1543274,16.4837036,0.9289551,23.5565796-4.9730225
			c5.5098267-4.5976868,8.241272-9.9203491,6.2416992-17.0715332c-1.0560303-3.7770996-0.8924561-7.4971924-0.434021-11.3606262
			c1.0332642-8.7077332-0.3430786-17.438385-2.465332-25.7073059c-3.8626099-15.0498352-24.2440796-31.1194-40.0350342-29.2027283
			c-3.6743774,0.4459839-7.6711426-0.4264984-11.3186646-1.4255219
			C568.9852905,251.8726044,564.0637207,251.3606262,560.3574219,251.07724z"/>
		<path d="M371.0013733,291.1716614c4.9776611,0.1264648,10.2746887,1.7701416,15.1488647,4.8606567
			c4.2469177,2.6928101,7.14328,5.9734802,5.5886841,11.4857788c-1.1628723,4.1233521-5.633728,7.8510437-11.0255737,7.70047
			c-6.7365723-0.1880798-13.5328064-0.82547-18.4723511-6.7258301c-2.9470215-3.5202332-6.3674011-6.6749573-3.7813416-11.7310791
			C360.894165,292.0018311,365.2484741,290.8303223,371.0013733,291.1716614z M372.3682251,297.492981
			c-2.3763428,0.8519287-6.285553-0.9139709-6.9783936,2.9565735c-0.6257629,3.4959717,2.3864746,5.0992126,5.2228699,6.3180237
			c2.7956848,1.2013245,5.6887817,1.6813965,8.7044678,1.0379944c4.3266907-0.9231567,5.2700195-3.8621826,2.280365-7.1436768
			C379.1311035,297.9546814,375.7136536,297.9831848,372.3682251,297.492981z"/>
		<path d="M378.4035645,259.4703369c-0.2194824-2.9960022,0.4408875-6.1773224,2.4217224-9.0153198
			c2.2926636-3.2847137,5.2291565-4.9576569,9.3557129-3.9431763c4.0760498,1.0020905,6.5835571,3.1260071,7.1765137,7.6545258
			c0.6816406,5.2054901-0.3894653,9.9490509-2.9408569,14.2781525c-1.7034607,2.8903503-4.5549927,5.0722351-8.1140442,4.9460754
			c-3.2616577-0.1156006-5.1318359-2.6369019-6.6216431-5.3545227
			C378.2663269,265.4555664,377.8753357,262.7432556,378.4035645,259.4703369z M384.8683777,259.4399109
			c1.1004944,2.0959473-0.7477417,6.3418884,3.2080383,6.4803772c3.1972961,0.1118774,3.24823-3.7892456,3.4177551-6.1929932
			c0.1914978-2.7149048,1.149231-7.0306091-2.7382202-7.3514557
			C384.5528259,252.0289764,385.8027344,256.5458374,384.8683777,259.4399109z"/>
		<path d="M582.8374023,327.7821655c-11.1907349,0.2293091-21.3034058-5.4837036-24.541626-13.8641052
			c-1.6405029-4.2453918-0.5602417-8.1098328,2.6394043-9.4421692c3.7177734-1.5481262,7.0784912,0.0324402,9.0146484,4.5263672
			c4.1520996,9.6371765,14.1390991,10.527832,21.515625,7.7563171c2.5845947-0.9710999,4.3762817-2.960144,4.6787109-5.9744263
			c0.3242188-3.2315674-1.6572876-4.8553467-4.1130371-6.1953125c-5.3319702-2.9093628-11.3712769-3.7171936-17.0139771-5.7065735
			c-2.3536987-0.829834-4.8258667-1.3485718-7.1307983-2.287262c-6.6213989-2.6965027-8.942627-6.6247864-8.7495728-14.4041138
			c0.1435547-5.7850952,3.7411499-10.4450684,9.4915161-12.6618652c9.7522583-3.7595215,19.3911743-4.1691284,29.0788574,0.2833557
			c4.0812988,1.8757629,7.5610962,4.2974854,9.302063,8.5544739c1.1123657,2.7198792,1.5534668,5.5567017-1.2077637,7.7287903
			c-2.8183594,2.2170105-5.5734863,1.5378113-8.1022949-0.5074158c-2.3252563-1.8806458-4.8673706-3.6491089-6.6943359-5.957428
			c-3.8075562-4.810791-11.9014282-3.59552-16.0144653-0.7637634c-3.1499023,2.1686096-1.7406006,6.9246826,2.4279175,8.4733887
			c6.0748901,2.2569885,12.1820679,4.4325867,18.3184204,6.51651c2.7131348,0.9214172,5.0194092,2.6208496,7.5629272,3.73526
			c10.5109863,4.6053162,6.8964844,20.8397827-0.4385376,25.0195007
			C596.5413208,326.2129517,589.9434814,327.7319946,582.8374023,327.7821655z"/>
	</g>
</g>
</svg>
