<?xml version="1.0" encoding="utf-8"?>
<!-- Generator: Adobe Illustrator 19.0.1, SVG Export Plug-In . SVG Version: 6.00 Build 0)  -->
<svg version="1.1" id="Support_xA0_Изображение_1_"
	 xmlns="http://www.w3.org/2000/svg" xmlns:xlink="http://www.w3.org/1999/xlink" x="0px" y="0px" viewBox="0 0 700 400"
	 style="enable-background:new 0 0 700 400;" xml:space="preserve">
<g>
	<g>
		<path d="M249.6426086,250.9000244c-2.9591064-7.5115814-7.7026825-11.8786316-11.3577881-16.8583527
			c-4.7034302-6.4079132-9.309845-12.8750916-13.6808929-19.4991608
			c-5.8396149-8.8495941-11.9003754-17.6130676-16.9184418-26.9242706
			c-3.4439087-6.3903046-6.3552094-13.2143402-10.5749054-19.0261993
			c-6.2611389-8.6235657-2.006958-16.1200867,0.9720001-23.8727417c3.2990265-8.5855865,8.7442627-15.6767273,15.8741455-21.5534744
			c2.4793854-2.0435944,3.395462-4.5137177,1.6690979-8.1087952c-5.1790009-10.7851868-16.8993225-17.6981506-28.5629578-16.2629547
			c-3.4705048,0.4270477-6.950531,0.9370041-10.4371643,1.0409851c-8.4376221,0.2516632-13.3047943-5.3244324-11.3704224-13.4460831
			c4.6061096-19.3391266,16.2665558-31.9078064,35.8682404-36.8541107
			c12.5547485-3.1680756,24.99263-3.7843857,37.4344635,0.2657585c1.885498,0.6137848,3.423233,0.4981651,5.1305542-0.6672707
			c3.213028-2.1932411,6.9968109-2.6906128,10.548233-1.4694977c4.1134796,1.4143677,8.156723,1.1180725,12.2864227,0.8480148
			c7.5899658-0.4963341,14.6048279,1.4184608,20.8056335,5.6930885c6.442627,4.4413376,12.7302856,9.1290398,18.4589539,14.5045509
			c3.1991577,3.0019531,5.0602417,2.5032578,6.0502625-1.7781754c1.7319946-7.4899559,6.2582397-12.7014351,12.8678894-16.3043823
			c4.0152283-2.1887398,7.2326355-5.949604,12.2644958-6.1408958c1.99646-0.075901,4.3964539-0.6493683,4.8475342,2.0779381
			c0.4163818,2.5176888-2.0110474,2.9619141-3.6997986,3.1218834c-9.1665649,0.8683319-15.868988,5.4245415-20.4668579,13.2416687
			c-0.8320923,1.4147453-1.404541,2.9968529-1.9727173,4.5471916c-0.4023132,1.0977936-0.7369995,2.3891449,0.6005859,3.0986176
			c1.1748047,0.6231079,2.3903503,0.9762344,3.6998901-0.0760117c7.5957336-6.1033936,17.4561157-7.1496124,25.8810425-11.4515076
			c2.5119934-1.2826576,5.5344849-1.1825371,8.3684387-0.7458572c1.6980286,0.2616463,3.4458618,0.9614983,3.4263916,3.0006943
			c-0.0205994,2.1521416-1.9525146,2.9091415-3.5670471,2.5900345c-9.8894958-1.9546432-17.9844971,3.4804077-26.699585,6.2879868
			c-2.9877319,0.9625092-5.9657898,1.8172989-2.7085266,6.291626c2.7830811,3.8229599,4.4577332,8.5069275,6.3109741,12.9403381
			c2.9605408,7.0824738-0.8746338,12.4982071-8.5167542,12.5451431c-7.4814758,0.0459442-14.079071-2.2211838-19.8180847-6.999382
			c-3.1027527-2.5832443-6.0126343-5.2913971-6.7734375-9.5638962c-0.6387329-3.5869904-3.5524292-2.5965805-5.5701904-2.2256393
			c-2.4060974,0.4423218-1.4837952,2.6332397-1.0455933,4.1133423c1.7595215,5.9432678,6.2727661,9.6787643,11.0290527,13.1021423
			c2.0147705,1.4501495,4.4014893,2.3716812,6.5068359,3.7102051c5.0703735,3.2236481,8.6645508,7.2354431,9.8746338,13.6282196
			c2.4200745,12.7852478,7.5457153,24.664444,13.2767944,36.3423157c3.6933594,7.5258026,5.7767944,15.0126801,0.1087036,23.391449
			c-6.7377319,9.9599304-11.7113037,21.0330963-16.7518311,32.0471039
			c-4.306366,9.4097595-0.8628235,16.3056183,4.6305237,22.708374c6.3822021,7.4387207,13.2183533,14.6573334,20.7494812,20.8943787
			c7.864624,6.5132294,16.0054016,12.7825775,24.5996399,18.4338531
			c11.0551453,7.2695007,22.6240234,13.4772644,34.7684937,18.6494141c4.7406311,2.0189819,9.5888062,3.783905,14.3663635,5.717926
			c5.8005066,2.3480835,9.5741882-1.9866028,13.1028442-4.8052979c10.7567139-8.5924072,19.9506226-18.860321,29.1868896-29.0655518
			c2.866272-3.1669312,7.1656189-4.4978333,11.6671448-4.0310059c12.1564941,1.2607117,24.3215637,3.1637573,35.5826721,7.7865295
			c10.6166687,4.3582153,20.8680115,9.7439575,29.6860046,17.5720215c3.668335,3.2565002,6.742981,7.0803833,10.5584106,10.1154175
			c6.7353516,5.3576355,14.6672974,4.6193542,17.2042236-4.1257019c1.0577393-3.6459656,4.0546875-6.0000916,5.4641724-9.4074402
			c1.8271484-4.4171753,0.6716309-6.7338562-4.1508789-6.7643127c-9.0427856-0.0571594-16.6331787-3.849884-23.6485596-9.0139771
			c-3.4746704-2.5578003-5.2039185-6.1428223-3.3709106-10.4620209c1.694458-3.9925537,4.7435303-6.6068878,9.1907349-7.1217346
			c3.8847656-0.4497528,7.8012695-1.025589,11.6878662-0.9255676c2.8168335,0.0724945,3.4049683-0.4288635,2.1897583-2.9665527
			c-2.8861694-6.0269012-5.4463501-12.2253571-8.6201172-18.0938568c-2.2785645-4.2132263-7.5141602-5.4443207-10.5460205-9.1565399
			c-1.1793823-1.4441071-2.972229-2.2785645-1.6444702-4.3639984c1.1865845-1.8638153,2.916748-1.7737732,4.7658081-0.8772583
			c7.3390503,3.5583496,10.7630005,10.320755,13.078125,17.396759c1.9414063,5.9338837,6.6834717,10.4746094,7.4836426,16.904129
			c0.3125,2.5113373,3.0987549,3.0712891,5.1279907,2.9302673c1.906311-0.1324921,2.0284424-2.3463135,2.2822876-3.9847412
			c1.7597656-11.3596039-1.617981-20.9053345-10.5237427-28.1837769c-1.4074097-1.1502533-1.8331909-2.6152954-2.8981323-3.72258
			c-1.2783813-1.3291321-2.4981689-2.7750397-1.0333252-4.2014008c1.461731-1.4233856,3.4725342-1.3098297,5.3555908,0.0790405
			c5.3833618,3.97052,7.53479,10.1429596,10.1152954,15.7453766c3.6982422,8.0291443,3.5792236,16.7411957,1.5048218,25.333725
			c-0.2106323,0.8725128-0.4628296,1.7751617,0.1984253,2.3103638c3.9343262,3.1839905,4.2130737,7.8847504,5.2269897,12.2758331
			c0.5997314,2.5973206,2.0273438,4.036438,4.5704956,5.2617188c11.8929443,5.730011,21.7212524,13.7288208,26.624939,26.5273132
			c0.4675293,1.2203369,1.2727661,1.8297424,2.2213135,2.5051575c1.0681763,0.7606506,2.6602783,1.4796753,2.9580078,2.5215454
			c3.1253662,10.9360962,14.3560181,11.3710022,21.571228,16.9671936
			c8.2279053,6.3816833,17.8477783,11.3269043,23.1611328,20.8947754
			c5.8147583,10.4705811,4.3354492,26.7366028-3.6022339,35.0688782c-3.5276489,3.7030029-8.8911743,2.7928467-13.0098267,1.3033752
			c-15.9933472-5.7834778-27.9287109-16.4548035-35.0776978-31.9900513c-1.4680176-3.190094-1.902771-7.0150452-2.116272-10.5890198
			c-0.4055786-6.7922974-1.2715454-13.0971375-8.8510742-15.8100281c-0.0799561,3.4047852,1.2963867,6.6829224,2.5115967,9.87323
			c4.6169434,12.1207275,6.3043823,24.742157,6.9891968,37.5706177c0.269104,5.0412598,1.539856,9.8512573,3.3369141,14.543396
			c0.355896,0.9292908,0.7351685,1.8704224,0.9155273,2.8410339c0.2321777,1.2496338-0.1724243,2.5519714-1.4013062,2.8863831
			c-1.3342285,0.3630981-1.4434204-1.109436-1.7210083-1.962677c-2.5168457-7.7357483-6.0462646-15.2654419-6.5284424-23.4789124
			c-0.5904541-10.0563049-2.8525391-19.6722717-6.1119385-29.1215515c-0.5076904-1.4718628-1.0761719-2.9227295-2.4533691-4.2290955
			c-0.9000854,5.8315735-1.8132324,11.6612244-2.6952515,17.4955139c-0.5091553,3.3676453-1.9418945,5.986145-4.3869019,8.6083984
			c-8.6709595,9.299469-19.6430664,16.7780457-24.116272,29.5446167c-0.5307007,1.5144958-1.7788696,3.3098145-3.7667847,2.2379761
			c-2.3875122-1.287384-0.5337524-2.8434448,0.3212891-4.0955811c5.9967041-8.7813721,10.2432251-19.0608826,18.8111572-25.6946716
			c10.6381226-8.2366028,9.9927979-19.7967529,10.6460571-31.0484314c0.2485352-4.2809448,0.8994141-9.0646667-3.4503784-12.887085
			c-2.1896362,6.4288025-0.2246704,12.3753967,0.3399658,18.2850342c0.5526733,5.7849731-0.7771606,7.0958557-6.6881714,7.2736206
			c-9.8754272,0.2970276-19.1558228-2.5737305-28.5050049-4.9471741c-3.3023682-0.8383484-3.8372803,0.0030518-4.4824829,2.9269104
			c-1.7213745,7.8010559-4.6225586,15.1863708-8.1817627,22.3917542
			c-4.2817993,8.6681824-10.0333252,16.1122742-17.0632935,22.5762329
			c-4.8712158,4.4790344-9.474762,7.7891541-17.5895386,6.2806396c-14.2648926-2.6517639-28.9665222-3.2310486-43.2591858-5.9842224
			c-13.1715393-2.5372314-26.2639465-5.5823975-39.0782776-9.8152161
			c-11.2771606-3.7250977-22.4370117-7.6885986-33.2956848-12.4587402
			c-7.9069519-3.4734802-15.5275879-7.5575867-23.2261963-11.4816895
			c-16.0780029-8.1952515-30.7731628-18.4433594-45.1199036-29.2227173
			c-7.9667053-5.9857788-15.8622742-12.1230469-22.8323364-19.328125c-1.2303162-1.2718506-2.7807922-2.2339478-3.8637085-3.0871887
			c0.6855774,14.5019226,5.0908203,28.031311,12.964325,40.223999c3.0309448,4.6936646,7.4512634,8.4890747,11.2298889,12.7015381
			c1.2563782,1.4006653,2.5366516,0.9681091,4.0509644,0.3490906c11.538208-4.7161255,24.6289673-1.6993408,32.4459534,7.5729675
			c1.7164001,2.0358887,3.7160034,2.4551086,6.1451416,2.5908203c7.73703,0.4321899,15.0720825,2.553894,22.1150818,5.7138977
			c4.4578552,2.0000305,7.5913391,5.4770508,9.638092,9.756134c2.7067871,5.6589661-0.0128174,9.7984009-6.1821899,9.8095703
			c-12.9993286,0.0235291-26.0120239-0.377594-38.9959412,0.0707703
			c-90.2260284,3.1159058-180.477478,0.4787903-270.7113342,1.4072571
			c-6.27034,0.0645142-12.2658806-1.2552185-18.1764259-2.9308167c-6.9870262-1.9807434-10.6309547-7.1517944-10.671524-14.4894104
			c-0.0185204-3.3501892-0.3843269-6.5991211-1.0873566-9.88797c-0.9871521-4.6180725-0.6552544-9.0581055,1.574173-13.5618286
			c2.9147377-5.8881531,1.7344551-12.7661743,3.4998741-19.0097351c0.1331367-0.4708252-0.0639076-1.0647583,0.1386528-1.4819336
			c4.9470863-10.1886902,4.829113-21.5994568,7.819828-32.2465515c2.5628242-9.1238098,5.6562576-18.0975647,8.2856178-27.203949
			c4.2379265-14.6774139,15.9663658-21.6413727,28.8473015-25.9220428
			c20.7708359-6.90271,42.3092499-9.4400024,64.3702393-9.9523621c14.4447327-0.3354797,27.0627441,4.5142517,40.1959991,8.1664886
			C214.0598297,238.7523499,231.7646027,242.7351379,249.6426086,250.9000244z M416.2438965,301.6848755
			c-0.9655151,0-2.0487671,0.2910767-2.8784485-0.0446777c-9.0343323-3.6553955-18.1386108-7.1680908-27.0035706-11.2035217
			c-8.8980103-4.0505676-17.2597351-9.0887146-25.463501-14.4776917
			c-10.3708801-6.8125305-20.1705017-14.3554688-29.3929443-22.5409241
			c-7.115448-6.3154297-13.617218-13.4632874-19.5470886-20.9133911c-2.9133911-3.6603851-7.0415955-7.6348267-6.5133057-12.8913269
			c0.7042236-7.0065155,3.4946594-13.5863953,6.5953369-19.8747711c4.3673401-8.8571167,8.8795166-17.6354828,14.4110413-25.8947906
			c1.2635498-1.8866577,2.9873962-4.7718353,2.2176819-7.7539215c-2.8608093-11.0836487-7.9102173-20.9947815-15.340332-29.7766571
			c-10.2637329-12.1310883-22.9961243-20.8097992-37.4398499-26.9941177
			c-7.6243896-3.2645035-15.004425-8.2519226-24.1703644-3.5409241c-8.6583252,4.4501114-17.6639099,8.115181-25.6874542,13.8505554
			c-7.402832,5.2917099-14.5977173,11.0235672-18.8466034,18.8922806
			c-4.6213837,8.558548-12.1460114,16.8372192-4.8267212,28.401474c4.0007019,6.3209534,6.9681549,13.6335907,10.9482422,20.0171814
			c7.6788483,12.3159027,15.1506042,24.7864227,23.6423645,36.6321259
			c7.5682526,10.5574188,15.2265625,21.0911102,23.5085602,31.011734
			c7.1579895,8.5742035,14.8955383,16.8072662,22.9963074,24.6436005
			c8.2918091,8.0211182,16.5900879,16.008728,25.4910583,23.3408203
			c8.0819092,6.6574402,16.7029724,12.6089783,25.1217346,18.8045959
			c7.2812805,5.3584595,15.0169983,9.9545898,22.6390381,14.5441589c7.0855103,4.266571,14.776825,7.8700256,22.3869324,11.4257813
			c9.3362732,4.3623962,18.7199402,8.6184692,28.4137573,11.9277954
			c13.2642822,4.5282288,26.717804,8.6056824,40.4962769,11.4196777c6.7999573,1.3887634,13.5392151,3.2183228,20.4015503,4.1257629
			c11.1749268,1.4777832,22.4759521,2.0395508,33.6209106,3.6848755c3.5908203,0.5300903,6.2513733-0.1758728,8.6439209-2.1742249
			c4.8601379-4.0593567,9.1452332-8.5976868,12.953949-13.8078308c5.4986572-7.5220032,9.1755981-15.7330322,12.2064819-24.3782043
			c2.7958374-7.9749146,3.571106-16.3102112,4.3070068-24.6345825c0.4147949-4.6922302,2.3865967-9.6026611-0.451416-14.0665894
			c-6.2235107-9.7889099-15.6190796-16.4311829-25.2207642-22.085083
			c-12.6199036-7.4311523-26.7687378-11.5543213-41.3740845-13.4794617
			c-5.3699341-0.7077637-11.1070862-2.0106812-15.5662537,2.7428894c-3.3630676,3.5851135-6.5423889,7.3847351-9.9336243,10.8953552
			c-6.5716553,6.803009-13.2611084,13.6077271-20.941803,19.190918
			C423.5852661,298.9300537,420.5934753,301.8987732,416.2438965,301.6848755z M196.8664398,377.1389771
			c13.496521,0,26.9930573,0.0003357,40.4895782-0.0000916c28.8259888-0.000946,57.651947,0.0057373,86.4779358-0.0113525
			c4.8938904-0.0028992,5.5029297-0.8613586,3.8300171-5.5115051c-1.6116638-4.4801025-4.7605591-7.9375916-7.7688293-11.5201721
			c-9.5656128-11.3917847-21.6271973-20.7432556-27.6580811-35.0423279
			c-2.5847778-6.1282959-6.2235107-11.8453674-6.3022766-18.7217407c-0.067688-5.9092712-2.6750183-10.7432861-5.2598572-15.8316956
			c-3.081543-6.0661926-8.5467224-10.1456299-11.9509277-15.8067932
			c-6.6937561-11.1317139-16.7516327-17.5865479-28.5986328-22.1745911
			c-16.5052338-6.3920898-33.7153931-10.3572083-50.6326294-15.2961578
			c-10.2261505-2.9855194-20.1578217-6.3785706-31.5157776-6.1101074
			c-20.4747009,0.4839478-40.5319901,2.2351837-60.1194077,8.2080841
			c-15.1056976,4.6062775-28.1327972,11.5855865-30.9480209,29.2817688
			c-0.1282501,0.8061523-0.5142059,1.5822144-0.8462296,2.3434448
			c-7.1563988,16.4074097-7.2200813,34.7410889-13.9117889,51.2772522c-0.2398567,0.5927429-0.065731,1.3407593-0.2361794,1.975708
			c-1.7227974,6.4181519-0.3808098,13.4406738-3.5428467,19.5155945c-1.7446404,3.3518066-1.9958496,6.7490234-1.2745819,10.1649475
			c0.698288,3.3070068,0.8366737,6.5822754,0.8834152,9.9134827c0.0886574,6.318512,2.6268005,9.706543,8.666893,11.0591736
			c5.9945145,1.3423462,12.0139503,2.362854,18.2495613,2.3445129
			C115.5537033,377.0768433,156.2101593,377.1349487,196.8664398,377.1389771z M219.7153625,51.6376991
			c-12.4104004-0.023098-23.6330719,3.3217812-33.9875336,10.5176735
			c-8.1924591,5.6933975-12.4302521,13.7259293-15.4830627,22.5458832c-1.8493195,5.342926,0.9209137,9.468483,6.5912628,9.7110214
			c7.2843628,0.311554,14.9471436,1.3391037,21.2228241-4.369812c1.6364136-1.4886398,4.0591431-2.2374268,6.2380676-2.9831085
			c8.339386-2.8539047,16.7306061-5.5545959,24.1188202-10.5735931c1.781723-1.2103653,3.7971802-2.1762848,4.4175415-4.5050354
			c1.2616272-4.7357483,3.8003998-9.0482979,4.1156006-14.1389923c0.1634216-2.6394615-0.2172699-3.9635735-2.8935699-4.6766129
			C229.3383484,51.90839,224.5785065,51.4784088,219.7153625,51.6376991z M608.2919312,328.1552124
			c-0.8453369,4.7188416-0.1316528,9.008667,1.5355835,12.6452637c6.5548096,14.2977295,17.5502319,23.9879456,32.5751343,28.714325
			c2.4150391,0.7596741,5.7053223,1.5198975,8.1129761-0.5223694c5.7626953-4.8883057,10.0308838-19.6258545,4.5744629-26.5327148
			c-5.6032104-7.0926208-11.3985596-13.8156128-19.0170898-18.7845459
			c-5.7225342-3.7322998-10.9780884-8.3945618-18.1602173-9.2484131c-0.8850708-0.1052246-1.7272339-1.2078247-2.6933594-0.1013184
			C611.5947876,318.4768372,605.4489746,321.3772583,608.2919312,328.1552124z M357.9841003,375.9567566
			c5.8172302,0,11.6387939,0.1308289,17.4496765-0.0610352c2.5067749-0.0827332,6.4421997,1.4554138,7.2373657-1.0914917
			c1.0773926-3.4508972-2.6820679-5.6134033-5.1624756-7.7401123c-0.7365723-0.6315613-1.718689-1.0120544-2.636322-1.3914185
			c-6.480835-2.6791382-13.1333313-4.7286987-20.2184448-4.7653809c-3.20224-0.016571-6.1856384-0.7593384-7.8795776-3.4502869
			c-5.3833008-8.5518494-13.7957458-8.7581482-22.4232788-8.6448364c-1.727478,0.0227051-3.6833496,0.2003174-4.4687195,1.6789551
			c-0.9571838,1.8021545,1.0247498,2.9679871,2.063324,4.1148682c5.1528625,5.6901855,10.3150635,11.3371887,11.6860046,19.3126526
			c0.3997803,2.3257751,2.2802124,2.0237122,3.9090271,2.0281067
			C344.3551025,375.9651184,351.1696167,375.9545288,357.9841003,375.9567566z M316.7129211,132.6334229
			c-1.4645386-5.2618103-3.0687256-9.0150757-3.4633484-12.8914719c-0.6740417-6.6215439-4.4353333-10.5967636-9.929657-13.2712708
			c-6.1286011-2.9832458-11.0873413-7.3192444-15.2183228-12.5926895c-2.3441772-2.9924698-4.1089172-6.4315491-6.2999268-9.5534744
			c-1.9737854-2.8123932-4.6724243-5.5384598-8.1348877-3.2697601c-2.7868042,1.8260269-5.5461426,3.5612183-8.5666504,4.9363861
			c-1.1862488,0.5400772-2.8720703,1.0663528-2.7553406,2.5199432c0.1151428,1.434433,1.9219666,1.6803436,3.1077576,2.162529
			c7.9724121,3.2419434,14.8848877,7.9897079,20.7970886,14.2434616c3.0715942,3.2490387,5.8057556,7.1163712,9.4944458,9.4202042
			C303.3227539,119.0706863,309.9804382,124.6676254,316.7129211,132.6334229z M270.7602234,51.9523582
			c-5.7666931,0.0142899-10.6735535,2.385601-12.0477905,5.3996773c-0.8243103,1.8079338-1.1890564,2.8743286,1.7409058,2.9835052
			c8.4498291,0.3148689,9.51828,1.6178856,9.6712036,10.1381912c0.0119629,0.665184-0.1481323,1.3643875,0.0050964,1.990715
			c0.634552,2.594429,3.0114136,2.3749695,4.8262024,2.5424652c2.4285278,0.2241592,1.1446228-1.7481918,1.2456055-2.8451538
			c0.2796936-3.0373917,0.3580933-6.4249573,4.4819031-6.5524902c3.9877014-0.1233215,7.132843,1.6122284,8.3239136,5.7486725
			c0.3640747,1.2643127,0.3816223,2.6313782,0.5276184,3.9547195c0.1631775,1.4794159,0.0346985,3.1916199,2.2480774,3.1413651
			c1.8537903-0.0420914,3.8896484,1.46138,5.5085449-0.7866211c1.1552124-1.6041565,2.293335-3.402832,3.8731079-4.4753876
			c2.2493896-1.527153,1.497467-2.5098648-0.0409851-3.6966629c-5.4029846-4.1678467-10.594696-8.6648521-16.3023987-12.364563
			C280.3867188,54.2563667,275.2184753,52.6331978,270.7602234,51.9523582z M569.1222534,330.1965332
			c9.140564,0.2140198,9.7365723-0.4075928,8.864502-9.4750977c-0.4547729-4.7282715-1.4761963-9.3831482-1.0668945-14.2188721
			c0.1659546-1.960907,0.0983887-4.9646301-2.0031738-5.5793762c-1.3099365-0.3832092-2.9888916,2.0274963-4.1919556,3.5639648
			c-6.1887207,7.9038391-11.4098511,17.2152405-23.7280273,16.2278442
			c-1.2394409-0.0993958-1.9776611,0.9067688-2.2173462,2.2646484c-0.352356,1.9955139,1.2294922,2.2112427,2.3598022,2.5592651
			C554.3236694,327.7510071,561.5266113,329.9279785,569.1222534,330.1965332z M577.4591675,286.3926697
			c6.2002563-2.7599792,10.8494873,0.9139709,10.2658081,7.4768677c-0.1367188,1.537384-1.3171997,3.7456665,1.7703247,3.031189
			c5.4280396-1.256073,6.107666,2.2535706,6.7634277,6.1399231c0.2300415,1.3634338-1.6690063,3.6465759,1.1820068,3.9784241
			c2.3303223,0.2712097,4.1953125-0.9670715,5.1448364-3.2052612c1.4630127-3.4483337,0.6807861-6.833313-0.4864502-10.164032
			c-4.618042-13.1773987-16.420105-18.6815186-27.161499-25.2718201c-2.2722168-1.3940735-3.4562988,1.1689453-4.855896,2.1865234
			c-0.7689209,0.5590515-2.6119385,1.4601135-1.6002197,3.1613159c0.6464844,1.0870972,1.2420044,2.1569824,2.9194946,2.3276672
			C579.8768311,276.915863,580.7833862,278.3871155,577.4591675,286.3926697z M246.1707306,102.1861191
			c-2.6104736-0.7631912-4.7541351-0.3008423-6.8942261-0.2192688c-1.4316711,0.0545654-3.1224518,0.6997681-4.020401-1.0082169
			c-0.8307648-1.5801849,0.2171173-2.8622208,1.0773773-4.0822906c3.2983856-4.6779175,7.7607117-8.1606522,12.1144409-11.7550201
			c2.2306061-1.8415527,4.7609406-3.4677277,5.4642944-7.4391556c-7.0127106,2.44487-14.7595978,1.0602036-19.5851135,7.8664246
			c-0.8765564,1.236351-2.7723846,1.7417908-4.1805267,2.6123962c-0.9562225,0.5912094-2.5045776,0.8337402-2.4668427,2.1998978
			c0.1734619,6.2805557-0.5486145,12.6243591,1.2371674,18.806488c0.5073853,1.7564697,1.1465302,1.9719086,2.7966003,1.0010071
			C236.2850189,107.4785156,240.9935455,105.0214996,246.1707306,102.1861191z M548.4963379,316.8950195
			c5.2904663-0.2756653,9.8565674-1.7785034,13.0690308-6.4876709c2.5826416-3.7860413,5.2981567-7.5994568,8.5733032-10.759552
			c2.8647461-2.7640991,2.4318848-5.6261902,0.3863525-7.5275574c-1.6450806-1.5291138-3.7807007,0.7679138-5.7827148,1.9290771
			c-5.2689819,3.0560303-8.4171753,11.6553345-16.9139404,7.1517944c-0.3894653-0.2064209-1.3201294-0.7080688-1.3671265,0.9402771
			c-0.1071777,3.7547607-0.9108276,7.4839478-1.2108765,11.2411499
			C545.0818481,315.4929504,545.5895996,317.416687,548.4963379,316.8950195z M562.0132446,268.2006531
			c6.2184448,0.1416626,9.2723999-2.5729065,9.2214966-7.8453064c-0.0178223-1.8453064-0.9162598-2.7857056-2.3193359-3.4290466
			c-2.1147461-0.9696198-1.9646606,1.15625-2.4920044,2.0968018c-0.999939,1.7834778-2.6068726,3.5447083-4.3328247,3.1339417
			c-4.0436401-0.9623413-8.3830566-1.0835876-11.9622803-3.8111572c-2.4014893-1.8300781-4.5060425-3.3786926-2.8535156-6.8385315
			c0.4667969-0.9773102,0.2935181-3.1409149-1.0629883-2.4665375c-2.8989868,1.4411163-6.3837891,2.1585999-7.5560303,6.3504028
			c-1.0370483,3.7082672-0.4371948,5.8816376,2.7238159,7.890152
			C547.7186279,267.309082,554.7539063,268.144165,562.0132446,268.2006531z M240.5423584,98.4356079
			c14.3470306-2.1220932,26.6907959,0.5069199,38.5598145,6.2814255c-1.0992126-2.7547226-3.1461792-4.1107101-5.2050781-5.4481277
			c-3.9200745-2.5463943-8.2027283-4.3683701-12.4222412-6.33918c-4.4690247-2.0873718-4.8075867-6.020256-0.7310791-8.7620392
			c2.1830139-1.4682312,4.765686-2.333786,7.1281433-3.5487823c0.6902161-0.3549728,1.6124573-0.7780151,1.3793945-1.8154221
			c-0.2297363-1.0224762-1.505249-1.2949677-1.9658813-1.0215836c-3.490387,2.0716629-8.2116699,1.4679031-11.0084534,4.8448029
			c-1.9307404,2.3312302-4.1378479,4.2762756-6.44487,6.1996536
			C246.8350525,91.325058,243.5305176,93.5775528,240.5423584,98.4356079z M202.8220825,96.8539886
			c-0.1534119,0.3745956-0.3068085,0.7491913-0.4602203,1.1237869c8.4278412,3.0106201,14.1197815,8.70121,17.2879028,16.8170013
			c0.5654602,1.4485397,1.6549225,1.8781738,2.6175385,0.9833832c1.2871246-1.1964417,4.4756165-1.2000885,3.5172577-3.9374695
			c-2.0268707-5.7894058-1.8310242-11.7373657-1.828186-17.6863022c0.0011139-2.3466873-0.9066772-2.8203049-3.0551605-2.2095718
			C214.894989,93.6521149,208.8511047,95.2268982,202.8220825,96.8539886z M305.4328613,76.0756149
			c-4.9229736,3.6026001-6.0932617,8.8105392-3.4462585,13.3601227c3.5088501,6.030899,18.2245789,11.2827454,24.4732056,8.519577
			c3.5773621-1.5819397,2.9880066-4.9640579,2.1605225-7.776886c-1.1197205-3.8061371-3.0716858-0.6891327-4.3962097-0.0210495
			c-3.8635559,1.948761-7.569458,1.3344498-10.8161011-0.9054489
			C309.0363159,86.2358398,306.3140869,81.9025116,305.4328613,76.0756149z M323.5839233,84.634903
			c0.1274109-5.2005615-4.336731-10.5108261-8.7544556-10.5321274c-3.5469971-0.0171127-5.7139893,1.673851-5.7806091,5.3626175
			c-0.0707703,3.9200211,5.4878845,8.7898636,10.0190125,8.9010162
			C321.7577515,88.4323959,323.6494751,87.5338669,323.5839233,84.634903z M254.8433075,53.5248451
			c0.0483246-1.8887291-1.4525757-2.1104164-2.661377-2.4534111c-3.9614258-1.1240654-8.0704651,1.3775101-10.2790222,6.0179672
			c-1.57341,3.3059464-1.7131042,5.1084824,3.0333405,4.8808327c6.3068237-0.3024864,8.2982941,2.4897575,6.6790924,8.4062157
			c-0.2411957,0.8812866-0.6009674,1.7112503,0.4847107,1.9654617c1.7390289,0.4071808,1.8708954-0.9115982,1.8429413-2.1406097
			C253.8157043,64.6018906,252.008728,58.9171753,254.8433075,53.5248451z M612.6533813,308.4806519
			c-0.1782227-1.0125732-0.201355-1.8722839-0.4911499-2.6299744c-0.5127563-1.3406982-0.6636353-3.3398743-2.2445679-3.5372925
			c-1.6724854-0.2088013-2.239624,1.8434448-2.6856689,3.0309753c-1.0318604,2.7469177-2.8577881,4.2366333-5.5236816,5.1809082
			c-1.1121826,0.3939819-2.746521,1.0394897-2.5302734,2.6005859c0.1893921,1.3675842,1.5767212,1.9393005,2.8684692,2.4104309
			C607.3885498,317.4846191,612.7347412,313.8463135,612.6533813,308.4806519z M257.6632996,72.3725586
			c1.326416,1.1363297-1.7004547,3.668129,1.0232239,4.4761276c2.118927,0.6286011,3.7155151-1.1371613,5.0032349-2.6490631
			c1.0502319-1.2330399,2.5996094-2.205986,2.8275146-3.9812775c0.2747192-2.1394882,0.6876526-4.5176544-1.859436-5.6107025
			c-1.99646-0.8567429-4.4010315-1.4360771-5.8954773,0.6844788
			C257.3969421,67.2295837,257.8670044,69.7601013,257.6632996,72.3725586z M558.1246948,257.4828491
			c3.3471069-0.1546936,6.4675293-1.8425903,6.5412598-4.4851685c0.086853-3.11026-3.4752808-4.0231934-6.3345337-3.9496613
			c-3.2004395,0.0822754-7.0372925,1.0057983-6.8161621,4.7391357
			C551.6998291,256.9039001,555.7763062,256.7276306,558.1246948,257.4828491z M248.5227966,67.5404205
			c-0.0846252-1.4907532-1.3158112-1.9146194-2.6600342-2.1208878c-3.5356903-0.5425186-10.2841034,5.9346695-9.825058,9.4441605
			c0.0500183,0.3824615,0.3983002,0.8933487,0.7399902,1.0421982
			C238.5746307,76.6887131,248.388031,69.8226852,248.5227966,67.5404205z M207.4899902,90.8714905
			c3.8223877-0.9495239,7.6821289-1.7719116,11.4574585-2.8815536c4.4692688-1.3135986,8.7997284-3.0361404,12.6442413-5.7437363
			c0.7332916-0.5164413,1.9007111-1.1605606,1.2532043-2.3304749c-0.6432495-1.1622162-1.7200928-0.6970749-2.583252-0.1438599
			C223.1145477,84.3525238,215.3000488,87.4964752,207.4899902,90.8714905z M578.4024048,296.5001526
			c-0.9177856,2.2465515,0.0718994,4.1827393,2.2566528,4.4823608c2.3778687,0.3261108,1.1503906-2.6048584,2.2094116-3.7478027
			c0.3811035-0.4112244,0.1415405-1.3460693,0.4616699-1.8743591c1.2624512-2.0829468,1.6914673-4.6965637-0.6345825-5.5286865
			c-2.9263306-1.046875-3.5921631,2.0021057-4.2578125,4.1696472
			C578.2139893,294.7301025,578.4024048,295.5855103,578.4024048,296.5001526z M285.6812439,75.6760406
			c-0.1490784-2.3740463,0.0167542-5.0564651-2.9348755-5.5773392c-2.0667725-0.3647308-2.3365479,1.6211243-2.0348816,3.0644836
			c0.526123,2.5169601,0.9714966,5.8221893,3.6237183,6.4106979
			C286.1623535,79.9793015,285.3156738,77.0462875,285.6812439,75.6760406z M563.7719727,288.2243042
			c4.0291748-0.7809143,6.2179565-3.3213806,8.8231201-5.0749817c0.7313232-0.492218,1.8273926-1.3086243,0.8835449-2.355896
			c-0.7211914-0.8001099-1.909668-0.6076355-2.7218018,0.0401917
			C568.2897949,282.8015137,565.5724487,284.5630188,563.7719727,288.2243042z M590.6585693,310.8833923
			c2.2651367-2.5611267,1.0356445-5.2865906,1.3052368-7.7714539c0.105957-0.9758911,0.0266113-2.0808411-1.2987671-2.2036133
			c-1.4595337-0.1351929-2.1401367,0.8215637-2.0457153,2.1136169
			C588.8060913,305.5789185,588.5700684,308.2709656,590.6585693,310.8833923z"/>
	</g>
</g>
</svg>
