<?xml version="1.0" encoding="utf-8"?>
<!-- Generator: Adobe Illustrator 19.0.1, SVG Export Plug-In . SVG Version: 6.00 Build 0)  -->
<svg version="1.1" id="Слой_1" xmlns="http://www.w3.org/2000/svg" xmlns:xlink="http://www.w3.org/1999/xlink" x="0px" y="0px"
	 viewBox="0 0 960 560" style="enable-background:new 0 0 960 560;" xml:space="preserve">
<style type="text/css">
	.st0{fill:#70D944;}
</style>
<g>
	<g>
		<path class="st0" d="M362.0914001,280.2570496c-0.0633545-65.2772522,52.7946167-118.1398163,118.1430359-118.1533203
			c65.2536621-0.0134888,118.0979614,52.8076782,118.1169434,118.0651855
			c0.0189819,65.3056946-52.8391724,118.1724243-118.1489868,118.1680603
			C414.940155,398.3326111,362.1547546,345.5610962,362.0914001,280.2570496z M472.6002502,278.2413025
			c0.0982056-0.0235596,0.1964111-0.0471191,0.2946167-0.0707092c0.085968,0.1699829,0.1739197,0.3389893,0.2576904,0.5100098
			c3.6827698,7.5195313,7.9048157,14.7088928,13.0965271,21.2987061c0.3668518,0.4656067,0.4163818,0.851532,0.2954712,1.414917
			c-1.046814,4.8776855-2.0369263,9.7675171-3.0750122,14.6471252c-2.7181091,12.7764587-5.4494019,25.5501404-8.1816101,38.3236084
			c-0.5375366,2.5131531-0.5502625,2.5109558,1.9881287,2.510498c5.4395447-0.0009766,10.8792114-0.0211792,16.3185425,0.0141296
			c0.927002,0.0060425,1.4902344-0.101532,1.5629272-1.2121582c0.0646057-0.9866028,0.3609314-1.959259,0.5691223-2.9350586
			c2.5085449-11.757782,5.0205078-23.5148621,7.5290222-35.2727051c0.2679749-1.2559814,0.3457947-1.2978821,1.4382324-0.6314392
			c5.4490356,3.3241272,11.2833252,5.6072693,17.6068726,6.6207275c11.2171021,1.797699,21.5424194-0.2817993,30.7676392-7.071228
			c7.1367188-5.2523804,11.9404907-12.2122192,14.3811646-20.6874084
			c2.0532227-7.1298828,2.0152588-14.3446045-0.0478516-21.5175171c-2.2460327-7.8090515-6.5389404-14.3143005-12.8013306-19.410614
			c-8.4979248-6.9156189-18.3227539-9.7940979-29.2111206-8.5509338
			c-11.3476563,1.295639-20.145813,6.9370728-26.6563416,16.2646484c-2.9113159,4.1710815-4.941925,8.7543335-6.5471497,13.5507202
			c-0.09375,0.2801819-0.0319824,0.7162476-0.4415588,0.7680054c-0.3457336,0.0437012-0.388092-0.3412781-0.5308838-0.564209
			c-7.9620972-12.432251-13.8571472-25.8070831-18.1609192-39.9029694c-0.257843-0.8444672-0.6086731-1.2199554-1.5704651-1.2117462
			c-5.7590942,0.0491486-11.5191956,0.0585327-17.2780762-0.0028534c-1.144165-0.0121918-1.3712158,0.3499298-1.3692017,1.4174042
			c0.0317383,16.7985687,0.0236511,33.5971985,0.0159912,50.3958435c-0.0003357,0.7162781-0.0027771,1.4490662-0.1430969,2.1462402
			c-1.4925232,7.4151306-5.8843079,12.3213501-13.0970154,14.4663696c-5.4937134,1.6337891-10.7710571,0.6435547-15.3938293-2.70224
			c-5.2750854-3.8179321-7.7148438-9.1231079-7.6835938-15.6907349c0.0768738-16.1583252,0.0121765-32.3172607,0.0455322-48.4758759
			c0.0024719-1.1967316-0.3178711-1.5715179-1.5508118-1.5570831c-5.6387634,0.06604-11.2789307,0.0558624-16.9179993,0.0054474
			c-1.0075989-0.0090027-1.1800537,0.3466644-1.1785889,1.2466736c0.0272217,16.7585449,0.0524902,33.5171967,0.0088501,50.2756195
			c-0.0093994,3.6018677,0.507782,7.1116028,1.6109009,10.4938354c3.8197632,11.7119141,11.3904419,20.005249,22.9507141,24.4446716
			c9.4298096,3.6212769,18.875061,3.4050598,28.1228333-0.6192932
			c10.3388062-4.4991455,17.3039246-12.2250366,21.0498352-22.8470459c1.6031799-4.546051,2.0827026-9.2545776,1.9356689-14.0515137
			C472.5505676,282.1296082,472.6002502,280.1846924,472.6002502,278.2413025z"/>
		<path class="st0" d="M530.3203735,304.3022156c-7.4784546-0.1667786-13.3889771-2.479126-18.8353271-6.1451721
			c-0.9588318-0.6454163-1.8557434-1.3844604-2.8270569-2.0090027c-0.5698242-0.366394-0.7391663-0.8297424-0.5979004-1.4215393
			c1.3126221-5.4992371,1.9328003-11.1745911,4.268219-16.4136963c1.6187744-3.6315002,3.7165527-6.8914795,6.9466553-9.2940063
			c4.0300293-2.9975586,8.5943604-3.8763428,13.4942017-3.1806641
			c10.0857544,1.4320374,17.4210815,10.8092346,16.4180908,20.9420166
			C548.1880493,296.8753357,539.4889526,304.6011963,530.3203735,304.3022156z"/>
	</g>
</g>
</svg>
