<?xml version="1.0" encoding="utf-8"?>
<!-- Generator: Adobe Illustrator 19.0.1, SVG Export Plug-In . SVG Version: 6.00 Build 0)  -->
<svg version="1.1" id="Web_x5F_design_xA0_Изображение_1_"
	 xmlns="http://www.w3.org/2000/svg" xmlns:xlink="http://www.w3.org/1999/xlink" x="0px" y="0px" viewBox="0 0 700 400"
	 style="enable-background:new 0 0 700 400;" xml:space="preserve">
<g>
	<g>
		<path d="M581.7550659,316.7655029c10.366333,10.5625,19.7354126,20.2282715,29.2404175,29.7584229
			c8.7081909,8.7312622,17.585083,17.2941589,26.3358154,25.9833984c1.826355,1.8134766,4.6835938,3.4893494,3.4039917,6.6095276
			c-1.2519531,3.0526428-4.3811646,1.7542114-6.6862793,1.7550049
			c-161.6601257,0.055542-323.3202515,0.0232239-484.9803467,0.1045227
			c-11.5478516,0.0057983-22.9087448-0.4035339-34.0505371-3.9560547
			c-15.4658661-4.9312439-29.1735992-12.7795105-39.6331253-25.1653137
			c-9.4545212-11.1957703-13.8040543-24.5724792-14.6275406-39.4020996
			c-0.4436455-7.9893188,1.5978355-15.2649536,3.9920044-22.330719
			c9.0256424-26.6368408,18.4243851-53.1110382,30.2684097-78.7370758
			c12.2065201-26.4103241,42.737114-34.9179382,68.1765366-15.3249207
			c5.538208,4.2654724,9.0558777,10.5914001,11.3382416,17.3702087
			c6.8546448,20.3587952,13.7317047,40.7100525,20.5848541,61.0693512
			c1.8828583,5.5936279,2.6165466,11.3850403,2.298584,17.2430725c-0.1733398,3.1934814,0.667923,4.3473511,4.0736847,4.3199768
			c18.8313599-0.1514587,37.664566-0.0699158,56.4971466-0.0770264c1.6447144-0.0006409,3.2902527,0.1880798,4.585968-1.3261719
			c5.1918945-6.0673828,12.3247375-8.3379517,19.8105469-9.5582581c4.0693665-0.6633301,6.7803955-2.2988281,8.8327332-6.0679016
			c2.535553-4.6565552,5.9077148-8.8608398,8.9587708-13.2323303c2.2926636-3.2848816,4.502594-6.5285339,5.1812134-10.6685181
			c0.4995728-3.0478668,2.42276-5.5029602,4.9763184-7.2548218c9.3290405-6.400177,13.7753296-18.7755737,10.4593201-29.6964874
			c-0.9518433-3.1347351-0.6938782-6.2749176-0.4942017-9.4090424c0.3459778-5.4302979-0.0638123-6.0062103-5.3392944-4.1002502
			c-5.1650696,1.8660583-10.2669373,2.4222565-15.6703186,1.5846252c-3.7862549-0.5869446-5.5632629-2.2488251-5.2484436-6.2861328
			c0.4615479-5.9183655,1.567688-11.494339,5.7645264-16.0452576c0.7779541-0.8435974,1.3048096-1.9261475,1.9073792-2.9227295
			c2.0541992-3.3974457,1.3948364-5.5276794-2.222229-7.8041382c-6.9404297-4.3680573-14.6904297-5.9630432-22.3852844-7.9090424
			c-2.8833313-0.7292023-5.6199036,0.2008972-8.2833557,1.1924286c-2.8580017,1.0639801-5.7886963,1.5055542-8.8244934,1.4168243
			c-1.5644531-0.0457306-3.2254639-0.1910553-3.6461792-1.9388123c-0.448288-1.8620605,0.797699-3.2535858,2.3439941-3.9828339
			c3.2306213-1.5235748,6.7965698-2.091629,10.2515564-1.5535431c12.8280029,1.997879,25.387207,4.9006805,35.9966125,13.0564117
			c1.5315552,1.1773224,3.003418,1.7011261,4.2281494-0.1558075c2.29953-3.4864349,5.9441528-4.5879822,10.6640015-5.8244171
			c-4.9885864-4.2823944-9.5266724-7.9754333-13.8344116-11.9200134
			c-7.8832092-7.2185516-17.563324-9.5155029-27.7552185-10.6740723c-2.3869019-0.2713165-6.314209-0.4670715-6.0681763-2.9895935
			c0.2901611-2.9742279,4.0517883-2.2356262,6.6538086-2.1563568c12.0107727,0.3658905,21.2566833,6.7890625,29.890564,14.0942993
			c4.0079346,3.3911591,8.6358337,6.1347351,11.8170166,10.5544128c1.4336548,1.991806,3.6169739,2.8703308,6.4391479,2.9247589
			c13.9516296,0.2690125,19.3598633,8.5481262,13.6560059,21.1573029c-2.1572266,4.7688293,1.704071,5.0267181,3.7707214,5.3687897
			c5.4679871,0.9050293,10.2278442,0.3626556,14.5630188-4.7717133
			c34.1886902-40.4914246,69.1783447-80.2746048,107.302124-117.1726913
			c0.3591003-0.3475494,0.6941223-0.7224503,1.0724792-1.0471802c1.4541321-1.2479858,2.8248901-3.513443,5.0075684-1.7076111
			c1.9324036,1.5987625,0.212738,3.3949051-0.6696777,4.8710403c-9.7545166,16.3179932-20.9231873,31.7022171-31.5278931,47.4567413
			c-8.0932617,12.0234528-16.346283,23.9572754-25.0111084,35.5707397
			c-4.4758911,5.9990692-7.9645081,12.3832092-9.7624207,19.4789581
			c-2.1827698,8.6147308-7.5360718,14.5102692-14.857605,18.5204163
			c-6.9226074,3.7916718-9.6251221,10.8274994-14.3054199,16.3255463c-1.261261,1.4816284-0.1039734,2.3176575,1.1425781,3.0917206
			c5.4273071,3.3700714,10.8639526,6.7245789,11.4523315,14.0837555c0.099823,1.2488251,1.3477783,1.8811188,2.4060059,2.3622437
			c14.3419189,6.52034,18.3811035,19.0508728,19.8829041,33.3237152c0.7802124,7.4149475-1.0776672,14.5794373-1.1149292,21.8822937
			c-0.0503235,9.8613892-0.0023804,9.86203,9.9291687,9.8628845c7.3330383,0.0006104,14.6672058-0.072998,21.9984741,0.0415344
			c2.4120178,0.0376892,3.9413452-0.2903137,4.6425171-3.0831604c2.4420471-9.7271118,8.5379639-16.2597046,17.9039307-19.9262085
			c4.04776-1.5845947,5.551239-5.9573364,8.5308838-8.7579346c4.8120728-4.5229187,9.0137634-9.4487457,12.4134827-15.2335358
			c7.8624878-13.3783417,19.8963928-21.7257385,34.3578186-26.8061829c6.8709106-2.4138184,12.52948-7.5518646,19.6756592-9.1968384
			c17.1794434-3.9544525,34.4625854-6.5540009,50.7017822,3.1840668
			c8.4592285,5.0726776,14.4978027,12.204071,16.6994019,22.3464355c1.3496094,6.2171783,2.0577393,12.3616486,2.2991333,18.7098389
			c0.2607422,6.8577881,4.3501587,12.6934509,6.8081055,18.9457092c4.1809692,10.6350098-1.4789429,27.401825-11.4621582,32.8150635
			c-0.8392944,0.4550781-1.8833008,0.780304-2.822937,0.7590332c-3.7150269-0.0840454-7.2688599-0.3650818-7.9319458,4.848999
			c-0.2263184,1.7798157-2.3138428,2.1534424-4.093689,2.134613
			C587.3474731,316.7472229,585.0612183,316.7655029,581.7550659,316.7655029z M634.027771,376.9898376
			c-1.6960449-1.934967-2.4900513-2.9650574-3.4077148-3.8694763
			c-17.9189453-17.6602173-35.8937988-35.2640076-53.7345581-53.0027161
			c-2.4606323-2.4465637-4.9969482-3.3600769-8.3978271-3.3179016c-12.8280029,0.1590881-25.6638184-0.1322021-38.4865112,0.1737366
			c-6.0002441,0.143158-11.1602173-0.9142456-15.0010376-5.8175049c-0.8619995-1.1004944-1.9458618-1.0180359-3.1340332-1.0132751
			c-5.4844055,0.0220032-10.9717102,0.0879517-16.4530334-0.0539856c-12.823761-0.3319702-25.6428223-0.3657227-38.4709778-0.16922
			c-5.0115662,0.0767517-9.7523804-1.1320496-10.4725952-7.5119934c-0.1955872-1.7327576-1.137085-2.5170898-3.0100708-2.5049438
			c-10.1635132,0.06604-20.3276672,0.0395813-30.4915771,0.021759c-1.5724792-0.0027466-2.6633911,0.5031433-2.5095215,2.2618408
			c0.5830994,6.6641541,0.8306274,13.423645,7.8382263,17.2773743c2.7478333,1.5111694,5.2242737,3.540863,7.7241211,5.4646301
			c0.894043,0.6880493,1.7125244,1.7672424,1.1206665,3.0340881c-0.5093994,1.0904236-1.7055664,0.856781-2.6657104,0.8752747
			c-5.1182251,0.0986023-9.3530273-1.6078796-12.4906921-5.8647766c-4.2868042-5.8159485-6.4888916-12.3647156-6.7345886-19.4909058
			c-0.0999146-2.8983765-1.1054382-3.6398926-3.8311768-3.6087036c-10.6624451,0.1218872-21.3283386,0.1393738-31.9902649-0.0040283
			c-3.2088928-0.0431824-5.3190002,1.6849365-7.1598511,3.7112732c-4.4293213,4.8757019-9.8887634,4.7912292-13.6328125-0.4866638
			c-1.1184692-1.5767212-1.7610474-3.3754578-4.4155273-3.2432556c-5.1525269,0.2566528-10.3268738,0.0768127-15.492157,0.0757446
			c-1.5438538-0.0003357-3.1002808-0.0541077-3.0465698,2.1930542c0.2279053,9.5368042-6.6460876,15.6264954-11.1467285,22.8582458
			c-2.3354492,3.7526245-6.1078796,4.9652405-10.2385559,5.2634888c-1.2424011,0.0896912-2.8908386,0.5853577-3.60849-0.8843079
			c-0.7310791-1.4971313,0.5655518-2.5700378,1.5937805-3.2987671c3.6560364-2.5911255,6.6606445-5.9234924,10.3231506-8.5582581
			c4.4157104-3.1766663,7.1464233-7.8019409,7.6342468-13.4917908c0.2423096-2.8263855-0.383606-4.3551331-3.7283325-4.1469727
			c-4.3153992,0.2685242-8.6737366,0.2713013-12.9880066-0.0071106c-3.1508179-0.2033386-4.069397,1.2973633-4.3594971,3.9844971
			c-1.4574585,13.5011292-7.8169556,23.1715698-20.8044739,28.5927734
			c-7.6027222,3.1734619-15.2451782,6.9608765-19.3151245,15.0158386c-0.5447693,1.078186-1.4790344,1.9724426-2.8135376,1.1635437
			c-1.184021-0.7176514-1.035202-1.9803467-0.8601685-3.1526794c0.7370911-4.9365845,1.5776062-9.8979187,1.0504761-14.8862915
			c-0.936554-8.8627625-0.6196442-17.6554565,1.3224487-26.3257446c0.771759-3.445343,0.2346191-4.462677-3.556778-4.4161377
			c-17.3261566,0.2126465-34.6576538,0.2037659-51.9841919,0.0071411c-3.883316-0.0440979-5.7043762,0.848114-6.981308,4.9054565
			c-6.7072754,21.3115845-27.7715912,34.0423889-49.5608368,30.4092712
			c-12.3449249-2.0583801-12.5460968-2.3010559-12.3178711-14.8666077c0.0060425-0.3331604,0.0239258-0.6661072,0.0287018-0.9992676
			c0.314743-21.9904175,0.5023651-43.9839478,1.0427399-65.968811c0.1167603-4.7498627-1.3115234-5.8436584-5.6622925-4.6442719
			c-6.524353,1.798584-13.1620712,2.8305359-19.5625153,5.4849091
			c-17.5461121,7.2766418-30.9283676,18.4662476-38.4900436,36.2685242
			c-8.702652,20.4885254-4.5624466,38.9042969,8.1892395,56.1915894
			c6.2280807,8.4432983,14.2546082,14.7532959,23.5335312,19.350769c6.9467392,3.441925,13.9430542,6.7182922,21.7689133,8.2517395
			c17.0149307,3.3340759,34.19561,2.6577759,51.3035355,2.676239
			c150.6268005,0.1625671,301.2538147,0.0938416,451.8807678,0.0935669
			C629.1830444,376.9898071,630.991333,376.9898376,634.027771,376.9898376z M612.0657349,285.5385132
			c0.4050293-4.4073486-0.800293-8.2011719-2.4537964-12.1464539c-2.7390137-6.5355225-4.5369263-13.2467957-4.866333-20.6374817
			c-0.7002563-15.7121429-6.3677368-28.9098053-22.4277344-35.3288574
			c-13.180481-5.268158-26.3457031-3.2962952-39.5685425-0.5685883
			c-8.3902588,1.7308044-14.8922119,7.6746368-22.9890747,10.2382813
			c-13.2919617,4.2085419-23.0863037,13.1304016-30.7392883,24.5668945
			c-7.0770874,10.5758209-14.7484131,20.4845734-25.7055969,27.5692596
			c-5.8603821,3.7891541-10.9157715,8.7290344-12.4058533,16.1922302c-1.0228271,5.1229858,1.3552246,9.5238037,5.5780029,9.534729
			c17.8156433,0.0461426,35.6315613,0.0043335,53.4473267-0.0262451c1.285614-0.0021973,2.8811951,0.3508911,3.4889221-1.2403259
			c2.3293457-6.0991211,8.0446777-8.6880798,12.7247314-12.2916565c7.2390747-5.5739136,15.3214722-6.1928101,23.5679932-2.7422485
			c5.1273804,2.1454773,10.1893921,3.5449219,15.8330688,3.7426453c5.7755127,0.2023926,11.5349731,1.4813232,17.2508545,2.5578308
			c4.0424805,0.7613525,7.4362183,2.9367371,9.953125,6.2194824c3.6998291,4.8257446,8.2883301,5.2890625,12.7294922,1.1114502
			C610.3574219,297.7043152,612.8168335,292.1567993,612.0657349,285.5385132z M183.6286774,257.5525818
			c0-0.6699219,0.1245117-1.1878967-0.0180206-1.6172333c-4.9243011-14.8344269-9.5298462-29.7871094-14.9270477-44.4482269
			c-4.4291229-12.0314484-14.3851318-18.3760834-26.3987427-20.4332886
			c-20.6922531-3.5433502-35.0112,4.6614685-43.6254654,23.9457397
			c-4.3372879,9.7096863-8.5471649,19.4860229-12.4585571,29.3730927
			c-3.0708237,7.7622833-5.5949249,15.7408295-8.4564209,23.8925323c2.7710037-0.0977783,3.7113342-1.6562805,4.8448715-2.794342
			c6.2673645-6.2922058,13.7681427-11.1738281,21.8783417-14.0108337
			C131.4212646,242.0314484,158.1996307,239.4924622,183.6286774,257.5525818z M139.719696,288.7989197
			c-0.3366699-0.0001221-0.6733398-0.0002441-1.0100098-0.0003662c0,11.8124695,0.0097656,23.6249695-0.0094147,35.4373779
			c-0.0032806,2.0278625-0.1932526,3.7826843,2.6208801,4.4469604c14.4318237,3.4066467,27.5693207,1.1175842,38.5687561-9.148468
			c11.1165466-10.3753052,14.987854-23.3919373,11.690155-38.1985168
			c-4.4917908-20.1679077-29.4820709-36.6048584-49.3381958-32.9487762c-3.1145172,0.5734863-2.478653,2.668869-2.4885406,4.4839172
			C139.6882172,264.8467102,139.719696,276.8229065,139.719696,288.7989197z M461.0172119,84.0054626
			c-0.3377991-0.2927017-0.6756287-0.5853958-1.0134583-0.8780975
			c-5.1178589,5.0826721-10.3990479,10.0122986-15.3276062,15.2723618
			c-37.9276428,40.478508-74.3015442,82.3346329-110.2752686,124.5456619
			c-4.2236633,4.9560089-8.1634521,10.0709229-11.6066895,15.6068573
			c-7.4169312,11.9246674-8.7644043,10.7494812,4.5576172,17.9205322c3.0147705,1.6228333,4.5811157,1.6211243,7.1101379-0.952179
			c21.9226685-22.3066254,39.7927856-47.7936249,58.0096436-73.030777
			c5.7696228-7.9930878,12.1711426-15.4586639,10.6167908-26.4491577c-0.3717041-2.6281433,1.2912292-5.505127,4.6581726-5.3339081
			c3.4350281,0.1746979,1.6289673,3.3561707,2.3291931,5.130188c0.0809631,0.2050476,0.4664917,0.2898712,0.9665527,0.5775604
			C428.6097412,132.9168701,444.5267639,108.264946,461.0172119,84.0054626z M339.51297,265.6622009
			c0.7241821,13.4837646,6.6867676,25.1009827,13.2135315,36.5177612c0.9446106,1.6523438,2.1508484,0.8249512,3.4517822,0.5476685
			c5.160553-1.1001892,7.8666077-5.4802551,10.8302917-8.9186707c6.276947-7.2824097,11.6604614-15.3652344,15.7926331-24.1001587
			c2.9582214-6.2532959,6.1194153-12.688385,3.5863342-19.9722748c-0.5421143-1.5588074-1.4367371-4.222702-3.4526367-1.094574
			c-4.7787476,7.4152374-12.8353271,12.8732452-13.6317444,22.7004242c-0.0623779,0.7698669-0.6166382,1.5427246-1.0699463,2.230011
			c-1.3171997,1.9971313-3.1187134,3.237854-5.4689941,2.0133057c-2.1931763-1.1427002-2.2233582-3.4241028-1.2701111-5.2494812
			c1.5290833-2.927948,2.7106934-6.035614,4.8321533-8.6899414c4.4654846-5.5872192,8.6862488-11.3693695,13.0509033-17.0380402
			c2.815033-3.6560822,0.5839233-6.1352692-2.3020935-7.6454315c-3.7071228-1.9398193-2.6783447,2.2448425-3.3086243,3.5368347
			c-5.4889221,11.2517548-14.3401489,14.2234802-25.1662598,7.9830322c-1.9536133-1.1260986-2.6314697,0.064682-3.7066956,1.0818481
			C340.2352295,253.9713135,339.5315857,259.6548157,339.51297,265.6622009z M563.4630737,312.4661865
			c-0.0001221,0.1870728-0.0003052,0.3741455-0.0004272,0.5612183c7.3175659,0,14.6382446-0.1252136,21.9512939,0.0565186
			c3.3070068,0.0821838,4.4661255-1.1938782,4.3198242-4.3768921c-0.1328735-2.8908081-1.1890259-5.0249329-3.6156616-6.6869812
			c-2.8695068-1.9653625-6.1378784-2.4923706-9.401001-3.0461121c-10.7157593-1.8185425-22.0244141-0.7674866-31.8970947-6.7021179
			c-0.770874-0.4633789-1.9578857-0.1999512-2.939209-0.3530273c-8.3228149-1.2980347-13.5206299,4.5640259-19.4735107,8.5817871
			c-6.1902466,4.1781006-5.989563,6.83255,0.4275513,10.7817993c1.5064087,0.9271545,3.0698853,1.1830444,4.7496948,1.183197
			C539.5440674,312.4667053,551.5036011,312.4661865,563.4630737,312.4661865z M388.0095825,295.983551
			c4.6546936,0,9.3098145-0.0377808,13.9638367,0.0180664c1.9416504,0.0232849,3.3510742-0.4433594,3.1120605-2.7284851
			c-0.9059448-8.6614685,1.7405701-17.2446899,0.8925476-25.8172913
			c-1.0697632-10.8140564-1.304657-22.2956543-12.4553223-28.8718719c-1.3749695-0.8108978-2.7531738-2.8335114-4.228241-1.9764099
			c-1.7506714,1.0171967-1.394165,3.5643768-1.7284546,5.4708862c-0.150116,0.8562317,0.5005493,1.8772125,0.8608093,2.7947845
			c3.7264709,9.4909668,1.7366638,18.3821716-2.4683228,27.2187805c-3.5527344,7.4659119-8.1473694,14.175293-13.3880005,20.5023193
			c-0.619812,0.7483521-1.4957886,1.5393982-1.1179199,2.5966492c0.4400635,1.2312927,1.6902466,0.761261,2.5932007,0.7714844
			C378.6998596,296.0153198,383.3548889,295.986969,388.0095825,295.983551z M283.0335999,290.3635864
			c-4.8202515,0.7743225-9.7844543,1.6937866-13.9584656,4.3838196c-3.6356812,2.3431396-6.7574768,5.6352539-7.8018494,10.0443726
			c-2.5912476,10.9393005-1.2489319,21.9937134-0.9559631,33.191925c6.786438-3.7179565,12.9059448-7.9230347,19.63797-10.5709534
			c11.9089966-4.6842041,16.3738708-18.863739,16.2034607-33.7472839
			c-2.5237427,3.4328613-4.2377014,7.0859985-8.1413879,10.7884216c1.7225952-5.328064,2.9747925-9.2011719,4.4351196-13.7180786
			c-8.4872742,2.0418701-12.9528809,10.1842651-21.4749146,12.0054932
			C274.2380981,297.4072876,278.7530518,294.2559814,283.0335999,290.3635864z M303.9463501,265.5852356
			c-3.1373596,4.3917847-6.4624939,8.7430725-9.4299011,13.3259277c-1.5270386,2.3583679-1.783844,5.1882019,0.8476868,7.134491
			c2.4372864,1.8026733,5.0638733,4.6678467,8.3143616,1.6224976c8.0067749-7.5014648,16.4412537-14.5497131,23.865448-22.6781616
			c2.1080627-2.3080444,1.6002502-3.3536072-0.8357544-4.7744446c-3.7073669-2.1623535-8.0014648-3.3850403-10.9729309-6.7705078
			c-1.4910889-1.698822-2.4961853-0.5548248-3.5726013,0.695755c-2.3880615,2.7744293-1.0777283,6.0514069-1.4355469,9.105484
			c-0.2422485,2.0673218-0.0289917,4.6468811-2.5004272,5.5028076
			C305.8491821,269.5724792,305.9845581,266.3128967,303.9463501,265.5852356z M307.5179749,180.5322723
			c-5.5235901,5.3400879-7.8029785,11.4592743-9.4131165,17.9013367c-0.5816345,2.3271942,0.1252441,3.352829,2.8991394,3.8117371
			c10.053894,1.6633606,18.4839783-2.4756012,27.1131287-6.5278473c5.3989563-2.5353546,8.5135193-6.4607849,10.0053101-12.1039734
			c1.6941528-6.4087982-2.3158875-12.3717194-8.5093689-12.3039398c3.1373596,7.1692352,0.757843,12.4736938-7.7082825,17.1832886
			C312.4222107,193.7679291,308.4315186,191.7960663,307.5179749,180.5322723z M335.9455261,260.0350647
			c-5.5146484,7.8961792-8.9691772,15.3787231-9.9048157,23.6260681c-1.39505,12.2966309-1.1105347,12.328949,11.135498,12.3287354
			c1.4977417-0.0000305,2.9981689-0.0581055,4.4926147,0.0118713c2.3407593,0.1095886,3.6542969-0.2943726,2.0737305-2.9872131
			c-1.5865173-2.7030029-2.9744873-5.5221863-4.4594727-8.2850952
			C335.3162231,277.3490601,336.1424255,269.2541809,335.9455261,260.0350647z M342.9537354,203.3613129
			c-0.2634277-6.4961548-4.4165039-9.7891998-8.5457153-7.1868744c-10.3165894,6.5017548-10.3108826,6.5000763-6.7997742,18.3559875
			c0.2324524,0.7850037,0.1720581,1.6609192,0.4310608,2.4330902c1.1612244,3.4620209,3.1408997,3.9240417,5.5604858,1.2501526
			c2.3349304-2.5803528,4.5067139-5.3088226,6.8549194-7.8764801
			C342.4047546,208.204895,344.3677063,206.1646118,342.9537354,203.3613129z M322.0223389,275.5015869
			c-1.0036621,0.2771606-1.3613281,0.2936096-1.6234436,0.4602966
			c-7.3598938,4.6804199-11.7960815,12.5417786-18.9414978,17.4751587c-0.351593,0.2427673-0.4498596,1.2506714-0.2754517,1.7714233
			c0.3304749,0.9867554,1.3707275,0.7470398,2.1433716,0.7531128c4.6459656,0.0366821,9.2932739-0.0321655,13.9382935,0.0441284
			c2.0932617,0.0344238,3.0219421-0.7720337,2.9738159-2.9064026
			C320.1066284,287.3010254,320.9636536,281.5799561,322.0223389,275.5015869z M370.5934753,231.8834534
			c-5.3986511,2.1987915-9.6785583,6.4915619-15.8117371,7.0740967c-2.293335,0.2178497-3.5813599,3.6500549-2.8023376,6.6739044
			c0.7834167,3.0409698,3.2275085,2.3290253,5.2674561,2.3462524
			C365.5613403,248.0479279,371.7381592,240.8323517,370.5934753,231.8834534z M311.3404541,182.5642853
			c-0.1342163,4.175415,2.3572998,6.0345459,5.9256592,3.9779358c3.118042-1.7970886,6.0538635-4.0656891,8.6536865-6.5600739
			c2.3059082-2.212326,2.5078125-4.5325623-1.2034607-6.0809784
			C317.6512451,170.9534912,311.5901489,174.79599,311.3404541,182.5642853z M382.6903076,226.1873779
			c-2.4484253-4.2493439-5.844696-5.8956451-9.0370789-7.7634888c-1.1278992-0.6599426-2.2674561-0.667984-2.9941711,0.6119232
			c-0.8585815,1.5121918,0.5241394,2.0275116,1.3731079,2.6986694
			C374.9395752,224.0329437,378.4830933,224.7056274,382.6903076,226.1873779z M376.0051575,230.7667999
			c2.6523132,1.2514038,3.3212585,4.8539734,6.5291748,5.2102203c0.7407837,0.0822906,0.8531189-1.3807068,0.5794373-2.0950165
			C381.9359741,230.8079529,379.2330933,230.3743591,376.0051575,230.7667999z"/>
	</g>
</g>
</svg>
